<svg width="48" height="48" viewBox="0 0 48 48" fill="none" xmlns="http://www.w3.org/2000/svg">
<path d="M7.422 0.812862C6.74562 0.587583 6.0254 0.526228 5.32066 0.633851C4.61593 0.741474 3.94684 1.015 3.36853 1.43188C2.79022 1.84877 2.31924 2.39709 1.99437 3.03168C1.66951 3.66626 1.50007 4.36909 1.5 5.082V42.918C1.5 44.1115 1.97411 45.2561 2.81802 46.1C3.66194 46.9439 4.80653 47.418 6 47.418H42C43.1935 47.418 44.3381 46.9439 45.182 46.1C46.0259 45.2561 46.5 44.1115 46.5 42.918C46.5 41.8226 46.3911 40.7383 46.1792 39.6798C46.1724 39.637 46.1637 39.5948 46.1534 39.5533C45.5031 36.4317 43.9561 33.5396 41.6673 31.2507C39.569 29.1525 36.9638 27.6777 34.1395 26.9456C34.0884 26.9297 34.0365 26.9165 33.9839 26.9061C32.6913 26.5845 31.3542 26.418 30 26.418C28.0109 26.418 26.1032 25.6278 24.6967 24.2213C24.6196 24.1442 24.5444 24.0657 24.4711 23.9856C24.4522 23.9619 24.4325 23.9386 24.4121 23.9158C23.18 22.5437 22.4995 20.7641 22.502 18.92C22.5021 18.8933 22.5014 18.8667 22.5 18.8402V6.918C22.5 6.5374 22.3583 6.18992 22.1247 5.92544C22.0543 5.84563 21.9752 5.77311 21.8886 5.70944C21.7548 5.61086 21.604 5.53398 21.4414 5.48399L7.422 0.812862ZM13.0651 5.85523C12.6065 6.0736 12.184 6.37004 11.818 6.73602C10.9741 7.57993 10.5 8.72453 10.5 9.918C10.5 11.1115 10.9741 12.2561 11.818 13.1C12.6619 13.9439 13.8065 14.418 15 14.418H19.5V17.418H15.002C13.8085 17.418 12.6639 17.8921 11.82 18.736C10.9761 19.5799 10.502 20.7245 10.502 21.918C10.502 23.1115 10.9761 24.2561 11.82 25.1C12.6635 25.9434 13.8073 26.4175 15 26.418H22.6515C24.6129 28.3398 27.2506 29.4178 29.9994 29.418C29.9166 29.5284 29.8368 29.6412 29.76 29.7564C28.9383 30.9888 28.4998 32.437 28.5 33.9182V38.418H4.5V5.082C4.50004 4.84441 4.55652 4.61023 4.66479 4.39874C4.77308 4.18722 4.93008 4.00444 5.12284 3.86548C5.31561 3.72652 5.53864 3.63534 5.77355 3.59947C6.00841 3.5636 6.24843 3.58404 6.47384 3.65909L13.0651 5.85523ZM19.5 11.418H15C14.6022 11.418 14.2206 11.26 13.9393 10.9787C13.658 10.6974 13.5 10.3158 13.5 9.918C13.5 9.52018 13.658 9.13865 13.9393 8.85734C14.2206 8.57604 14.6022 8.418 15 8.418H19.5V11.418ZM19.6077 20.418C19.7582 21.4614 20.0646 22.4724 20.5132 23.418H15.002C14.6042 23.418 14.2227 23.26 13.9414 22.9787C13.66 22.6974 13.502 22.3158 13.502 21.918C13.502 21.5202 13.66 21.1386 13.9414 20.8573C14.2227 20.576 14.6042 20.418 15.002 20.418H19.6077ZM33.8327 29.9735C35.9715 30.6068 37.9402 31.7663 39.5459 33.3721C40.9833 34.8094 42.063 36.5374 42.7279 38.418H31.5V33.9178C31.4999 33.029 31.7629 32.1602 32.256 31.4207C32.6588 30.8165 33.2005 30.3209 33.8327 29.9735ZM43.4165 41.418C43.4719 41.9137 43.5 42.4144 43.5 42.918C43.5 43.3158 43.342 43.6974 43.0607 43.9787C42.7794 44.26 42.3978 44.418 42 44.418H6C5.60217 44.418 5.22064 44.26 4.93934 43.9787C4.65804 43.6974 4.5 43.3158 4.5 42.918V41.418H43.4165Z" fill="#01645A"/>
</svg>
