<svg width="48" height="48" viewBox="0 0 48 48" fill="none" xmlns="http://www.w3.org/2000/svg">
<path fill-rule="evenodd" clip-rule="evenodd" d="M21 0C20.2043 0 19.4413 0.316071 18.8787 0.87868C18.3161 1.44129 18 2.20435 18 3V8.476C17.9998 8.73215 17.9339 8.98429 17.8088 9.20783L14.6097 14.9281C12.9045 17.6464 11.9998 20.7907 12 24.0001V42.6589C11.9913 43.6644 12.3226 44.6435 12.9401 45.4373C13.5595 46.2334 14.4303 46.7961 15.4106 47.0338L15.4316 47.0387C21.072 48.3204 26.928 48.3204 32.5684 47.0387L32.5894 47.0338C33.5697 46.7961 34.4405 46.2334 35.0599 45.4373C35.6774 44.6435 36.0087 43.6644 36 42.6588V24C36.0002 20.7906 35.0955 17.6464 33.3903 14.9281L30.191 9.20753C30.0659 8.98399 30.0002 8.73167 30 8.47552L30 7.5L30 3C30 2.20435 29.6839 1.44129 29.1213 0.87868C28.5587 0.316071 27.7956 0 27 0H21ZM27 6V3H21L21 6H27ZM20.9692 9C20.9004 9.5859 20.7168 10.1545 20.4272 10.6722L17.2092 16.4262C17.1963 16.4492 17.1828 16.4718 17.1688 16.4941C15.7518 18.7411 14.9999 21.3435 15 24V42.666L14.9999 42.6819C14.9964 43.0124 15.105 43.3343 15.3079 43.5951C15.509 43.8536 15.791 44.037 16.1085 44.116C21.3035 45.2946 26.6965 45.2946 31.8915 44.116C32.209 44.037 32.491 43.8536 32.6921 43.5951C32.895 43.3343 33.0036 43.0124 33.0001 42.6819L33 42.666V24C33.0001 21.3435 32.2482 18.7411 30.8312 16.4941C30.8172 16.4718 30.8037 16.4492 30.7908 16.4262L27.573 10.6725C27.2833 10.1546 27.0996 9.58601 27.0307 9H20.9692Z" fill="#01645A"/>
</svg>
