<svg width="48" height="48" viewBox="0 0 48 48" fill="none" xmlns="http://www.w3.org/2000/svg">
<g clip-path="url(#clip0_29_349)">
<path fill-rule="evenodd" clip-rule="evenodd" d="M24 0.026001C19.5745 0.026001 14.7792 1.41088 11.0541 3.92639C7.32291 6.44595 4.5 10.2317 4.5 15.026V18.026H3C2.17157 18.026 1.5 18.6976 1.5 19.526C1.5 20.3544 2.17157 21.026 3 21.026H4.5V22.4948C4.49953 22.5164 4.49953 22.538 4.5 22.5595V37.526C4.5 38.7195 4.97411 39.8641 5.81802 40.708C6.29713 41.1871 6.87314 41.547 7.5 41.7686V43.526C7.5 44.7195 7.9741 45.8641 8.81802 46.708C9.66193 47.5519 10.8065 48.026 12 48.026C13.1935 48.026 14.3381 47.5519 15.182 46.708C16.0259 45.8641 16.5 44.7195 16.5 43.526V42.026H31.5V43.526C31.5 44.7195 31.9741 45.8641 32.818 46.708C33.6619 47.5519 34.8065 48.026 36 48.026C37.1935 48.026 38.3381 47.5519 39.182 46.708C40.0259 45.8641 40.5 44.7195 40.5 43.526V41.7686C41.1268 41.547 41.7029 41.1871 42.182 40.708C43.0259 39.8641 43.5 38.7195 43.5 37.526V22.5597C43.5005 22.538 43.5005 22.5163 43.5 22.4946V21.026H45C45.8284 21.026 46.5 20.3544 46.5 19.526C46.5 18.6976 45.8284 18.026 45 18.026H43.5V15.026C43.5 10.2317 40.6771 6.44595 36.9459 3.92639C33.2208 1.41088 28.4255 0.026001 24 0.026001ZM40.5 19.526V15.026C40.5 13.9759 40.3157 12.9733 39.9709 12.026H25.5V21.026H40.5V19.526ZM7.5 21.026V19.526V15.026C7.5 13.9759 7.68428 12.9733 8.02907 12.026H22.5V21.026H7.5ZM34.4124 24.026H24H13.5876C16.468 25.7243 18.8213 27.8288 20.6474 29.9973C22.0593 31.674 23.1879 33.4291 24 35.1025C24.8121 33.4291 25.9407 31.674 27.3526 29.9973C29.1787 27.8288 31.532 25.7243 34.4124 24.026ZM25.7162 39.026H33H39C39.3978 39.026 39.7793 38.868 40.0606 38.5867C40.342 38.3054 40.5 37.9238 40.5 37.526V24.5262C35.7734 26.1149 32.1559 28.9508 29.6474 31.9297C27.4451 34.5449 26.1874 37.156 25.7162 39.026ZM7.5 37.526V24.5262C12.2266 26.1149 15.8441 28.9508 18.3526 31.9297C20.5549 34.5449 21.8126 37.156 22.2838 39.026H15H9C8.60218 39.026 8.22064 38.868 7.93934 38.5867C7.65803 38.3054 7.5 37.9238 7.5 37.526ZM38.2124 9.026C37.406 8.06042 36.4109 7.18504 35.267 6.41261C32.0632 4.24912 27.8585 3.026 24 3.026C20.1415 3.026 15.9368 4.24912 12.7329 6.41261C11.5891 7.18504 10.594 8.06042 9.78761 9.026H24H38.2124ZM34.5 42.026V43.526C34.5 43.9238 34.658 44.3054 34.9393 44.5867C35.2206 44.868 35.6022 45.026 36 45.026C36.3978 45.026 36.7793 44.868 37.0606 44.5867C37.342 44.3054 37.5 43.9238 37.5 43.526V42.026H34.5ZM10.5 42.026V43.526C10.5 43.9238 10.658 44.3054 10.9393 44.5867C11.2206 44.868 11.6022 45.026 12 45.026C12.3978 45.026 12.7794 44.868 13.0607 44.5867C13.342 44.3054 13.5 43.9238 13.5 43.526V42.026H10.5ZM14.25 34.526C14.25 35.1227 14.0129 35.695 13.591 36.117C13.169 36.539 12.5967 36.776 12 36.776C11.4033 36.776 10.831 36.539 10.409 36.117C9.98705 35.695 9.75 35.1227 9.75 34.526C9.75 33.9293 9.98705 33.357 10.409 32.935C10.831 32.5131 11.4033 32.276 12 32.276C12.5967 32.276 13.169 32.5131 13.591 32.935C14.0129 33.357 14.25 33.9293 14.25 34.526ZM38.25 34.526C38.25 35.1227 38.0129 35.695 37.591 36.117C37.169 36.539 36.5967 36.776 36 36.776C35.4033 36.776 34.831 36.539 34.409 36.117C33.987 35.695 33.75 35.1227 33.75 34.526C33.75 33.9293 33.987 33.357 34.409 32.935C34.831 32.5131 35.4033 32.276 36 32.276C36.5967 32.276 37.169 32.5131 37.591 32.935C38.0129 33.357 38.25 33.9293 38.25 34.526Z" fill="#01645A"/>
</g>
<defs>
<clipPath id="clip0_29_349">
<rect width="48" height="48" fill="white"/>
</clipPath>
</defs>
</svg>
