<svg width="48" height="48" viewBox="0 0 48 48" fill="none" xmlns="http://www.w3.org/2000/svg">
<g clip-path="url(#clip0_31_349)">
<path fill-rule="evenodd" clip-rule="evenodd" d="M28.7925 26.2582L28.79 26.26C29.1637 26.7623 29.6501 27.1699 30.21 27.45C30.6155 27.6549 31.0518 27.7887 31.5 27.8468V31.56H30C29.6022 31.56 29.2206 31.718 28.9393 31.9993C28.658 32.2806 28.5 32.6622 28.5 33.06V43.56C28.5026 44.7527 28.9776 45.8957 29.8209 46.7391C30.6643 47.5824 31.8073 48.0574 33 48.06C34.1927 48.0574 35.3357 47.5824 36.1791 46.7391C37.0224 45.8957 37.4974 44.7527 37.5 43.56V33.06C37.5 32.6622 37.342 32.2806 37.0607 31.9993C36.7794 31.718 36.3978 31.56 36 31.56H34.5V27.8541C34.9692 27.8005 35.4264 27.6641 35.85 27.45C36.4039 27.1698 36.885 26.7646 37.2552 26.2665L37.26 26.27L37.34 26.16V26.15C40.1645 21.5418 41.7683 16.29 42 10.89V10.83C42 5.17 38.26 0 33 0C27.74 0 24 5.17 24 10.83V10.89C24.2307 16.2915 25.8383 21.5444 28.67 26.15L28.7925 26.2582ZM31.2155 24.4915C28.6732 20.3493 27.2226 15.6294 27.0001 10.7733C27.0203 6.93451 29.0873 4.10755 31.5 3.26193V24.7436C31.3888 24.6803 31.2918 24.5945 31.2155 24.4915ZM34.5 3.26193V24.77C34.6311 24.7058 34.7449 24.6114 34.8321 24.4947C37.3582 20.3471 38.7923 15.6264 38.9999 10.7735C38.9797 6.93462 36.9128 4.10757 34.5 3.26193ZM31.5 34.56V43.56C31.5004 43.9577 31.6586 44.339 31.94 44.62C32.225 44.8938 32.6048 45.0467 33 45.0467C33.3952 45.0467 33.775 44.8938 34.06 44.62C34.3414 44.339 34.4996 43.9577 34.5 43.56V34.56H31.5Z" fill="#01645A"/>
<path fill-rule="evenodd" clip-rule="evenodd" d="M18 36.06H16.7205L17.61 42.62C17.6985 43.3189 17.6337 44.0287 17.42 44.7C17.107 45.6929 16.4853 46.5601 15.6454 47.1752C14.8054 47.7903 13.7911 48.1213 12.75 48.12C12.0592 48.1177 11.3765 47.9706 10.7461 47.6881C10.1157 47.4056 9.55149 46.9941 9.09001 46.48C8.63134 45.9619 8.28662 45.3533 8.07818 44.6935C7.86974 44.0337 7.80222 43.3375 7.88001 42.65L8.77033 36.06H7.5C7.10218 36.06 6.72064 35.902 6.43934 35.6207C6.15804 35.3394 6 34.9578 6 34.56V13.56C6 13.1622 6.15804 12.7806 6.43934 12.4993C6.72064 12.218 7.10218 12.06 7.5 12.06H8.77182L7.88999 5.49002C7.80202 4.79441 7.86686 4.08798 8.07999 3.42002C8.28547 2.7634 8.62611 2.15707 9.07999 1.64002C9.53953 1.12162 10.1058 0.708834 10.74 0.430015C11.3699 0.151122 12.0511 0.00704956 12.74 0.00704956C13.4289 0.00704956 14.1101 0.151122 14.74 0.430015C15.3706 0.710073 15.9333 1.12278 16.39 1.64002C16.8511 2.15194 17.1926 2.75993 17.39 3.42002C17.6006 4.08158 17.6687 4.78022 17.59 5.47002L16.7156 12.06H18C18.3978 12.06 18.7794 12.218 19.0607 12.4993C19.342 12.7806 19.5 13.1622 19.5 13.56V34.56C19.5 34.9578 19.342 35.3394 19.0607 35.6207C18.7794 35.902 18.3978 36.06 18 36.06ZM15 15.06L15.0036 15.06H16.5V33.06H9V15.06L15 15.06ZM10.81 43.06L11.81 36.06L13.56 36.09L14.56 43.03C14.589 43.296 14.5617 43.5652 14.48 43.82C14.4024 44.0789 14.2693 44.3178 14.09 44.52C13.9082 44.7156 13.691 44.875 13.45 44.99C13.2043 45.0986 12.9386 45.1546 12.67 45.1546C12.4014 45.1546 12.1357 45.0986 11.89 44.99C11.6516 44.8771 11.4395 44.7156 11.2672 44.5158C11.095 44.316 10.9665 44.0824 10.89 43.83C10.8102 43.5817 10.783 43.3194 10.81 43.06ZM13.69 12.06H11.81L10.89 5.12002C10.861 4.85399 10.8883 4.58484 10.97 4.33002C11.0499 4.07208 11.1827 3.83367 11.36 3.63002C11.5398 3.43215 11.7574 3.27233 12 3.16002C12.2463 3.04381 12.5145 2.98106 12.7868 2.97589C13.0591 2.97072 13.3294 3.02325 13.58 3.13002C13.8245 3.23906 14.0428 3.39934 14.22 3.60002C14.3973 3.80367 14.5301 4.04208 14.61 4.30001C14.6901 4.54483 14.7174 4.80387 14.69 5.06002L13.69 12.06Z" fill="#01645A"/>
</g>
<defs>
<clipPath id="clip0_31_349">
<rect width="48" height="48" fill="white"/>
</clipPath>
</defs>
</svg>
