<svg width="48" height="48" viewBox="0 0 48 48" fill="none" xmlns="http://www.w3.org/2000/svg">
<path d="M25.75 25.5C25.455 25.4998 25.1629 25.442 24.89 25.33C24.4797 25.162 24.1307 24.8723 23.89 24.5C23.6408 24.1309 23.5084 23.6954 23.51 23.25C23.5127 22.6539 23.7498 22.0828 24.17 21.66C24.4321 21.4004 24.7537 21.2088 25.1068 21.1021C25.4599 20.9954 25.8338 20.9767 26.1958 21.0477C26.5578 21.1187 26.8969 21.2773 27.1835 21.5095C27.4701 21.7417 27.6955 22.0406 27.84 22.38C28.0073 22.7954 28.0524 23.2499 27.97 23.69C27.8822 24.1264 27.6664 24.5268 27.35 24.84C27.0354 25.1544 26.6356 25.3699 26.2 25.46C26.0518 25.4889 25.901 25.5023 25.75 25.5Z" fill="#01645A"/>
<path d="M24.89 35.83C25.1632 35.941 25.4551 35.9987 25.75 36C25.8929 36.0148 26.037 36.0148 26.18 36C26.6216 35.9006 27.0247 35.6747 27.34 35.35C27.6566 35.033 27.8723 34.6294 27.96 34.19C28.0423 33.7499 27.9972 33.2954 27.83 32.88C27.6836 32.5423 27.4573 32.2453 27.1706 32.0145C26.8839 31.7837 26.5454 31.6261 26.1843 31.5553C25.8231 31.4844 25.4501 31.5024 25.0975 31.6078C24.7448 31.7131 24.4231 31.9027 24.16 32.16C23.9492 32.3674 23.7822 32.615 23.6688 32.8881C23.5554 33.1612 23.498 33.4543 23.5 33.75C23.5011 34.195 23.6337 34.6298 23.8809 34.9999C24.1282 35.3699 24.4792 35.6587 24.89 35.83Z" fill="#01645A"/>
<path d="M21.25 30C20.9552 29.9978 20.6635 29.9401 20.39 29.83C19.9832 29.6562 19.6358 29.3678 19.39 29C19.1011 28.5672 18.9711 28.0477 19.0222 27.5299C19.0732 27.0121 19.3021 26.528 19.67 26.16C20.0427 25.8004 20.5259 25.5771 21.0413 25.5263C21.5567 25.4755 22.0742 25.6001 22.51 25.88C22.8782 26.1253 23.1667 26.4729 23.34 26.88C23.5075 27.2918 23.5527 27.7432 23.47 28.18C23.3885 28.6279 23.1743 29.0409 22.8551 29.3654C22.5359 29.69 22.1265 29.9111 21.68 30C21.5371 30.0148 21.393 30.0148 21.25 30Z" fill="#01645A"/>
<path d="M21.89 41.83C22.1635 41.9401 22.4552 41.9978 22.75 42C22.891 42.0009 23.0317 41.9875 23.17 41.96C23.5173 41.8965 23.8448 41.7521 24.126 41.5386C24.4072 41.3251 24.6342 41.0484 24.7886 40.7309C24.943 40.4134 25.0206 40.064 25.015 39.711C25.0094 39.358 24.9208 39.0112 24.7563 38.6988C24.5919 38.3863 24.3562 38.117 24.0684 37.9125C23.7806 37.708 23.4487 37.5741 23.0995 37.5217C22.7504 37.4692 22.3938 37.4997 22.0586 37.6106C21.7234 37.7215 21.419 37.9097 21.17 38.16C20.8021 38.528 20.5732 39.0121 20.5222 39.5299C20.4711 40.0478 20.6011 40.5673 20.89 41C21.1358 41.3678 21.4832 41.6562 21.89 41.83Z" fill="#01645A"/>
<path fill-rule="evenodd" clip-rule="evenodd" d="M29.5 9H28.2208L28.23 9.09C28.4838 11.5573 29.3276 13.9274 30.69 16L32.29 18.69C33.3621 20.689 33.9897 22.896 34.13 25.16C34.259 27.4002 33.9008 29.6417 33.08 31.73C32.0137 34.5702 32.8939 38.2644 33.6026 41.2392L33.61 41.27L33.89 42.46C34.1082 43.4465 33.9858 44.4779 33.5427 45.3859C33.0996 46.2939 32.3619 47.025 31.45 47.46C30.8509 47.7894 30.1832 47.9743 29.5 48H17.5C16.8341 47.9975 16.1776 47.8437 15.58 47.55C14.6704 47.1122 13.9349 46.3806 13.4922 45.4735C13.0495 44.5663 12.9254 43.5364 13.14 42.55C13.22 42 13.35 41.5 13.49 41L13.5113 40.9135C14.2178 38.0485 15.0897 34.5126 14.07 31.8C13.2463 29.7073 12.8885 27.4602 13.0214 25.2151C13.1544 22.97 13.775 20.7809 14.84 18.8L16.43 16.1C17.8148 14.002 18.6724 11.6006 18.93 9.1L18.9402 9H17.5C17.1022 9 16.7206 8.84196 16.4393 8.56066C16.158 8.27936 16 7.89782 16 7.5V1.5C16 1.10218 16.158 0.720644 16.4393 0.43934C16.7206 0.158035 17.1022 0 17.5 0H29.5C29.8978 0 30.2794 0.158035 30.5607 0.43934C30.842 0.720644 31 1.10218 31 1.5V7.5C31 7.89782 30.842 8.27936 30.5607 8.56066C30.2794 8.84196 29.8978 9 29.5 9ZM26.4 6C26.5064 5.98868 26.6128 5.98885 26.7175 6H28V3H19V6H20.4499C20.5555 5.98873 20.6628 5.98856 20.77 6H26.4ZM25.207 9H21.9577L21.91 9.42C21.7138 11.352 21.2147 13.2345 20.4366 15H26.7199C25.9401 13.2353 25.4421 11.3524 25.25 9.42L25.207 9ZM28.3694 18H18.7902L17.45 20.26C16.6065 21.8501 16.1179 23.6042 16.0178 25.4014C15.9177 27.1985 16.2084 28.996 16.87 30.67C18.23 34.3 17.22 38.39 16.4 41.67C16.3628 41.8217 16.3256 41.9684 16.2891 42.1124L16.2884 42.1152C16.1976 42.4732 16.1112 42.814 16.04 43.17C15.9906 43.3883 15.991 43.615 16.0412 43.8331C16.0914 44.0512 16.1901 44.2552 16.33 44.43C16.4698 44.6071 16.6475 44.7506 16.85 44.85C17.0523 44.9492 17.2747 45.0005 17.5 45H29.5C29.7253 45.0005 29.9477 44.9492 30.15 44.85C30.3525 44.7506 30.5302 44.6071 30.67 44.43C30.8099 44.2552 30.9086 44.0512 30.9588 43.8331C31.009 43.615 31.0094 43.3883 30.96 43.17C30.88 42.8 30.79 42.41 30.69 42.01L30.6772 41.9558C29.9183 38.7508 28.8878 34.3991 30.28 30.69C30.9505 29.0051 31.2442 27.194 31.1406 25.3836C31.0369 23.5731 30.5384 21.8073 29.68 20.21L28.3694 18Z" fill="#01645A"/>
</svg>
