<svg width="48" height="48" viewBox="0 0 48 48" fill="none" xmlns="http://www.w3.org/2000/svg">
<path d="M16 20C16 19.4477 16.4477 19 17 19H30C30.5523 19 31 19.4477 31 20V21C31 21.5523 30.5523 22 30 22H17C16.4477 22 16 21.5523 16 21V20Z" fill="#01645A"/>
<path fill-rule="evenodd" clip-rule="evenodd" d="M6 5.5C4.61929 5.5 3.5 6.61929 3.5 8V13C3.5 14.3807 4.61929 15.5 6 15.5H7.5L7.5 35C7.5 38.0376 9.96243 40.5 13 40.5L34 40.5C37.0376 40.5 39.5 38.0376 39.5 35L39.5 15.5H40C41.3807 15.5 42.5 14.3807 42.5 13V8C42.5 6.61929 41.3807 5.5 40 5.5H6ZM36.5 15.5H10.5L10.5 35C10.5 36.3807 11.6193 37.5 13 37.5L34 37.5C35.3807 37.5 36.5 36.3807 36.5 35L36.5 15.5ZM6.5 12.5V8.5H39.5V12.5H6.5Z" fill="#01645A"/>
</svg>
