<svg width="48" height="48" viewBox="0 0 48 48" fill="none" xmlns="http://www.w3.org/2000/svg">
<path d="M16.7258 7.59817L12.0984 5.48098L16.7245 7.597L16.7258 7.59817Z" fill="#01645A"/>
<path d="M16.7258 7.59817C17.6045 8.38582 18.3186 9.35353 18.8131 10.4477L18.8208 10.4645L18.826 10.4755L22.046 17.2295C22.3251 17.8149 22.9488 18.1547 23.592 18.0717C24.2352 17.9886 24.7522 17.5017 24.8735 16.8646L25.5261 13.4377C25.5738 13.1841 25.6711 12.9425 25.8124 12.7266C25.9536 12.5107 26.1361 12.3248 26.3493 12.1795C26.4035 12.1426 26.4594 12.1084 26.5169 12.0772L23.5612 10.7241C23.4698 10.8398 23.383 10.9603 23.302 11.0841C23.1234 11.3571 22.9725 11.6463 22.8513 11.9475L21.9079 9.9688L16.7258 7.59817Z" fill="#01645A"/>
<path d="M30.6061 3.56783C28.2656 2.37257 25.5907 2.00014 23.0127 2.51056C22.2 2.67146 21.6717 3.46067 21.8326 4.27332C21.9935 5.08598 22.7827 5.61433 23.5953 5.45344C25.5123 5.0739 27.5013 5.35083 29.2417 6.23961C30.9822 7.12839 32.3727 8.57726 33.1892 10.3527L33.198 10.3715L36.418 17.1255C36.6969 17.7106 37.3201 18.0503 37.963 17.9678C38.6059 17.8853 39.123 17.3992 39.2451 16.7626L39.9031 13.3326L39.9084 13.3035C39.9525 13.0465 40.0473 12.8008 40.1874 12.5809C40.3275 12.361 40.5101 12.1712 40.7244 12.0226C40.9387 11.874 41.1804 11.7697 41.4355 11.7156C41.6906 11.6616 41.9539 11.6589 42.2101 11.7078C42.4662 11.7567 42.71 11.8562 42.9273 12.0004C43.1445 12.1446 43.3309 12.3307 43.4754 12.5477C43.6199 12.7648 43.7197 13.0085 43.7689 13.2645C43.8182 13.5206 43.8159 13.7839 43.7621 14.0391L43.7565 14.067L41.5062 25.869C41.3375 26.76 41.4563 27.6822 41.845 28.5015L43.0405 31.0187L37.5724 33.626C36.8246 33.9826 36.5075 34.8778 36.864 35.6256C37.2206 36.3734 38.1158 36.6905 38.8636 36.334L44.3266 33.729L44.876 34.8735L44.8767 34.8749C44.9479 35.0249 44.9891 35.1873 44.9977 35.3531C45.0064 35.5194 44.9822 35.6858 44.9266 35.8428C44.8709 35.9998 44.7849 36.1442 44.6734 36.2679C44.5619 36.3917 44.4269 36.4923 44.2765 36.564L31.7785 42.522C31.4746 42.6668 31.1255 42.6851 30.8081 42.5726C30.4909 42.4602 30.2309 42.2259 30.0859 41.9222L29.3042 40.2776L31.1955 39.376C31.7014 39.1349 32.1549 38.7965 32.5301 38.3802C32.9053 37.9637 33.1949 37.4774 33.3821 36.9491C33.5694 36.4207 33.6508 35.8607 33.6216 35.3009C33.5924 34.7411 33.4532 34.1924 33.212 33.6864L32.0217 31.1902L30.1772 27.319L30.1767 27.318C30.0609 27.0733 30.0255 26.7981 30.0756 26.532L30.0758 26.531L32.3252 14.7343L29.3687 13.3818L29.3684 13.3804L32.3255 14.733C32.4479 14.0932 32.4431 13.4357 32.3115 12.7978C32.1798 12.1594 31.9236 11.5533 31.5576 11.0139C31.1916 10.4746 30.7229 10.0127 30.1783 9.65456C29.6337 9.29642 29.0239 9.04909 28.3837 8.92668L28.102 10.4L28.3827 8.92649C27.7417 8.8044 27.083 8.80991 26.4442 8.94272C25.8054 9.07553 25.199 9.33302 24.6598 9.70046C24.2431 9.98446 23.8728 10.3298 23.5612 10.7241L21.9074 9.96768L21.5403 9.19779C20.3323 6.53427 18.1595 4.42734 15.4596 3.30182C12.7549 2.17426 9.72285 2.1158 6.97662 3.13827C6.96035 3.14433 6.94418 3.15067 6.92813 3.15729C5.52268 3.73689 4.25004 4.59675 3.18787 5.68441C2.12569 6.77207 1.29624 8.06473 0.750115 9.48352C0.203992 10.9023 -0.0473514 12.4175 0.0114178 13.9366C0.0701871 15.4558 0.437858 16.9471 1.09196 18.3194L11.8145 40.8144L13.0061 43.3178C13.4936 44.3397 14.367 45.1263 15.4342 45.5044C16.5015 45.8825 17.6754 45.8212 18.6975 45.334L26.5961 41.5686L27.3781 43.2138C27.8656 44.2357 28.739 45.0223 29.8063 45.4004C30.8735 45.7785 32.0474 45.7172 33.0695 45.23L45.5675 39.272C46.0734 39.0309 46.5269 38.6925 46.9021 38.2762C47.2774 37.8597 47.5669 37.3734 47.7542 36.8451C47.9414 36.3167 48.0228 35.7567 47.9936 35.1969C47.9644 34.6371 47.8252 34.0885 47.584 33.5825L46.4477 31.2152C46.4317 31.1713 46.4134 31.1276 46.3929 31.0845L44.5549 27.2145C44.4389 26.9696 44.4034 26.6943 44.4536 26.428L44.4538 26.427L46.701 14.6417C46.8337 14.0011 46.8385 13.3406 46.7149 12.698C46.5904 12.0504 46.338 11.4341 45.9726 10.8852C45.6071 10.3362 45.1359 9.86565 44.5864 9.50093C44.037 9.13621 43.4204 8.88467 42.7726 8.76102C42.1248 8.63737 41.4589 8.64409 40.8137 8.78078C40.1685 8.91747 39.5571 9.1814 39.0151 9.55713C38.4732 9.93286 38.0115 10.4129 37.6572 10.9691C37.4827 11.243 37.336 11.5327 37.2187 11.8338L35.9103 9.08952C34.8116 6.70626 32.9435 4.76146 30.6061 3.56783ZM12.0984 5.48098C12.851 5.57734 13.5935 5.7741 14.3053 6.07084C15.1994 6.44359 16.0155 6.96169 16.7245 7.597L21.9074 9.96768L21.9079 9.9688L23.5612 10.7241L26.518 12.0766C26.6861 11.9853 26.8669 11.919 27.0548 11.8799C27.3073 11.8274 27.5677 11.8252 27.821 11.8734C28.0739 11.9219 28.3148 12.0196 28.5299 12.1611C28.7452 12.3027 28.9306 12.4854 29.0753 12.6986C29.2155 12.9052 29.315 13.1366 29.3684 13.3804L26.518 12.0766L26.5169 12.0772L29.3687 13.3818L29.3734 13.404C29.4255 13.6564 29.4273 13.9166 29.3788 14.1697L27.1282 25.973C26.9595 26.864 27.0781 27.7856 27.4668 28.605L28.6667 31.1233L13.8786 38.1725L3.80004 17.0286C3.32129 16.0241 3.05219 14.9326 3.00918 13.8207C2.96616 12.7087 3.15013 11.5997 3.54987 10.5612C3.9496 9.52272 4.55672 8.57655 5.33418 7.78044C6.10559 6.99053 7.02864 6.36476 8.04785 5.94066C9.3514 5.45984 10.7419 5.30746 12.0984 5.48098ZM29.9045 36.668L26.6927 38.1991C26.6825 38.2037 26.6722 38.2084 26.6621 38.2133C26.6508 38.2186 26.6397 38.2241 26.6287 38.2296L17.4065 42.626C17.1025 42.7708 16.7535 42.7891 16.4361 42.6766C16.1187 42.5642 15.8589 42.3301 15.7139 42.0262L15.1687 40.881L29.9575 33.8314L30.504 34.9776C30.5757 35.1279 30.617 35.2908 30.6257 35.4571C30.6343 35.6234 30.6102 35.7898 30.5545 35.9468C30.4989 36.1038 30.4129 36.2482 30.3014 36.3719C30.1899 36.4957 30.0549 36.5963 29.9045 36.668Z" fill="#01645A"/>
</svg>
