<svg width="48" height="48" viewBox="0 0 48 48" fill="none" xmlns="http://www.w3.org/2000/svg">
<g clip-path="url(#clip0_29_370)">
<path fill-rule="evenodd" clip-rule="evenodd" d="M7.36488 0.513813C8.18383 0.174594 9.06157 0 9.948 0C10.8344 0 11.7122 0.174594 12.5311 0.513813C13.3501 0.853032 14.0942 1.35023 14.721 1.97703C15.3478 2.60382 15.845 3.34794 16.1842 4.16689C16.5234 4.98583 16.698 5.86358 16.698 6.75C16.698 7.63642 16.5234 8.51417 16.1842 9.33311C15.845 10.1521 15.3478 10.8962 14.721 11.523C14.3143 11.9297 13.8582 12.2818 13.3643 12.5717C14.2979 12.8944 15.1866 13.3497 16.0015 13.9286C17.7692 15.1843 19.1024 16.9588 19.8163 19.0061C19.9763 19.4648 19.9042 19.9726 19.6229 20.3687C19.3415 20.7647 18.8858 21 18.4 21H1.502C1.01619 21 0.560458 20.7647 0.279121 20.3687C-0.00221583 19.9726 -0.074316 19.4648 0.0856514 19.0061C0.799608 16.9588 2.13284 15.1843 3.90052 13.9286C4.71435 13.3505 5.6017 12.8956 6.53396 12.573C6.03921 12.2829 5.58235 11.9303 5.17503 11.523C4.54823 10.8962 4.05103 10.1521 3.71181 9.33311C3.37259 8.51417 3.198 7.63642 3.198 6.75C3.198 5.86358 3.37259 4.98583 3.71181 4.16689C4.05103 3.34794 4.54823 2.60382 5.17503 1.97703C5.80182 1.35023 6.54594 0.853032 7.36488 0.513813ZM9.948 3C9.45554 3 8.96791 3.097 8.51294 3.28545C8.05796 3.47391 7.64457 3.75013 7.29635 4.09835C6.94813 4.44657 6.67191 4.85997 6.48345 5.31494C6.29499 5.76991 6.198 6.25754 6.198 6.75C6.198 7.24246 6.29499 7.73009 6.48345 8.18506C6.67191 8.64003 6.94813 9.05343 7.29635 9.40165C7.64457 9.74987 8.05796 10.0261 8.51294 10.2145C8.96791 10.403 9.45554 10.5 9.948 10.5C10.4405 10.5 10.9281 10.403 11.3831 10.2145C11.838 10.0261 12.2514 9.74987 12.5996 9.40165C12.9479 9.05343 13.2241 8.64003 13.4125 8.18506C13.601 7.73009 13.698 7.24246 13.698 6.75C13.698 6.25754 13.601 5.76991 13.4125 5.31494C13.2241 4.85997 12.9479 4.44657 12.5996 4.09835C12.2514 3.75013 11.838 3.47391 11.3831 3.28545C10.9281 3.097 10.4405 3 9.948 3ZM24 27C22.2098 27 20.4929 27.7112 19.227 28.977C17.9612 30.2429 17.25 31.9598 17.25 33.75C17.25 35.5402 17.9612 37.2571 19.227 38.523C19.6375 38.9335 20.0954 39.2856 20.5879 39.5741C19.6544 39.8966 18.7658 40.3518 17.951 40.9304C16.1836 42.1854 14.8503 43.9591 14.1358 46.0056C13.8628 46.7877 14.2755 47.6431 15.0576 47.9162C15.8397 48.1892 16.6951 47.7765 16.9682 46.9944C17.4775 45.5355 18.4279 44.2711 19.6879 43.3765C20.9478 42.4818 22.4548 42.0012 24 42.0012C25.5452 42.0012 27.0522 42.4818 28.3121 43.3765C29.5721 44.2711 30.5225 45.5355 31.0318 46.9944C31.3049 47.7765 32.1603 48.1892 32.9424 47.9162C33.7245 47.6431 34.1372 46.7877 33.8642 46.0056C33.1497 43.9591 31.8164 42.1854 30.049 40.9304C29.2342 40.3518 28.3456 39.8966 27.4121 39.5741C27.9046 39.2856 28.3625 38.9335 28.773 38.523C30.0388 37.2571 30.75 35.5402 30.75 33.75C30.75 31.9598 30.0388 30.2429 28.773 28.977C27.5071 27.7112 25.7902 27 24 27ZM21.3484 31.0984C22.0516 30.3951 23.0054 30 24 30C24.9946 30 25.9484 30.3951 26.6516 31.0984C27.3549 31.8016 27.75 32.7554 27.75 33.75C27.75 34.7446 27.3549 35.6984 26.6516 36.4016C25.9484 37.1049 24.9946 37.5 24 37.5C23.0054 37.5 22.0516 37.1049 21.3484 36.4016C20.6451 35.6984 20.25 34.7446 20.25 33.75C20.25 32.7554 20.6451 31.8016 21.3484 31.0984ZM5.63784 16.3744C6.89795 15.4793 8.40533 14.9984 9.951 14.9984C11.4967 14.9984 13.0041 15.4793 14.2642 16.3744C14.9037 16.8286 15.4634 17.3782 15.9262 18H3.97585C4.4386 17.3782 4.99833 16.8286 5.63784 16.3744ZM33.279 1.97703C34.5449 0.71116 36.2618 0 38.052 0C39.8422 0 41.5591 0.711159 42.825 1.97703C44.0908 3.2429 44.802 4.95979 44.802 6.75C44.802 8.54021 44.0908 10.2571 42.825 11.523C42.4152 11.9327 41.9582 12.2843 41.4668 12.5725C42.3995 12.8952 43.2873 13.3503 44.1015 13.9286C45.8692 15.1843 47.2024 16.9588 47.9164 19.0061C48.0763 19.4648 48.0042 19.9726 47.7229 20.3687C47.4415 20.7647 46.9858 21 46.5 21H29.602C29.1162 21 28.6605 20.7647 28.3791 20.3687C28.0978 19.9726 28.0257 19.4648 28.1856 19.0061C28.8996 16.9588 30.2328 15.1843 32.0005 13.9286C32.8151 13.35 33.7033 12.8948 34.6365 12.5721C34.1453 12.284 33.6886 11.9325 33.279 11.523C32.0132 10.2571 31.302 8.54021 31.302 6.75C31.302 4.95979 32.0132 3.2429 33.279 1.97703ZM38.052 3C37.0574 3 36.1036 3.39509 35.4003 4.09835C34.6971 4.80161 34.302 5.75544 34.302 6.75C34.302 7.74456 34.6971 8.69839 35.4003 9.40165C36.1036 10.1049 37.0574 10.5 38.052 10.5C39.0466 10.5 40.0004 10.1049 40.7036 9.40165C41.4069 8.69839 41.802 7.74456 41.802 6.75C41.802 5.75544 41.4069 4.80161 40.7036 4.09835C40.0004 3.39509 39.0466 3 38.052 3ZM33.7378 16.3744C34.9979 15.4793 36.5053 14.9984 38.051 14.9984C39.5967 14.9984 41.1041 15.4793 42.3642 16.3744C43.0037 16.8286 43.5634 17.3782 44.0262 18H32.0758C32.5386 17.3782 33.0983 16.8286 33.7378 16.3744ZM7.5 24C8.32843 24 9 24.6716 9 25.5V33C9 33.7956 9.31607 34.5587 9.87868 35.1213C10.4413 35.6839 11.2044 36 12 36H13.5C14.3284 36 15 36.6716 15 37.5C15 38.3284 14.3284 39 13.5 39H12C10.4087 39 8.88258 38.3679 7.75736 37.2426C6.63214 36.1174 6 34.5913 6 33V25.5C6 24.6716 6.67157 24 7.5 24ZM42 25.5C42 24.6716 41.3284 24 40.5 24C39.6716 24 39 24.6716 39 25.5V33C39 33.7956 38.6839 34.5587 38.1213 35.1213C37.5587 35.6839 36.7957 36 36 36H34.5C33.6716 36 33 36.6716 33 37.5C33 38.3284 33.6716 39 34.5 39H36C37.5913 39 39.1174 38.3679 40.2426 37.2426C41.3679 36.1174 42 34.5913 42 33V25.5Z" fill="#01645A"/>
</g>
<defs>
<clipPath id="clip0_29_370">
<rect width="48" height="48" fill="white"/>
</clipPath>
</defs>
</svg>
