<svg width="48" height="48" viewBox="0 0 48 48" fill="none" xmlns="http://www.w3.org/2000/svg">
<path fill-rule="evenodd" clip-rule="evenodd" d="M11.5 1C12.3284 1 13 1.67157 13 2.5V11.7771C13 12.8556 13.4284 13.8899 14.191 14.6524C14.5873 15.0488 15.057 15.3548 15.5681 15.5574V2.5C15.5681 1.67157 16.2397 1 17.0681 1C17.8966 1 18.5681 1.67157 18.5681 2.5V15.5559C19.0779 15.3533 19.5462 15.0478 19.9416 14.6524C20.7042 13.8899 21.1326 12.8556 21.1326 11.7771V2.5C21.1326 1.67157 21.8042 1 22.6326 1C23.461 1 24.1326 1.67157 24.1326 2.5V11.7771C24.1326 13.6512 23.3881 15.4486 22.0629 16.7738C21.0976 17.7391 19.8817 18.3963 18.5681 18.682V45.1749C18.5681 46.0033 17.8966 46.6749 17.0681 46.6749C16.2397 46.6749 15.5681 46.0033 15.5681 45.1749V18.6828C14.2532 18.3975 13.0359 17.74 12.0697 16.7738C10.7445 15.4486 10 13.6512 10 11.7771V2.5C10 1.67157 10.6716 1 11.5 1ZM28.5543 2.5C28.5543 1.67157 29.2259 1 30.0543 1C31.0112 1 31.7095 1.58262 32.1403 2.0773C32.597 2.60174 32.989 3.29175 33.3322 4.05005C34.0246 5.58 34.6572 7.70269 35.1984 10.208C36.2853 15.2389 37.0576 22.068 37.1205 29.3908L37.1206 29.4037H37.1206C37.1206 30.0476 36.8648 30.6651 36.4095 31.1204C35.9542 31.5757 35.3367 31.8314 34.6929 31.8314H31.5543V45.1749C31.5543 46.0033 30.8827 46.6749 30.0543 46.6749C29.2259 46.6749 28.5543 46.0033 28.5543 45.1749V30.3314V2.5ZM31.5543 28.8314H34.1141C34.0177 21.9063 33.2753 15.5131 32.266 10.8415C32.0379 9.7856 31.7987 8.82978 31.5543 7.98361V28.8314ZM29.7542 3.92629C29.7542 3.92592 29.7581 3.9283 29.7659 3.93451C29.7581 3.92976 29.7542 3.92666 29.7542 3.92629Z" fill="#01645A"/>
</svg>
