<svg width="48" height="48" viewBox="0 0 48 48" fill="none" xmlns="http://www.w3.org/2000/svg">
<path d="M24 0C20.8174 0 17.7652 1.26428 15.5147 3.51472C13.2643 5.76516 12 8.8174 12 12C12 15.1826 13.2643 18.2348 15.5147 20.4853C17.7652 22.7357 20.8174 24 24 24C27.1826 24 30.2348 22.7357 32.4853 20.4853C34.7357 18.2348 36 15.1826 36 12C36 8.8174 34.7357 5.76516 32.4853 3.51472C30.2348 1.26428 27.1826 0 24 0ZM17.636 5.63604C19.3239 3.94821 21.6131 3 24 3C26.3869 3 28.6761 3.94821 30.364 5.63604C32.0518 7.32387 33 9.61305 33 12C33 14.3869 32.0518 16.6761 30.364 18.364C28.6761 20.0518 26.3869 21 24 21C21.6131 21 19.3239 20.0518 17.636 18.364C15.9482 16.6761 15 14.3869 15 12C15 9.61305 15.9482 7.32387 17.636 5.63604Z" fill="#01645A"/>
<path d="M11.2721 33.7721C14.6477 30.3964 19.2261 28.5 24 28.5C28.7739 28.5 33.3523 30.3964 36.7279 33.7721C40.1036 37.1477 42 41.7261 42 46.5C42 47.3284 42.6716 48 43.5 48C44.3284 48 45 47.3284 45 46.5C45 40.9305 42.7875 35.589 38.8492 31.6508C34.911 27.7125 29.5695 25.5 24 25.5C18.4305 25.5 13.089 27.7125 9.15076 31.6508C5.21249 35.589 3 40.9305 3 46.5C3 47.3284 3.67157 48 4.5 48C5.32843 48 6 47.3284 6 46.5C6 41.7261 7.89642 37.1477 11.2721 33.7721Z" fill="#01645A"/>
</svg>
