<svg width="48" height="48" viewBox="0 0 48 48" fill="none" xmlns="http://www.w3.org/2000/svg">
<g clip-path="url(#clip0_31_333)">
<path d="M31.3486 8.25983e-07C30.6567 -0.000512733 29.986 0.238469 29.4503 0.67638C28.9146 1.11424 28.547 1.72399 28.4099 2.40208C28.2032 3.41911 27.6514 4.33346 26.8478 4.99025C26.0441 5.64716 25.038 6.00602 24 6.00602C22.962 6.00602 21.9559 5.64716 21.1522 4.99025C20.3485 4.33333 19.7966 3.41877 19.59 2.40151L19.5897 2.4C19.4515 1.72305 19.0839 1.11455 18.549 0.677283C18.0141 0.240014 17.3446 0.000782833 16.6537 8.25983e-07H12C11.2044 8.25983e-07 10.4413 0.316072 9.87868 0.878681C9.31607 1.44129 9 2.20435 9 3V13.5C9 15.4891 8.20982 17.3968 6.8033 18.8033C5.39678 20.2098 3.48912 21 1.5 21C0.671573 21 0 21.6716 0 22.5V43.5C0 44.6935 0.474107 45.8381 1.31802 46.682C2.16193 47.5259 3.30652 48 4.5 48H43.5C44.6935 48 45.8381 47.5259 46.682 46.682C47.5259 45.8381 48 44.6935 48 43.5V22.5C48 21.6716 47.3284 21 46.5 21C44.5109 21 42.6032 20.2098 41.1967 18.8033C39.7902 17.3968 39 15.4891 39 13.5V3C39 2.20435 38.6839 1.44129 38.1213 0.878681C37.5587 0.316072 36.7956 8.25983e-07 36 8.25983e-07H31.3486ZM45 27H36V25.5C36 24.6716 35.3284 24 34.5 24C33.6716 24 33 24.6716 33 25.5V27H15V25.5C15 24.6716 14.3284 24 13.5 24C12.6716 24 12 24.6716 12 25.5V27H3V23.8923C5.23018 23.5705 7.31252 22.5367 8.92462 20.9246C10.8938 18.9555 12 16.2848 12 13.5V3L16.6503 3C16.9948 4.69483 17.9145 6.21853 19.2536 7.31306C20.5931 8.40792 22.27 9.00602 24 9.00602C25.73 9.00602 27.4069 8.40792 28.7464 7.31306C30.0855 6.21853 31.0052 4.69483 31.3497 3H36V13.5C36 16.2848 37.1062 18.9555 39.0754 20.9246C40.6875 22.5367 42.7698 23.5705 45 23.8923V27ZM3 30H12V36H3V30ZM3 39H12V40.5C12 41.3284 12.6716 42 13.5 42C14.3284 42 15 41.3284 15 40.5V39H33V40.5C33 41.3284 33.6716 42 34.5 42C35.3284 42 36 41.3284 36 40.5V39H45V43.5C45 43.8978 44.842 44.2794 44.5607 44.5607C44.2794 44.842 43.8978 45 43.5 45H4.5C4.10218 45 3.72065 44.842 3.43934 44.5607C3.15803 44.2794 3 43.8978 3 43.5V39ZM45 36H36V30H45V36ZM28.4099 2.40208L29.88 2.7L28.4097 2.40321L28.4099 2.40208ZM15 36V30H33V36H15Z" fill="#01645A"/>
</g>
<defs>
<clipPath id="clip0_31_333">
<rect width="48" height="48" fill="white"/>
</clipPath>
</defs>
</svg>
