<svg width="48" height="48" viewBox="0 0 48 48" fill="none" xmlns="http://www.w3.org/2000/svg">
<g clip-path="url(#clip0_29_391)">
<path d="M4.83613 5.27931C7.72964 2.40365 11.838 0 16.5 0C21.162 0 25.2704 2.40365 28.1639 5.27931C29.6204 6.72687 30.8112 8.33335 31.6453 9.90003C32.0485 10.6575 32.3825 11.4324 32.618 12.1961C32.6229 12.2113 32.6276 12.2266 32.632 12.2419C32.8671 13.0169 33 13.7797 33 14.5V38.4701C33.0005 38.4925 33.0004 38.5149 32.9999 38.5373C32.9813 41.5524 30.7078 43.9361 27.8124 45.4803C24.8406 47.0653 20.8384 48 16.5 48C12.1616 48 8.15943 47.0653 5.18761 45.4803C2.29246 43.9362 0.0191021 41.5527 0.000119761 38.5381C-0.00044561 38.5152 -0.000483566 38.4923 5.44242e-09 38.4695V14.5C5.44242e-09 13.7797 0.132907 13.0169 0.368035 12.2419C0.372446 12.2266 0.377112 12.2113 0.382035 12.1961C0.617512 11.4324 0.951515 10.6575 1.35475 9.90003C2.18879 8.33335 3.37958 6.72687 4.83613 5.27931ZM30 36.073V14.9277L26.8984 16.478C26.958 16.8069 26.993 17.1312 26.9991 17.4464C26.9997 17.4642 27 17.482 27 17.5L26.9999 17.5157L27 17.544V33.934C27 34.1447 26.9871 34.3514 26.9622 34.5541L30 36.073ZM25.7634 37.3088C25.1915 38.029 24.4599 38.6463 23.6527 39.1455C21.751 40.3215 19.2183 41 16.5 41C13.7817 41 11.249 40.3215 9.3473 39.1455C8.54007 38.6463 7.80846 38.029 7.23657 37.3088L3.13423 39.3599C3.49288 40.5208 4.58577 41.7593 6.59939 42.8332C9.05657 44.1437 12.5544 45 16.5 45C20.4456 45 23.9434 44.1437 26.4006 42.8332C28.4142 41.7593 29.5071 40.5208 29.8658 39.3599L25.7634 37.3088ZM6 33.934V17.544L6.00008 17.5157L6 17.5C6 17.482 6.00032 17.4642 6.00094 17.4464C6.00698 17.1312 6.04197 16.8069 6.1016 16.478L3 14.9277V36.0729L6.03781 34.554C6.01289 34.3514 6 34.1447 6 33.934ZM29.302 11.9227C29.2102 11.7238 29.1087 11.5193 28.9971 11.3098C28.313 10.0248 27.3071 8.65738 26.0491 7.40719C23.8672 5.23871 21.0512 3.53863 18 3.10668V7.14461C20.44 7.6161 22.5135 9.1772 23.9966 10.8861C24.7489 11.7529 25.3852 12.6963 25.8751 13.6356L29.302 11.9227ZM9.00338 10.8861C10.4865 9.1772 12.56 7.6161 15 7.14461V3.10668C11.9488 3.53863 9.13282 5.23871 6.95087 7.40719C5.69292 8.65738 4.68696 10.0248 4.00288 11.3098C3.89134 11.5193 3.78983 11.7238 3.69799 11.9227L7.12492 13.6356C7.61482 12.6963 8.25114 11.7529 9.00338 10.8861ZM16.5 10C14.6204 10 12.7481 11.1482 11.2691 12.8524C10.5458 13.6859 9.96511 14.6006 9.57052 15.4599C9.48457 15.6471 9.40937 15.8275 9.34422 16H23.6558C23.5906 15.8275 23.5154 15.6471 23.4295 15.4599C23.0349 14.6006 22.4542 13.6859 21.7309 12.8524C20.2519 11.1482 18.3796 10 16.5 10ZM9 33.934C9 34.7594 9.54609 35.7411 10.9252 36.594C12.281 37.4325 14.2483 38 16.5 38C18.7517 38 20.719 37.4325 22.0748 36.594C23.4539 35.7411 24 34.7594 24 33.934V33.5H9V33.934ZM9 26V30.5H24V26H9ZM24 23V19H9V23H24Z" fill="#01645A"/>
<path d="M45.724 14.244L46.584 15.473L44 17.2811V45H44.5C45.3284 45 46 45.6716 46 46.5C46 47.3284 45.3284 48 44.5 48H40.5C39.6716 48 39 47.3284 39 46.5C39 45.6716 39.6716 45 40.5 45H41V17.2811L38.416 15.473L38.3933 15.4568L38.3733 15.442C37.9364 15.1128 37.5841 14.6844 37.3454 14.1922C37.1094 13.7056 36.9911 13.1704 37 12.6299V4.79621C36.982 4.10102 37.1792 3.41697 37.5649 2.83774C37.9562 2.25025 38.5217 1.80016 39.182 1.55076C39.1997 1.54406 39.2176 1.53769 39.2356 1.53167C41.354 0.822085 43.646 0.822085 45.7644 1.53167C45.7824 1.53769 45.8003 1.54406 45.818 1.55076C46.4783 1.80016 47.0438 2.25025 47.4351 2.83774C47.8208 3.41696 48.018 4.10102 48 4.7962V12.6299C48.0089 13.1704 47.8906 13.7056 47.6546 14.1922C47.4159 14.6844 47.0636 15.1128 46.6267 15.442L45.724 14.244ZM40.2246 4.36431C40.1586 4.39311 40.102 4.44036 40.0619 4.50058C40.0183 4.56601 39.9964 4.64345 39.9991 4.72202C39.9997 4.73934 40 4.75667 40 4.774V12.644C40 12.6549 39.9999 12.6659 39.9996 12.6768C39.9981 12.7481 40.0135 12.8188 40.0446 12.883C40.0733 12.9421 40.1145 12.9941 40.1652 13.0355L42.5 14.6692L44.8348 13.0355C44.8855 12.9941 44.9267 12.9421 44.9554 12.883C44.9865 12.8188 45.0019 12.7481 45.0004 12.6768C45.0001 12.6659 45 12.6549 45 12.644V4.774C45 4.75667 45.0003 4.73934 45.0009 4.72202C45.0036 4.64345 44.9817 4.56601 44.9381 4.50058C44.898 4.44036 44.8414 4.39311 44.7754 4.36431C43.2975 3.87787 41.7025 3.87787 40.2246 4.36431Z" fill="#01645A"/>
</g>
<defs>
<clipPath id="clip0_29_391">
<rect width="48" height="48" fill="white"/>
</clipPath>
</defs>
</svg>
