<svg width="48" height="48" viewBox="0 0 48 48" fill="none" xmlns="http://www.w3.org/2000/svg">
<g clip-path="url(#clip0_29_348)">
<path fill-rule="evenodd" clip-rule="evenodd" d="M36.5 0.026001H11.5C10.0413 0.026001 8.64236 0.605464 7.61091 1.63691C6.57946 2.66836 6 4.06731 6 5.526V32.526C6 33.4543 6.36875 34.3445 7.02513 35.0009C7.6815 35.6572 8.57174 36.026 9.5 36.026H16.4674C16.4884 36.0264 16.5094 36.0264 16.5303 36.026H31.4697C31.4906 36.0264 31.5116 36.0264 31.5326 36.026H38.5C39.4283 36.026 40.3185 35.6572 40.9749 35.0009C41.6313 34.3445 42 33.4543 42 32.526V5.526C42 4.06731 41.4205 2.66836 40.3891 1.63691C39.3576 0.605464 37.9587 0.026001 36.5 0.026001ZM9.73223 3.75823C10.2011 3.28939 10.837 3.026 11.5 3.026H22.5V18.026H9V5.526C9 4.86296 9.26339 4.22707 9.73223 3.75823ZM32.427 33.026H38.5C38.6326 33.026 38.7598 32.9733 38.8536 32.8796C38.9473 32.7858 39 32.6586 39 32.526V27.026H33C32.1716 27.026 31.5 26.3544 31.5 25.526C31.5 24.6976 32.1716 24.026 33 24.026H39V21.026H9V24.026H15C15.8284 24.026 16.5 24.6976 16.5 25.526C16.5 26.3544 15.8284 27.026 15 27.026H9V32.526C9 32.6586 9.05268 32.7858 9.14645 32.8796C9.24022 32.9733 9.3674 33.026 9.5 33.026H15.573L18.1584 27.8552C18.4124 27.347 18.9318 27.026 19.5 27.026H28.5C29.0682 27.026 29.5876 27.347 29.8416 27.8552L32.427 33.026ZM18.9271 33.026H29.0729L27.573 30.026H20.4271L18.9271 33.026ZM25.5 18.026V3.026H36.5C37.163 3.026 37.7989 3.28939 38.2678 3.75823C38.7366 4.22708 39 4.86296 39 5.526V18.026H25.5Z" fill="#01645A"/>
<path d="M8.7 41.426C9.19705 40.7633 9.06274 39.8231 8.4 39.326C7.73726 38.8289 6.79705 38.9633 6.3 39.626L1.8 45.626C1.30294 46.2887 1.43726 47.2289 2.1 47.726C2.76274 48.2231 3.70294 48.0887 4.2 47.426L8.7 41.426Z" fill="#01645A"/>
<path d="M39.6 39.326C40.2627 38.8289 41.2029 38.9633 41.7 39.626L46.2 45.626C46.6971 46.2887 46.5627 47.2289 45.9 47.726C45.2373 48.2231 44.2971 48.0887 43.8 47.426L39.3 41.426C38.8029 40.7633 38.9373 39.8231 39.6 39.326Z" fill="#01645A"/>
</g>
<defs>
<clipPath id="clip0_29_348">
<rect width="48" height="48" fill="white"/>
</clipPath>
</defs>
</svg>
