<svg width="48" height="48" viewBox="0 0 48 48" fill="none" xmlns="http://www.w3.org/2000/svg">
<path d="M36.8769 8.59183C32.5056 4.73545 26.8634 2.58986 21 2.58986C14.6348 2.58986 8.53025 5.11844 4.02935 9.61934C3.61781 10.0309 3.48147 10.6433 3.67958 11.1906C3.87768 11.7378 4.37447 12.1211 4.95408 12.1738L7.06337 12.3658C8.1114 12.4617 9.13047 12.7659 10.0595 13.2603C10.9888 13.7548 11.81 14.4298 12.4752 15.2457C13.1403 16.0616 13.6359 17.002 13.933 18.0118C14.2301 19.0217 14.3227 20.0807 14.2054 21.1268C14.1578 21.5511 14.2932 21.9755 14.5778 22.2938C14.8624 22.6121 15.2691 22.794 15.696 22.794C16.891 22.794 18.0744 23.0294 19.1784 23.4867C19.8191 23.7521 20.4258 24.0892 20.9874 24.4905L6.15158 39.3171C5.30742 40.1609 4.83301 41.3054 4.83273 42.4989C4.83245 43.6925 5.30632 44.8373 6.15008 45.6814C6.99384 46.5256 8.13838 47 9.33193 47.0003C10.5255 47.0005 11.6702 46.5267 12.5144 45.6829C13.1003 45.0973 13.1005 44.1475 12.5149 43.5616C11.9292 42.9757 10.9795 42.9754 10.3936 43.5611C10.1122 43.8424 9.73053 44.0004 9.33263 44.0003C8.93475 44.0002 8.55319 43.842 8.2719 43.5606C7.99061 43.2792 7.83264 42.8975 7.83273 42.4996C7.83283 42.1018 7.99103 41.7202 8.2724 41.4389L23.1072 26.6134C23.5051 27.1719 23.8396 27.775 24.1033 28.4116C24.5606 29.5156 24.796 30.699 24.796 31.894C24.796 32.3207 24.9777 32.7272 25.2957 33.0118C25.6137 33.2963 26.0378 33.432 26.4618 33.3848C27.5079 33.2684 28.5667 33.362 29.5762 33.6599C30.5857 33.9579 31.5256 34.4543 32.3408 35.12C33.1561 35.7857 33.8303 36.6074 34.324 37.537C34.8178 38.4665 35.121 39.4853 35.2161 40.5335L35.2168 40.5401L35.4168 42.6421C35.4718 43.2204 35.8557 43.7149 36.4023 43.9115C36.9489 44.1081 37.5599 43.9714 37.9707 43.5607C42.4716 39.0598 45.0001 32.9552 45.0001 26.59C45.0001 20.7266 42.8546 15.0844 38.9982 10.7131L40.0927 9.61866C40.6785 9.03287 40.6785 8.08313 40.0927 7.49734C39.5069 6.91155 38.5571 6.91155 37.9713 7.49734L36.8769 8.59183ZM8.67702 9.58548C12.2382 7.0047 16.5462 5.58986 21 5.58986C26.5684 5.58986 31.9089 7.80146 35.8469 11.7382C35.8477 11.739 35.8485 11.7399 35.8493 11.7407C39.7876 15.679 42.0001 21.0204 42.0001 26.59C42.0001 31.0477 40.5828 35.3594 37.9977 38.9224C37.7858 37.9512 37.4418 37.0114 36.9735 36.1298C36.2926 34.8477 35.3627 33.7145 34.2383 32.7963C33.114 31.8782 31.8177 31.1936 30.4254 30.7826C29.536 30.5201 28.6188 30.3727 27.6961 30.3422C27.5596 29.2865 27.284 28.2512 26.8749 27.2635C26.285 25.8393 25.4285 24.5413 24.352 23.4392C24.3234 23.405 24.2931 23.3718 24.261 23.3397C24.2291 23.3078 24.1962 23.2777 24.1624 23.2493C23.0577 22.1674 21.7557 21.3071 20.3265 20.7151C19.3392 20.3061 18.3043 20.0307 17.249 19.8941C17.2194 18.9717 17.0727 18.0546 16.811 17.1652C16.4013 15.7724 15.7178 14.4754 14.8004 13.3501C13.8831 12.2248 12.7505 11.2939 11.4689 10.6119C10.5876 10.1429 9.64806 9.79814 8.67702 9.58548Z" fill="#01645A"/>
</svg>
