<svg width="48" height="48" viewBox="0 0 48 48" fill="none" xmlns="http://www.w3.org/2000/svg">
<path d="M24 0C22.4087 0 20.8826 0.632141 19.7574 1.75736C18.6321 2.88258 18 4.4087 18 6C18 7.32381 18.4375 8.60252 19.2324 9.64283C16.2484 10.4626 13.4986 12.0455 11.2721 14.2721C7.89642 17.6477 6 22.2261 6 27V33.1515C4.56984 33.4435 3.24427 34.1491 2.1967 35.1967C0.790176 36.6032 0 38.5109 0 40.5C0 42.4891 0.790176 44.3968 2.1967 45.8033C3.60322 47.2098 5.51088 48 7.5 48H40.5C42.4891 48 44.3968 47.2098 45.8033 45.8033C47.2098 44.3968 48 42.4891 48 40.5C48 38.5109 47.2098 36.6032 45.8033 35.1967C44.7557 34.1491 43.4302 33.4435 42 33.1515V27C42 22.2261 40.1036 17.6477 36.7279 14.2721C34.5014 12.0455 31.7516 10.4626 28.7676 9.64283C29.5625 8.60252 30 7.32381 30 6C30 4.4087 29.3679 2.88258 28.2426 1.75736C27.1174 0.632141 25.5913 0 24 0ZM32.998 45V36H40.5C41.6935 36 42.8381 36.4741 43.682 37.318C44.5259 38.1619 45 39.3065 45 40.5C45 41.6935 44.5259 42.8381 43.682 43.682C42.8381 44.5259 41.6935 45 40.5 45H32.998ZM29.998 36V45H17.998V36H29.998ZM39 33H9V27C9 23.0218 10.5804 19.2064 13.3934 16.3934C16.2064 13.5804 20.0218 12 24 12C27.9782 12 31.7936 13.5804 34.6066 16.3934C37.4196 19.2064 39 23.0218 39 27V33ZM7.5 45C6.30653 45 5.16193 44.5259 4.31802 43.682C3.47411 42.8381 3 41.6935 3 40.5C3 39.3065 3.47411 38.1619 4.31802 37.318C5.16193 36.4741 6.30653 36 7.5 36H14.998V45H7.5ZM24 9C23.2044 9 22.4413 8.68393 21.8787 8.12132C21.3161 7.55871 21 6.79565 21 6C21 5.20435 21.3161 4.44129 21.8787 3.87868C22.4413 3.31607 23.2043 3 24 3C24.7957 3 25.5587 3.31607 26.1213 3.87868C26.6839 4.44129 27 5.20435 27 6C27 6.79565 26.6839 7.55871 26.1213 8.12132C25.5587 8.68393 24.7956 9 24 9Z" fill="#01645A"/>
</svg>
