<svg width="24" height="24" viewBox="0 0 24 24" fill="none" xmlns="http://www.w3.org/2000/svg">
<path d="M10.8375 22.9393C11.2195 22.9794 11.6074 23 12 23C15.5961 23 18.7891 21.2744 20.7962 18.6061C20.8373 18.5601 20.8736 18.5108 20.9051 18.4589C22.2228 16.6452 23 14.4134 23 12C23 10.4588 22.6831 8.99167 22.1108 7.66017C22.096 7.61935 22.0787 7.57977 22.059 7.54162C20.5159 4.06532 17.2237 1.53774 13.2993 1.07593C13.2539 1.06765 13.2082 1.0626 13.1625 1.0607C12.7805 1.02057 12.3927 1 12 1C8.40397 1 5.21096 2.72556 3.20383 5.39384C3.16274 5.43984 3.12636 5.48921 3.09489 5.54118C1.77717 7.35486 1 9.58667 1 12C1 13.5412 1.31696 15.0084 1.88925 16.3399C1.90398 16.3807 1.92129 16.4202 1.94098 16.4583C3.48404 19.9347 6.7763 22.4623 10.7007 22.9241C10.7461 22.9323 10.7918 22.9374 10.8375 22.9393ZM11.4221 7L13.6453 3.15004C16.0739 3.59869 18.1607 5.0224 19.4845 7H14.3273C14.3152 6.99978 14.303 6.99978 14.2908 7H11.4221ZM7.38007 10.0002L5.1582 6.15254C6.6897 4.3623 8.91161 3.18029 11.4115 3.01893L7.38007 10.0002ZM6.52645 12.5214L7.95777 15H3.51212C3.18046 14.0617 3 13.0519 3 12C3 10.5706 3.33325 9.21896 3.92628 8.01864L6.50272 12.4803C6.51029 12.4941 6.51821 12.5078 6.52645 12.5214ZM12.5779 17L10.3547 20.85C7.92609 20.4013 5.83932 18.9776 4.51555 17H9.67264C9.68482 17.0002 9.69701 17.0002 9.70921 17H12.5779ZM13.7329 15H10.2673L8.53483 11.9999L10.2672 9H13.7327L15.4652 12.0001L13.7329 15ZM15.1719 16.5074C15.1751 16.502 15.1782 16.4967 15.1812 16.4913L16.6199 13.9998L18.8418 17.8475C17.3103 19.6377 15.0884 20.8197 12.5885 20.9811L15.1719 16.5074ZM17.4976 11.5203C17.4898 11.506 17.4817 11.492 17.4732 11.4781L16.0422 9H20.4879C20.8195 9.93834 21 10.9481 21 12C21 13.4294 20.6668 14.781 20.0737 15.9814L17.4976 11.5203Z" fill="#7B7B7B"/>
</svg>
