<svg width="24" height="24" viewBox="0 0 24 24" fill="none" xmlns="http://www.w3.org/2000/svg">
<path d="M5.29288 12.7071C4.90236 12.3166 4.90236 11.6834 5.29288 11.2929L11.2929 5.29287C11.6834 4.90237 12.3166 4.90237 12.7071 5.29287L18.7071 11.2929C19.0976 11.6834 19.0976 12.3166 18.7071 12.7071C18.3166 13.0976 17.6834 13.0976 17.2929 12.7071L12 7.41417L6.7071 12.7071C6.31658 13.0976 5.68341 13.0976 5.29288 12.7071ZM5.29288 18.7071C4.90236 18.3165 4.90236 17.6834 5.29288 17.2929L11.2929 11.2929C11.4804 11.1054 11.7348 11 12 11C12.2652 11 12.5196 11.1054 12.7071 11.2929L18.7071 17.2929C19.0976 17.6834 19.0976 18.3165 18.7071 18.7071C18.3166 19.0976 17.6834 19.0976 17.2929 18.7071L12 13.4142L6.7071 18.7071C6.31657 19.0976 5.68341 19.0976 5.29288 18.7071Z" fill="#7B7B7B"/>
</svg>
