<svg width="24" height="24" viewBox="0 0 24 24" fill="none" xmlns="http://www.w3.org/2000/svg">
<path d="M18.7071 11.2929C19.0976 11.6834 19.0976 12.3166 18.7071 12.7071L12.7071 18.7071C12.3166 19.0976 11.6834 19.0976 11.2929 18.7071L5.29287 12.7071C4.90237 12.3166 4.90238 11.6834 5.29288 11.2929C5.68338 10.9024 6.31657 10.9024 6.70707 11.2929L12 16.5858L17.2929 11.2929C17.6834 10.9024 18.3166 10.9024 18.7071 11.2929ZM18.7071 5.29289C19.0976 5.68342 19.0976 6.31658 18.7071 6.70711L12.7071 12.7071C12.5196 12.8946 12.2652 13 12 13C11.7348 13 11.4804 12.8946 11.2929 12.7071L5.29288 6.70711C4.90238 6.31658 4.90238 5.68342 5.29288 5.29289C5.68338 4.90237 6.31658 4.90237 6.70708 5.29289L12 10.5858L17.2929 5.29289C17.6834 4.90237 18.3166 4.90237 18.7071 5.29289Z" fill="#7B7B7B"/>
</svg>
