<svg width="24" height="24" viewBox="0 0 24 24" fill="none" xmlns="http://www.w3.org/2000/svg">
<path d="M13 1C13 0.447715 12.5523 0 12 0C11.4477 0 11 0.447715 11 1V4H9.5C8.30653 4 7.16193 4.47411 6.31802 5.31802C5.47411 6.16193 5 7.30653 5 8.5C5 9.69347 5.47411 10.8381 6.31802 11.682C7.16193 12.5259 8.30653 13 9.5 13H11V18H6C5.44772 18 5 18.4477 5 19C5 19.5523 5.44772 20 6 20H11V23C11 23.5523 11.4477 24 12 24C12.5523 24 13 23.5523 13 23V20H14.5C15.6935 20 16.8381 19.5259 17.682 18.682C18.5259 17.8381 19 16.6935 19 15.5C19 14.3065 18.5259 13.1619 17.682 12.318C16.8381 11.4741 15.6935 11 14.5 11H13V6H17C17.5523 6 18 5.55228 18 5C18 4.44772 17.5523 4 17 4H13V1ZM11 6V11H9.5C8.83696 11 8.20107 10.7366 7.73223 10.2678C7.26339 9.79893 7 9.16304 7 8.5C7 7.83696 7.26339 7.20107 7.73223 6.73223C8.20107 6.26339 8.83696 6 9.5 6H11ZM13 13H14.5C15.163 13 15.7989 13.2634 16.2678 13.7322C16.7366 14.2011 17 14.837 17 15.5C17 16.163 16.7366 16.7989 16.2678 17.2678C15.7989 17.7366 15.163 18 14.5 18H13V13Z" fill="#7B7B7B"/>
</svg>
