<svg width="24" height="24" viewBox="0 0 24 24" fill="none" xmlns="http://www.w3.org/2000/svg">
<path d="M3.29289 3.29289C3.68342 2.90237 4.31658 2.90237 4.70711 3.29289L20.7071 19.2929C21.0976 19.6834 21.0976 20.3166 20.7071 20.7071C20.3166 21.0976 19.6834 21.0976 19.2929 20.7071L16.5306 17.9448C15.0992 18.645 13.5552 19 12 19C8.09687 19 4.26379 16.7637 2.10557 12.4472C1.96481 12.1657 1.96481 11.8343 2.10557 11.5528C3.03925 9.68543 4.28639 8.20737 5.71706 7.13127L3.29289 4.70711C2.90237 4.31658 2.90237 3.68342 3.29289 3.29289ZM12 17C13.0134 17 14.0343 16.8112 15.0138 16.428L13.2934 14.7076C12.9018 14.8951 12.4631 15 12 15C10.3431 15 9 13.6569 9 12C9 11.5369 9.10495 11.0982 9.29237 10.7066L7.14838 8.56259C5.98778 9.3794 4.94721 10.5214 4.12966 12C5.99806 15.3792 9.03121 17 12 17Z" fill="#7B7B7B"/>
<path d="M19.8703 12C19.4784 12.7088 19.0353 13.3402 18.5523 13.8955L19.9689 15.3121C20.7 14.491 21.3504 13.5352 21.8944 12.4472C22.0352 12.1657 22.0352 11.8343 21.8944 11.5528C19.7362 7.23635 15.9031 5 12 5C11.2875 5 10.5774 5.07451 9.87939 5.22258L11.6637 7.00693C11.7759 7.00231 11.888 7 12 7C14.9687 7 18.0019 8.62078 19.8703 12Z" fill="#7B7B7B"/>
</svg>
