<svg width="24" height="24" viewBox="0 0 24 24" fill="none" xmlns="http://www.w3.org/2000/svg">
<path d="M12 15C13.6569 15 15 13.6569 15 12C15 10.3431 13.6569 9 12 9C10.3431 9 9 10.3431 9 12C9 13.6569 10.3431 15 12 15Z" fill="#7B7B7B"/>
<path d="M12 5C15.9031 5 19.7362 7.23635 21.8944 11.5528C22.0352 11.8343 22.0352 12.1657 21.8944 12.4472C19.7362 16.7637 15.9031 19 12 19C8.09687 19 4.26379 16.7637 2.10557 12.4472C1.96481 12.1657 1.96481 11.8343 2.10557 11.5528C4.26379 7.23635 8.09687 5 12 5ZM4.12966 12C5.99806 15.3792 9.03121 17 12 17C14.9688 17 18.0019 15.3792 19.8703 12C18.0019 8.62078 14.9688 7 12 7C9.03121 7 5.99806 8.62078 4.12966 12Z" fill="#7B7B7B"/>
</svg>
