<svg width="24" height="24" viewBox="0 0 24 24" fill="none" xmlns="http://www.w3.org/2000/svg">
<path d="M3.0635 7.51067C3.89618 5.85359 5.17325 4.46071 6.752 3.48768C8.33075 2.51465 10.149 1.9998 12.0035 2.00067C14.4874 1.9714 16.8857 2.90707 18.6935 4.61067L15.8235 7.47067C14.7936 6.49651 13.4208 5.96824 12.0035 6.00067C10.762 6.02167 9.55766 6.42731 8.55645 7.16165C7.55524 7.89599 6.80651 8.92286 6.4135 10.1007C5.98678 11.3314 5.98678 12.6699 6.4135 13.9007C6.80651 15.0785 7.55524 16.1053 8.55645 16.8397C9.55766 17.574 10.762 17.9797 12.0035 18.0007C13.2031 18.0301 14.3839 17.6992 15.3935 17.0507C15.909 16.7081 16.3513 16.2665 16.6947 15.7515C17.038 15.2364 17.2756 14.6583 17.3935 14.0507H12.0035V10.1807H21.4235C21.5451 10.8572 21.6054 11.5433 21.6035 12.2307C21.6463 13.5976 21.4014 14.9583 20.8846 16.2245C20.3677 17.4907 19.5906 18.6341 18.6035 19.5807C16.7891 21.1936 14.4305 22.0585 12.0035 22.0007C10.6895 21.9989 9.38857 21.7407 8.1735 21.2407C5.72433 20.2258 3.77841 18.2798 2.7635 15.8307C2.21292 14.5037 1.95473 13.0737 2.00649 11.638C2.05826 10.2022 2.41878 8.79453 3.0635 7.51067V7.51067Z" fill="#7B7B7B"/>
</svg>
