<svg width="24" height="24" viewBox="0 0 24 24" fill="none" xmlns="http://www.w3.org/2000/svg">
<path d="M17 8.5C17 9.32843 16.3284 10 15.5 10C14.6716 10 14 9.32843 14 8.5C14 7.67157 14.6716 7 15.5 7C16.3284 7 17 7.67157 17 8.5Z" fill="#7B7B7B"/>
<path d="M5 3C3.89543 3 3 3.89543 3 5V19C3 20.1046 3.89543 21 5 21H19C20.1046 21 21 20.1046 21 19V5C21 3.89543 20.1046 3 19 3H5ZM5 5H19V14.5857L16.7071 12.2929C16.3166 11.9024 15.6835 11.9024 15.2929 12.2929L13.9258 13.66L9.62473 10.2191C9.25951 9.92696 8.74056 9.92696 8.37534 10.2191L5 12.9194V5ZM19 19H5V15.4807L9.00004 12.2806L13.3753 15.7809C13.7732 16.0992 14.3468 16.0674 14.7071 15.7071L16 14.4142L19 17.4142V19Z" fill="#7B7B7B"/>
</svg>
