<svg width="24" height="24" viewBox="0 0 24 24" fill="none" xmlns="http://www.w3.org/2000/svg">
<path d="M12.0446 9C11.2455 9 10.479 9.31607 9.91385 9.87868C9.34873 10.4413 9.03125 11.2044 9.03125 12C9.03125 12.7956 9.34873 13.5587 9.91385 14.1213C10.479 14.6839 11.2455 15 12.0446 15C12.8438 15 13.6103 14.6839 14.1754 14.1213C14.7405 13.5587 15.058 12.7956 15.058 12C15.058 11.2044 14.7405 10.4413 14.1754 9.87868C13.6103 9.31607 12.8438 9 12.0446 9ZM12.0446 7C13.3767 7 14.6541 7.52678 15.5959 8.46447C16.5378 9.40215 17.067 10.6739 17.067 12C17.067 13.3261 16.5378 14.5979 15.5959 15.5355C14.6541 16.4732 13.3767 17 12.0446 17C10.7126 17 9.4352 16.4732 8.49333 15.5355C7.55145 14.5979 7.02232 13.3261 7.02232 12C7.02232 10.6739 7.55145 9.40215 8.49333 8.46447C9.4352 7.52678 10.7126 7 12.0446 7ZM18.5737 6.75C18.5737 7.08152 18.4414 7.39946 18.2059 7.63388C17.9705 7.8683 17.6511 8 17.3181 8C16.9851 8 16.6657 7.8683 16.4302 7.63388C16.1948 7.39946 16.0625 7.08152 16.0625 6.75C16.0625 6.41848 16.1948 6.10054 16.4302 5.86612C16.6657 5.6317 16.9851 5.5 17.3181 5.5C17.6511 5.5 17.9705 5.6317 18.2059 5.86612C18.4414 6.10054 18.5737 6.41848 18.5737 6.75ZM12.0446 4C9.5596 4 9.15379 4.007 7.99766 4.058C7.21016 4.095 6.68181 4.2 6.19163 4.39C5.75569 4.558 5.44129 4.759 5.10681 5.093C4.79242 5.3954 4.55069 5.76458 4.39967 6.173C4.20882 6.663 4.10335 7.188 4.06719 7.971C4.01496 9.075 4.00893 9.461 4.00893 12C4.00893 14.474 4.01596 14.878 4.06719 16.029C4.10435 16.812 4.20982 17.339 4.39967 17.826C4.57042 18.261 4.77132 18.574 5.1048 18.906C5.4433 19.242 5.7577 19.443 6.18962 19.609C6.68583 19.8 7.21417 19.906 7.99766 19.942C9.10658 19.994 9.49431 20 12.0446 20C14.5297 20 14.9355 19.993 16.0916 19.942C16.8771 19.905 17.4065 19.8 17.8967 19.611C18.3316 19.442 18.648 19.241 18.9815 18.909C19.32 18.572 19.5219 18.259 19.6886 17.829C19.8795 17.336 19.9859 16.809 20.0221 16.029C20.0743 14.925 20.0804 14.539 20.0804 12C20.0804 9.526 20.0733 9.122 20.0221 7.971C19.9849 7.189 19.8795 6.661 19.6886 6.173C19.5372 5.765 19.296 5.39596 18.9825 5.093C18.6788 4.77985 18.308 4.53917 17.8977 4.389C17.4055 4.199 16.8771 4.094 16.0916 4.058C14.9827 4.006 14.595 4 12.0446 4ZM12.0446 2C14.7738 2 15.1143 2.01 16.185 2.06C17.2548 2.11 17.983 2.277 18.6239 2.525C19.2868 2.779 19.8453 3.123 20.4038 3.678C20.9146 4.1779 21.3098 4.78259 21.5619 5.45C21.81 6.087 21.9788 6.813 22.029 7.878C22.0762 8.944 22.0893 9.283 22.0893 12C22.0893 14.717 22.0792 15.056 22.029 16.122C21.9788 17.187 21.81 17.912 21.5619 18.55C21.3105 19.2178 20.9152 19.8226 20.4038 20.322C19.9016 20.8303 19.2942 21.2238 18.6239 21.475C17.984 21.722 17.2548 21.89 16.185 21.94C15.1143 21.987 14.7738 22 12.0446 22C9.31551 22 8.975 21.99 7.90424 21.94C6.83449 21.89 6.10625 21.722 5.4654 21.475C4.79475 21.2245 4.18725 20.8309 3.68549 20.322C3.17463 19.8222 2.77939 19.2175 2.52734 18.55C2.27824 17.913 2.11049 17.187 2.06027 16.122C2.01306 15.056 2 14.717 2 12C2 9.283 2.01004 8.944 2.06027 7.878C2.11049 6.812 2.27824 6.088 2.52734 5.45C2.7787 4.78218 3.17402 4.17732 3.68549 3.678C4.18739 3.16923 4.79485 2.77573 5.4654 2.525C6.10625 2.277 6.83348 2.11 7.90424 2.06C8.975 2.013 9.31551 2 12.0446 2Z" fill="#7B7B7B"/>
</svg>
