<svg width="24" height="24" viewBox="0 0 24 24" fill="none" xmlns="http://www.w3.org/2000/svg">
<path d="M5.78084 4.17512C5.78702 4.47732 5.72713 4.7774 5.60504 5.05598C5.48295 5.33457 5.30138 5.58546 5.07206 5.79245C4.84273 5.99944 4.57075 6.15793 4.27369 6.25768C3.97662 6.35743 3.66107 6.39622 3.34743 6.37155C3.03902 6.39161 2.72968 6.34899 2.43959 6.24647C2.14949 6.14395 1.88516 5.98384 1.66384 5.77658C1.44252 5.56932 1.26918 5.31957 1.15513 5.04363C1.04109 4.76768 0.988896 4.47174 1.00197 4.17512C0.999139 3.87752 1.06054 3.5826 1.1823 3.30893C1.30406 3.03527 1.48354 2.78881 1.70942 2.58509C1.9353 2.38137 2.20267 2.22481 2.49468 2.12529C2.7867 2.02577 3.09701 1.98544 3.40606 2.00685C3.71427 1.98295 4.02426 2.02176 4.31579 2.12074C4.60732 2.21972 4.87384 2.37664 5.09794 2.58126C5.32205 2.78588 5.49871 3.03359 5.61638 3.30823C5.73405 3.58287 5.79009 3.87826 5.78084 4.17512V4.17512ZM1.11924 22V8.05407H5.63425V22H1.11924ZM8.33153 12.5032C8.33153 10.7644 8.27289 9.30716 8.21426 8.05407H12.1356L12.3408 9.99707H12.4361C12.9255 9.29299 13.5933 8.72005 14.3767 8.33213C15.1602 7.9442 16.0334 7.75403 16.9144 7.77952C19.8829 7.77952 22.1111 9.68731 22.1111 13.7915V22H17.5961V14.2562C17.5961 12.461 16.9438 11.2361 15.3093 11.2361C14.798 11.2476 14.303 11.4117 13.8932 11.7056C13.4834 11.9995 13.1791 12.4087 13.0225 12.8764C12.9017 13.2255 12.8495 13.5931 12.8685 13.9605V22H8.33886V12.5032H8.33153Z" fill="#7B7B7B"/>
</svg>
