<svg width="24" height="24" viewBox="0 0 24 24" fill="none" xmlns="http://www.w3.org/2000/svg">
<path d="M5.43914 5.97983L5.17914 6.16984V6.13983C5.11791 6.21783 5.0399 6.28102 4.95089 6.32472C4.86189 6.36842 4.76418 6.39151 4.66503 6.39227C4.56588 6.39302 4.46784 6.37143 4.37818 6.32909C4.28852 6.28675 4.20955 6.22475 4.14714 6.14771C4.08473 6.07066 4.04048 5.98054 4.01768 5.88404C3.99488 5.78754 3.99412 5.68715 4.01545 5.59031C4.03678 5.49348 4.07965 5.4027 4.14088 5.32471C4.20212 5.24672 4.28013 5.18353 4.36914 5.13983L5.69914 4.13983C5.79526 4.0631 5.91146 4.01568 6.03383 4.00327C6.1562 3.99085 6.27956 4.01396 6.38914 4.06983C6.50155 4.12249 6.59684 4.20578 6.66406 4.31014C6.73127 4.4145 6.76769 4.53571 6.76914 4.65983V7.97983C6.7492 8.14216 6.67057 8.29159 6.54808 8.39995C6.42558 8.50832 6.26768 8.56813 6.10414 8.56813C5.94059 8.56813 5.78269 8.50832 5.6602 8.39995C5.53771 8.29159 5.45908 8.14216 5.43914 7.97983V5.97983ZM9.40227 5.95268C9.21473 6.14022 9.10938 6.39457 9.10938 6.65979C9.10938 6.92501 9.21473 7.17936 9.40227 7.3669C9.5898 7.55443 9.84416 7.65979 10.1094 7.65979H19.1094C19.3746 7.65979 19.6289 7.55443 19.8165 7.3669C20.004 7.17936 20.1094 6.92501 20.1094 6.65979C20.1094 6.39457 20.004 6.14022 19.8165 5.95268C19.6289 5.76515 19.3746 5.65979 19.1094 5.65979H10.1094C9.84416 5.65979 9.5898 5.76515 9.40227 5.95268ZM9.40227 10.9527C9.21473 11.1402 9.10938 11.3946 9.10938 11.6598C9.10938 11.925 9.21473 12.1794 9.40227 12.3669C9.5898 12.5544 9.84416 12.6598 10.1094 12.6598H19.1094C19.3746 12.6598 19.6289 12.5544 19.8165 12.3669C20.004 12.1794 20.1094 11.925 20.1094 11.6598C20.1094 11.3946 20.004 11.1402 19.8165 10.9527C19.6289 10.7651 19.3746 10.6598 19.1094 10.6598H10.1094C9.84416 10.6598 9.5898 10.7651 9.40227 10.9527ZM9.40227 15.9527C9.21473 16.1402 9.10938 16.3946 9.10938 16.6598C9.10938 16.925 9.21473 17.1794 9.40227 17.3669C9.5898 17.5544 9.84416 17.6598 10.1094 17.6598H19.1094C19.3746 17.6598 19.6289 17.5544 19.8165 17.3669C20.004 17.1794 20.1094 16.925 20.1094 16.6598C20.1094 16.3946 20.004 16.1402 19.8165 15.9527C19.6289 15.7651 19.3746 15.6598 19.1094 15.6598H10.1094C9.84416 15.6598 9.5898 15.7651 9.40227 15.9527ZM5.78897 14.3599C5.50437 14.3598 5.22431 14.4312 4.97447 14.5674C4.72462 14.7037 4.51299 14.9005 4.35897 15.1399C4.3134 15.214 4.28294 15.2964 4.26933 15.3823C4.25572 15.4683 4.25925 15.556 4.27969 15.6406C4.30014 15.7252 4.33711 15.8049 4.38847 15.8751C4.43983 15.9454 4.50457 16.0047 4.57897 16.0499C4.6527 16.0968 4.73514 16.1284 4.82135 16.1427C4.90757 16.1571 4.99579 16.1539 5.08074 16.1333C5.16569 16.1128 5.24563 16.0753 5.31577 16.0232C5.38591 15.971 5.44482 15.9053 5.48897 15.8299C5.52413 15.7842 5.56972 15.7477 5.62192 15.7233C5.67413 15.699 5.73141 15.6875 5.78897 15.6899C5.87744 15.6898 5.96244 15.7243 6.02592 15.7859C6.0894 15.8475 6.12637 15.9314 6.12897 16.0199C6.12897 16.0699 5.97897 16.2099 5.83897 16.2799C5.68566 16.3612 5.56806 16.4967 5.50897 16.6599C5.44727 16.8257 5.45365 17.0091 5.52671 17.1702C5.59978 17.3314 5.73359 17.457 5.89897 17.5199C5.97959 17.5482 6.05181 17.5963 6.10897 17.6599C6.10645 17.7492 6.06982 17.8343 6.0066 17.8975C5.94337 17.9607 5.85835 17.9973 5.76897 17.9999H5.66897C5.58821 17.967 5.51873 17.9114 5.46897 17.8399C5.37146 17.6962 5.22126 17.5967 5.05093 17.563C4.88059 17.5293 4.70383 17.5641 4.55897 17.6599C4.48457 17.705 4.41983 17.7644 4.36847 17.8346C4.31711 17.9048 4.28014 17.9845 4.25969 18.0691C4.23925 18.1537 4.23572 18.2415 4.24933 18.3274C4.26294 18.4133 4.2934 18.4957 4.33897 18.5699C4.48942 18.8148 4.69951 19.0175 4.94958 19.1592C5.19966 19.3008 5.48158 19.3767 5.76897 19.3799C5.85161 19.3951 5.93633 19.3951 6.01897 19.3799C6.42786 19.3208 6.80036 19.1123 7.06447 18.7946C7.32859 18.477 7.46558 18.0727 7.44897 17.6599C7.44979 17.3629 7.35122 17.0743 7.16897 16.8399C7.35129 16.6016 7.44973 16.3098 7.44897 16.0099C7.44633 15.5713 7.27027 15.1517 6.95925 14.8425C6.64822 14.5334 6.2275 14.3599 5.78897 14.3599ZM6.35942 12.6598H6.82942C7.00447 12.6598 7.17234 12.7294 7.29611 12.8532C7.41989 12.9769 7.48942 13.1448 7.48942 13.3198C7.48942 13.4949 7.41989 13.6628 7.29611 13.7865C7.17234 13.9103 7.00447 13.9798 6.82942 13.9798H4.74942C4.61631 13.9782 4.48661 13.9375 4.3764 13.8629C4.26619 13.7882 4.18031 13.6829 4.12942 13.5598C4.08297 13.4341 4.07529 13.2973 4.10737 13.1672C4.13946 13.0371 4.20984 12.9196 4.30942 12.8298C4.30942 12.8267 4.35435 12.7835 4.43047 12.7104C4.59792 12.5495 4.91631 12.2436 5.23942 11.8998C5.61646 11.555 5.91342 11.1317 6.10942 10.6598C6.10682 10.5714 6.06986 10.4875 6.00637 10.4259C5.94289 10.3643 5.85789 10.3298 5.76942 10.3298C5.6819 10.3298 5.59797 10.3646 5.53608 10.4265C5.47419 10.4884 5.43942 10.5723 5.43942 10.6598C5.41948 10.8222 5.34085 10.9716 5.21836 11.08C5.09587 11.1883 4.93797 11.2481 4.77442 11.2481C4.61088 11.2481 4.45298 11.1883 4.33049 11.08C4.20799 10.9716 4.12937 10.8222 4.10942 10.6598C4.10403 10.4368 4.14365 10.215 4.22591 10.0076C4.30818 9.80023 4.4314 9.61157 4.58822 9.45289C4.74503 9.2942 4.93223 9.16876 5.13861 9.08404C5.345 8.99933 5.56634 8.95709 5.78942 8.95984C6.01083 8.95978 6.23 9.004 6.43406 9.08992C6.63811 9.17583 6.82291 9.30169 6.97759 9.4601C7.13227 9.61851 7.2537 9.80626 7.33473 10.0123C7.41576 10.2183 7.45476 10.4385 7.44942 10.6598C7.44942 11.0198 7.35942 11.5598 6.35942 12.6598Z" fill="#7B7B7B"/>
</svg>
