<svg width="24" height="24" viewBox="0 0 24 24" fill="none" xmlns="http://www.w3.org/2000/svg">
<path d="M12 1.00208C11.4742 1.00208 10.9577 1.14026 10.5021 1.40276L7.30632 3.22894C7.09617 3.27051 6.90015 3.37906 6.75256 3.54537L3.50386 5.40177L3.5 5.404C3.13001 5.61761 2.81092 5.90718 2.56307 6.2524C2.50272 6.31276 2.44916 6.38191 2.4044 6.4593C2.36583 6.52597 2.33582 6.59523 2.31403 6.66582C2.10833 7.07929 2.00048 7.5355 2 7.999V16.0011C2.00054 16.5271 2.13941 17.0438 2.40269 17.4993C2.66597 17.9548 3.04439 18.333 3.5 18.5961L3.50386 18.5983L10.5 22.5961L10.5019 22.5971C10.8191 22.78 11.1658 22.9025 11.5247 22.9601C11.6661 23.0366 11.828 23.08 12 23.08C12.172 23.08 12.3339 23.0366 12.4752 22.9601C12.8342 22.9025 13.181 22.7799 13.4982 22.5971L13.5 22.5961L20.4961 18.5983L20.5 18.5961C20.9556 18.333 21.334 17.9548 21.5973 17.4993C21.8606 17.0438 21.9995 16.5271 22 16.0011V7.999C21.9995 7.53551 21.8917 7.07931 21.686 6.66584C21.6642 6.59524 21.6342 6.52597 21.5956 6.4593C21.5508 6.3819 21.4973 6.31275 21.4369 6.25238C21.1891 5.90717 20.87 5.61761 20.5 5.40399L13.5 1.404L13.4979 1.4028C13.0424 1.14027 12.5258 1.00208 12 1.00208ZM13 20.5783V12.5868L20 8.53756V15.999C19.9998 16.1744 19.9535 16.3466 19.8658 16.4984C19.7783 16.6497 19.6527 16.7754 19.5016 16.8631L19.5 16.864L13 20.5783ZM11 12.5868V20.5783L4.5 16.864L4.49842 16.8631C4.34726 16.7754 4.22169 16.6497 4.13423 16.4984C4.04654 16.3467 4.00025 16.1746 4 15.9994V8.53756L11 12.5868ZM12.5 3.13606L18.961 6.82806L16.5052 8.24867L9.5609 4.24412L11.4961 3.13828L11.5 3.13605C11.652 3.04828 11.8245 3.00208 12 3.00208C12.1755 3.00208 12.348 3.04829 12.5 3.13606ZM12 10.8548L5.03898 6.82806L7.54998 5.39321L14.5065 9.40483L12 10.8548Z" fill="#7B7B7B"/>
</svg>
