<svg width="24" height="24" viewBox="0 0 24 24" fill="none" xmlns="http://www.w3.org/2000/svg">
<path d="M12 8C10.9391 8 9.92172 8.42143 9.17157 9.17157C8.42143 9.92172 8 10.9391 8 12C8 13.0609 8.42143 14.0783 9.17157 14.8284C9.92172 15.5786 10.9391 16 12 16C13.0609 16 14.0783 15.5786 14.8284 14.8284C15.5786 14.0783 16 13.0609 16 12C16 10.9391 15.5786 9.92172 14.8284 9.17157C14.0783 8.42143 13.0609 8 12 8ZM10.5858 10.5858C10.9609 10.2107 11.4696 10 12 10C12.5304 10 13.0391 10.2107 13.4142 10.5858C13.7893 10.9609 14 11.4696 14 12C14 12.5304 13.7893 13.0391 13.4142 13.4142C13.0391 13.7893 12.5304 14 12 14C11.4696 14 10.9609 13.7893 10.5858 13.4142C10.2107 13.0391 10 12.5304 10 12C10 11.4696 10.2107 10.9609 10.5858 10.5858Z" fill="#7B7B7B"/>
<path d="M12 2C10.4181 2 9.12224 3.2243 9.00816 4.77703C7.82955 3.75975 6.0475 3.81038 4.92896 4.92892C3.81041 6.04747 3.75978 7.82955 4.77709 9.00816C3.22433 9.12221 2 10.4181 2 12C2 13.5819 3.2243 14.8778 4.77702 14.9918C3.75972 16.1704 3.81034 17.9525 4.92889 19.0711C6.04745 20.1896 7.82955 20.2402 9.00816 19.2229C9.12221 20.7757 10.4181 22 12 22C13.5819 22 14.8778 20.7757 14.9918 19.2229C16.1705 20.2402 17.9525 20.1896 19.0711 19.0711C20.1896 17.9525 20.2403 16.1704 19.223 14.9918C20.7757 14.8778 22 13.5819 22 12C22 10.4181 20.7757 9.12221 19.2229 9.00816C20.2402 7.82955 20.1896 6.04748 19.071 4.92894C17.9525 3.8104 16.1704 3.75977 14.9918 4.77703C14.8778 3.2243 13.5819 2 12 2ZM11 5C11 4.44772 11.4477 4 12 4C12.5523 4 13 4.44772 13 5C13 6.69219 15.046 7.53979 16.2426 6.34315C16.6331 5.95263 17.2663 5.95263 17.6568 6.34315C18.0473 6.73368 18.0473 7.36684 17.6568 7.75737C16.4601 8.95405 17.3078 11 19 11C19.5523 11 20 11.4477 20 12C20 12.5523 19.5523 13 19 13C17.3077 13 16.4603 15.0461 17.6569 16.2426C18.0474 16.6332 18.0474 17.2663 17.6569 17.6568C17.2664 18.0474 16.6332 18.0474 16.2427 17.6568C15.046 16.4602 13 17.3077 13 19C13 19.5523 12.5523 20 12 20C11.4477 20 11 19.5523 11 19C11 17.3077 8.9539 16.4603 7.75732 17.6569C7.36679 18.0474 6.73363 18.0474 6.34311 17.6569C5.95258 17.2663 5.95258 16.6332 6.34311 16.2426C7.53964 15.0461 6.69236 13 5 13C4.44772 13 4 12.5523 4 12C4 11.4477 4.44772 11 5 11C6.69223 11 7.53982 8.954 6.34317 7.75735C5.95265 7.36683 5.95265 6.73366 6.34317 6.34314C6.73369 5.95261 7.36686 5.95261 7.75738 6.34314C8.95399 7.53974 11 6.69226 11 5Z" fill="#7B7B7B"/>
</svg>
