<svg width="24" height="24" viewBox="0 0 24 24" fill="none" xmlns="http://www.w3.org/2000/svg">
<path d="M18 3C19.1046 3 20 3.89543 20 5C20 6.10457 19.1046 7 18 7C17.2825 7 16.6533 6.62218 16.3003 6.05464C16.292 6.03828 16.2831 6.02205 16.2737 6.00597C16.2642 5.98977 16.2544 5.97394 16.2442 5.95848C16.0885 5.67388 16 5.34728 16 5C16 3.89543 16.8954 3 18 3ZM15.1581 7.81485C15.883 8.54668 16.8885 9 18 9C20.2091 9 22 7.20914 22 5C22 2.79086 20.2091 1 18 1C15.7909 1 14 2.79086 14 5C14 5.37702 14.0522 5.74185 14.1497 6.08768L8.84194 9.18515C8.11704 8.45332 7.11146 8 6 8C3.79086 8 2 9.79086 2 12C2 14.2091 3.79086 16 6 16C7.11167 16 8.11742 15.5465 8.84235 14.8144L14.1509 17.9079C14.0526 18.255 14 18.6214 14 19C14 21.2091 15.7909 23 18 23C20.2091 23 22 21.2091 22 19C22 16.7909 20.2091 15 18 15C16.8902 15 15.886 15.452 15.1613 16.1819L9.8505 13.0871C9.9479 12.7415 10 12.3768 10 12C10 11.623 9.94784 11.2581 9.85034 10.9123L15.1581 7.81485ZM7.69975 10.9455C7.70811 10.9618 7.71697 10.978 7.72632 10.994C7.73574 11.0102 7.74554 11.026 7.75571 11.0414C7.91146 11.326 8 11.6527 8 12C8 12.3473 7.91147 12.674 7.75574 12.9586C7.74544 12.9742 7.73553 12.9902 7.726 13.0065C7.71676 13.0224 7.70801 13.0384 7.69973 13.0545C7.34684 13.6221 6.71755 14 6 14C4.89543 14 4 13.1046 4 12C4 10.8954 4.89543 10 6 10C6.71756 10 7.34686 10.3779 7.69975 10.9455ZM16 19C16 18.6749 16.0776 18.3679 16.2152 18.0965C16.24 18.064 16.2629 18.0296 16.284 17.9935C16.3042 17.9588 16.3221 17.9234 16.3377 17.8875C16.6966 17.3523 17.3072 17 18 17C19.1046 17 20 17.8954 20 19C20 20.1046 19.1046 21 18 21C16.8954 21 16 20.1046 16 19Z" fill="#7B7B7B"/>
</svg>
