<svg width="24" height="24" viewBox="0 0 24 24" fill="none" xmlns="http://www.w3.org/2000/svg">
<path d="M10 19C10.5523 19 11 19.4477 11 20C11 20.5523 10.5523 21 10 21H5C3.89543 21 3 20.1046 3 19V5C3 3.89543 3.89543 3 5 3H10C10.5523 3 11 3.44771 11 4C11 4.55228 10.5523 5 10 5H5V19H10Z" fill="#7B7B7B"/>
<path d="M21.9241 12.3828C21.8764 12.498 21.8063 12.6062 21.7136 12.7005L21.7064 12.7078L17.7071 16.7071C17.3166 17.0976 16.6834 17.0976 16.2929 16.7071C15.9024 16.3166 15.9024 15.6834 16.2929 15.2929L18.5858 13H9C8.44771 13 8 12.5523 8 12C8 11.4477 8.44771 11 9 11H18.5858L16.2929 8.70711C15.9024 8.31658 15.9024 7.68342 16.2929 7.29289C16.6834 6.90237 17.3166 6.90237 17.7071 7.29289L21.7071 11.2929C21.9016 11.4874 21.9992 11.7421 22 11.997V12.003C21.9996 12.1375 21.9727 12.2657 21.9241 12.3828Z" fill="#7B7B7B"/>
</svg>
