<svg width="24" height="24" viewBox="0 0 24 24" fill="none" xmlns="http://www.w3.org/2000/svg">
<path fill-rule="evenodd" clip-rule="evenodd" d="M3 2C2.44772 2 2 2.44772 2 3V11C2 11.2652 2.10536 11.5196 2.29289 11.7071L12.2929 21.7071C12.6834 22.0976 13.3166 22.0976 13.7071 21.7071L21.7071 13.7071C22.0976 13.3166 22.0976 12.6834 21.7071 12.2929L11.7071 2.29289C11.5196 2.10536 11.2652 2 11 2H3ZM4 10.5858V4H10.5858L19.5858 13L13 19.5858L4 10.5858ZM7.5 9C8.32843 9 9 8.32843 9 7.5C9 6.67157 8.32843 6 7.5 6C6.67157 6 6 6.67157 6 7.5C6 8.32843 6.67157 9 7.5 9Z" fill="#7B7B7B"/>
</svg>
