<svg width="24" height="24" viewBox="0 0 24 24" fill="none" xmlns="http://www.w3.org/2000/svg">
<path d="M2 6C2 4.89543 2.89543 4 4 4H20C21.1046 4 22 4.89543 22 6V9C22 9.55228 21.5523 10 21 10C19.8954 10 19 10.8954 19 12C19 13.1046 19.8954 14 21 14C21.5523 14 22 14.4477 22 15V18C22 19.1046 21.1046 20 20 20H4C2.89543 20 2 19.1046 2 18V15C2 14.4477 2.44772 14 3 14C4.10457 14 5 13.1046 5 12C5 10.8954 4.10457 10 3 10C2.44772 10 2 9.55228 2 9V6ZM20 6H4V8.12602C5.72523 8.57006 7 10.1362 7 12C7 13.8638 5.72523 15.4299 4 15.874V18H20V15.874C18.2748 15.4299 17 13.8638 17 12C17 10.1362 18.2748 8.57006 20 8.12602V6Z" fill="#7B7B7B"/>
</svg>
