<svg width="24" height="24" viewBox="0 0 24 24" fill="none" xmlns="http://www.w3.org/2000/svg">
<g clip-path="url(#clip0_1_136)">
<path d="M24.3869 4.37436C23.4747 4.7933 22.5062 5.07438 21.5125 5.20851C22.5588 4.58035 23.3421 3.58994 23.7159 2.42244C22.7325 3.01019 21.6568 3.42486 20.535 3.64865C19.8565 2.89278 18.965 2.36347 17.9797 2.13146C16.9944 1.89946 15.9623 1.97582 15.0213 2.35033C14.0802 2.72484 13.2751 3.37967 12.7136 4.22728C12.152 5.0749 11.8607 6.07492 11.8787 7.0937C11.8804 7.47841 11.9249 7.86172 12.0112 8.23649C10.0183 8.13267 8.06954 7.60646 6.2924 6.69227C4.51525 5.77808 2.94972 4.49649 1.69814 2.93128C1.04752 4.03872 0.845452 5.35595 1.1339 6.60947C1.42235 7.86299 2.17916 8.95648 3.24717 9.66289C2.45109 9.63775 1.67266 9.42033 0.977464 9.02893V9.09566C0.98089 10.2585 1.38236 11.3846 2.11419 12.2842C2.84603 13.1837 3.86347 13.8017 4.99501 14.0338C4.56307 14.1521 4.11724 14.211 3.66963 14.209C3.35546 14.2078 3.04209 14.1771 2.73359 14.1173C3.05273 15.1186 3.67456 15.9946 4.51219 16.6227C5.34981 17.2508 6.36138 17.5997 7.40554 17.6207C5.63294 19.0194 3.44482 19.7774 1.19284 19.7728C0.794224 19.776 0.39581 19.7537 0 19.7061C2.2852 21.1963 4.94809 21.9927 7.67061 22C16.8737 22 21.9018 14.3258 21.9018 7.66926C21.9018 7.45238 21.9018 7.2355 21.9018 7.01862C22.8789 6.30539 23.7207 5.42102 24.3869 4.40773V4.37436Z" fill="#7B7B7B"/>
</g>
<defs>
<clipPath id="clip0_1_136">
<rect width="24" height="24" fill="white"/>
</clipPath>
</defs>
</svg>
