<svg width="24" height="24" viewBox="0 0 24 24" fill="none" xmlns="http://www.w3.org/2000/svg">
<path d="M12 3C9.79086 3 8 4.79086 8 7C8 9.2091 9.79086 11 12 11C14.2091 11 16 9.2091 16 7C16 4.79086 14.2091 3 12 3ZM6 7C6 3.68629 8.68629 1 12 1C15.3137 1 18 3.68629 18 7C18 10.3137 15.3137 13 12 13C8.68629 13 6 10.3137 6 7ZM8 17C6.34315 17 5 18.3431 5 20C5 20.5523 4.55228 21 4 21C3.44772 21 3 20.5523 3 20C3 17.2386 5.23858 15 8 15H16C18.7614 15 21 17.2386 21 20C21 20.5523 20.5523 21 20 21C19.4477 21 19 20.5523 19 20C19 18.3431 17.6569 17 16 17H8Z" fill="#7B7B7B"/>
</svg>
