<svg width="96" height="96" viewBox="0 0 96 96" fill="none" xmlns="http://www.w3.org/2000/svg">
<path d="M44.73 34.85C42.3625 34.8527 40.0926 35.7943 38.4185 37.4685C36.7444 39.1426 35.8027 41.4124 35.8 43.78C35.8 44.0452 35.9054 44.2996 36.0929 44.4871C36.2805 44.6747 36.5348 44.78 36.8 44.78C37.0653 44.78 37.3196 44.6747 37.5072 44.4871C37.6947 44.2996 37.8 44.0452 37.8 43.78C37.8027 41.9429 38.5337 40.1817 39.8327 38.8827C41.1318 37.5836 42.8929 36.8527 44.73 36.85C44.9953 36.85 45.2496 36.7446 45.4372 36.5571C45.6247 36.3696 45.73 36.1152 45.73 35.85C45.73 35.5848 45.6247 35.3304 45.4372 35.1429C45.2496 34.9554 44.9953 34.85 44.73 34.85Z" fill="#01645A"/>
<path fill-rule="evenodd" clip-rule="evenodd" d="M59.3086 42.1764C59.5174 46.1314 58.1804 50.0127 55.58 53L65 62.41C65.1844 62.6023 65.2847 62.8599 65.2791 63.1262C65.2735 63.3925 65.1623 63.6457 64.97 63.83C64.7777 64.0143 64.5201 64.1147 64.2538 64.1091C63.9875 64.1035 63.7344 63.9923 63.55 63.8L54.17 54.42C51.2011 57.0414 47.3294 58.4058 43.373 58.225C39.4166 58.0441 35.6855 56.3322 32.9682 53.4509C30.2508 50.5696 28.7601 46.7447 28.8111 42.7845C28.8621 38.8243 30.4507 35.039 33.2413 32.2286C36.0319 29.4182 39.8058 27.8029 43.7656 27.7239C47.7253 27.645 51.5607 29.1086 54.4611 31.8055C57.3615 34.5024 59.0998 38.2214 59.3086 42.1764ZM32.9972 35.5232C31.5321 37.7155 30.75 40.2932 30.75 42.93C30.7527 46.4628 32.1566 49.8503 34.6537 52.3493C37.1508 54.8483 40.5372 56.2547 44.07 56.26C46.7069 56.262 49.2851 55.4819 51.4785 54.0184C53.6719 52.5548 55.382 50.4737 56.3925 48.0381C57.4029 45.6025 57.6683 42.922 57.1551 40.3356C56.6419 37.7492 55.3731 35.373 53.5093 33.5078C51.6455 31.6426 49.2703 30.372 46.6843 29.8569C44.0982 29.3417 41.4175 29.6051 38.9812 30.6137C36.5448 31.6224 34.4624 33.3309 32.9972 35.5232Z" fill="#01645A"/>
<path fill-rule="evenodd" clip-rule="evenodd" d="M87.1 40.58C87.2397 40.5661 87.3748 40.523 87.4968 40.4535C87.6187 40.3839 87.7246 40.2894 87.8076 40.1763C87.8906 40.0631 87.9489 39.9337 87.9786 39.7965C88.0083 39.6593 88.0087 39.5174 87.98 39.38C86.9428 34.5602 85.0385 29.969 82.36 25.83C82.2836 25.7133 82.1836 25.6139 82.0665 25.5381C81.9494 25.4623 81.8177 25.4119 81.68 25.39C81.5409 25.3674 81.3987 25.3744 81.2625 25.4106C81.1264 25.4468 80.9994 25.5113 80.89 25.6C79.457 26.7557 77.6473 27.3406 75.809 27.2424C73.9707 27.1443 72.2336 26.3698 70.9319 25.0681C69.6302 23.7664 68.8557 22.0293 68.7575 20.191C68.6593 18.3527 69.2443 16.543 70.4 15.11C70.4886 15.0005 70.5532 14.8736 70.5894 14.7374C70.6256 14.6013 70.6326 14.459 70.61 14.32C70.5881 14.1822 70.5377 14.0506 70.4619 13.9335C70.3861 13.8164 70.2867 13.7164 70.17 13.64C66.0324 10.9544 61.4411 9.04336 56.62 8.00001C56.4826 7.97125 56.3407 7.97173 56.2035 8.00143C56.0663 8.03113 55.9369 8.08938 55.8237 8.17238C55.7105 8.25539 55.6161 8.3613 55.5465 8.48322C55.477 8.60513 55.4338 8.74033 55.42 8.88001C55.2292 10.7151 54.3652 12.4143 52.9948 13.6496C51.6244 14.8849 49.8449 15.5685 48 15.5685C46.155 15.5685 44.3755 14.8849 43.0052 13.6496C41.6348 12.4143 40.7708 10.7151 40.58 8.88001C40.5661 8.74033 40.523 8.60513 40.4534 8.48322C40.3839 8.3613 40.2894 8.25539 40.1762 8.17238C40.063 8.08938 39.9336 8.03113 39.7965 8.00143C39.6593 7.97173 39.5174 7.97125 39.38 8.00001C34.5602 9.0372 29.969 10.9415 25.83 13.62C25.7133 13.6964 25.6138 13.7964 25.538 13.9135C25.4623 14.0306 25.4118 14.1622 25.39 14.3C25.3674 14.439 25.3744 14.5813 25.4106 14.7174C25.4468 14.8536 25.5113 14.9805 25.6 15.09C26.7779 16.5203 27.3813 18.3378 27.2929 20.1885C27.2044 22.0393 26.4304 23.7909 25.1214 25.1024C23.8125 26.4138 22.0623 27.1912 20.2117 27.2832C18.3611 27.3752 16.5425 26.7752 15.11 25.6C15.0005 25.5113 14.8736 25.4468 14.7374 25.4106C14.6013 25.3744 14.459 25.3674 14.32 25.39C14.1822 25.4119 14.0505 25.4623 13.9334 25.5381C13.8163 25.6139 13.7164 25.7133 13.64 25.83C10.9544 29.9676 9.04333 34.5589 7.99997 39.38C7.97122 39.5174 7.9717 39.6593 8.0014 39.7965C8.0311 39.9337 8.08935 40.0631 8.17235 40.1763C8.25536 40.2894 8.36127 40.3839 8.48318 40.4535C8.6051 40.523 8.7403 40.5661 8.87998 40.58C10.715 40.7708 12.4143 41.6348 13.6496 43.0052C14.8848 44.3756 15.5685 46.1551 15.5685 48C15.5685 49.8449 14.8848 51.6244 13.6496 52.9948C12.4143 54.3652 10.715 55.2292 8.87998 55.42C8.7403 55.4339 8.6051 55.477 8.48318 55.5465C8.36127 55.6161 8.25536 55.7106 8.17235 55.8237C8.08935 55.9369 8.0311 56.0663 8.0014 56.2035C7.9717 56.3407 7.97122 56.4826 7.99997 56.62C9.03717 61.4398 10.9414 66.031 13.62 70.17C13.6964 70.2867 13.7963 70.3862 13.9134 70.4619C14.0305 70.5377 14.1622 70.5881 14.3 70.61C14.439 70.6326 14.5813 70.6256 14.7174 70.5894C14.8536 70.5532 14.9805 70.4887 15.09 70.4C16.5203 69.2221 18.3377 68.6186 20.1885 68.7071C22.0393 68.7956 23.7909 69.5696 25.1024 70.8786C26.4138 72.1875 27.1912 73.9377 27.2832 75.7883C27.3751 77.6389 26.7751 79.4575 25.6 80.89C25.5113 80.9995 25.4468 81.1264 25.4106 81.2626C25.3744 81.3987 25.3674 81.541 25.39 81.68C25.4118 81.8178 25.4623 81.9494 25.538 82.0666C25.6138 82.1837 25.7133 82.2836 25.83 82.36C29.9675 85.0456 34.5589 86.9566 39.38 88C39.5174 88.0288 39.6593 88.0283 39.7965 87.9986C39.9336 87.9689 40.063 87.9106 40.1762 87.8276C40.2894 87.7446 40.3839 87.6387 40.4534 87.5168C40.523 87.3949 40.5661 87.2597 40.58 87.12C40.7708 85.285 41.6348 83.5857 43.0052 82.3504C44.3755 81.1152 46.155 80.4315 48 80.4315C49.8449 80.4315 51.6244 81.1152 52.9948 82.3504C54.3652 83.5857 55.2292 85.285 55.42 87.12C55.4331 87.2598 55.4755 87.3953 55.5444 87.5176C55.6133 87.6399 55.7072 87.7464 55.82 87.83C55.9933 87.9507 56.1988 88.0169 56.41 88.02H56.62C61.4397 86.9828 66.031 85.0786 70.17 82.4C70.2867 82.3236 70.3861 82.2237 70.4619 82.1065C70.5377 81.9894 70.5881 81.8578 70.61 81.72C70.6326 81.581 70.6256 81.4387 70.5894 81.3026C70.5532 81.1664 70.4886 81.0395 70.4 80.93C69.1975 79.5029 68.5736 77.677 68.6513 75.8124C68.729 73.9479 69.5027 72.1802 70.8198 70.8582C72.1368 69.5361 73.9016 68.7556 75.7658 68.6708C77.63 68.586 79.4583 69.203 80.89 70.4C80.9994 70.4887 81.1264 70.5532 81.2625 70.5894C81.3987 70.6256 81.5409 70.6326 81.68 70.61C81.8177 70.5881 81.9494 70.5377 82.0665 70.4619C82.1836 70.3862 82.2836 70.2867 82.36 70.17C85.0456 66.0324 86.9566 61.4411 88 56.62C88.0287 56.4826 88.0283 56.3407 87.9986 56.2035C87.9688 56.0663 87.9106 55.9369 87.8276 55.8237C87.7446 55.7106 87.6387 55.6161 87.5168 55.5465C87.3949 55.477 87.2597 55.4339 87.12 55.42C85.2849 55.2292 83.5857 54.3652 82.3504 52.9948C81.1151 51.6244 80.4315 49.8449 80.4315 48C80.4315 46.1551 81.1151 44.3756 82.3504 43.0052C83.5857 41.6348 85.2849 40.7708 87.12 40.58H87.1ZM78.44 48C78.4331 50.1438 79.1577 52.2258 80.494 53.9022C81.8304 55.5785 83.6986 56.7489 85.79 57.22C84.8503 61.0996 83.3154 64.8102 81.24 68.22C79.429 67.1172 77.3 66.6548 75.1947 66.907C73.0894 67.1591 71.1299 68.1113 69.6306 69.6106C68.1312 71.1099 67.1791 73.0694 66.9269 75.1747C66.6747 77.28 67.1372 79.409 68.24 81.22C64.8302 83.2955 61.1196 84.8303 57.24 85.77C56.7608 83.6834 55.588 81.821 53.9132 80.4873C52.2385 79.1536 50.1609 78.4274 48.02 78.4274C45.879 78.4274 43.8014 79.1536 42.1267 80.4873C40.452 81.821 39.2792 83.6834 38.8 85.77C34.9198 84.8322 31.2089 83.2972 27.8 81.22C28.9028 79.409 29.3652 77.28 29.113 75.1747C28.8609 73.0694 27.9087 71.1099 26.4094 69.6106C24.9101 68.1113 22.9505 67.1591 20.8452 66.907C18.7399 66.6548 16.611 67.1172 14.8 68.22C12.7245 64.8102 11.1897 61.0996 10.25 57.22C12.3366 56.7408 14.1989 55.568 15.5327 53.8933C16.8664 52.2185 17.5926 50.1409 17.5926 48C17.5926 45.8591 16.8664 43.7815 15.5327 42.1067C14.1989 40.432 12.3366 39.2592 10.25 38.78C11.1897 34.9004 12.7245 31.1898 14.8 27.78C16.611 28.8828 18.7399 29.3452 20.8452 29.0931C22.9505 28.8409 24.9101 27.8887 26.4094 26.3894C27.9087 24.8901 28.8609 22.9306 29.113 20.8253C29.3652 18.72 28.9028 16.591 27.8 14.78C31.2089 12.7028 34.9198 11.1678 38.8 10.23C39.2792 12.3166 40.452 14.179 42.1267 15.5127C43.8014 16.8464 45.879 17.5726 48.02 17.5726C50.1609 17.5726 52.2385 16.8464 53.9132 15.5127C55.588 14.179 56.7608 12.3166 57.24 10.23C61.1196 11.1697 64.8302 12.7045 68.24 14.78C67.1372 16.591 66.6747 18.72 66.9269 20.8253C67.1791 22.9306 68.1312 24.8901 69.6306 26.3894C71.1299 27.8887 73.0894 28.8409 75.1947 29.0931C77.3 29.3452 79.429 28.8828 81.24 27.78C83.3154 31.1898 84.8503 34.9004 85.79 38.78C83.6986 39.2511 81.8304 40.4215 80.494 42.0978C79.1577 43.7742 78.4331 45.8562 78.44 48Z" fill="#01645A"/>
</svg>
