<svg width="96" height="96" viewBox="0 0 96 96" fill="none" xmlns="http://www.w3.org/2000/svg">
<path fill-rule="evenodd" clip-rule="evenodd" d="M73.72 49H70.7201C70.5326 53.1784 69.1979 57.2245 66.8624 60.6944C64.5268 64.1642 61.2807 66.9236 57.48 68.67L64.6201 79.84H73.77C74.0231 78.0483 74.9462 76.4191 76.353 75.2811C77.7599 74.143 79.5459 73.5807 81.351 73.7076C83.1561 73.8345 84.8459 74.641 86.0798 75.9646C87.3137 77.2883 87.9998 79.0305 87.9998 80.84C87.9998 82.6495 87.3137 84.3918 86.0798 85.7154C84.8459 87.039 83.1561 87.8456 81.351 87.9724C79.5459 88.0993 77.7599 87.537 76.353 86.3989C74.9462 85.2609 74.0231 83.6318 73.77 81.84H64.07C63.9027 81.8397 63.7382 81.7975 63.5914 81.7171C63.4446 81.6367 63.3204 81.5208 63.2301 81.38L55.6 69.44C50.6839 71.1867 45.3162 71.1867 40.4001 69.44L32.7701 81.38C32.6797 81.5208 32.5555 81.6367 32.4087 81.7171C32.2619 81.7975 32.0974 81.8397 31.93 81.84H22.23C21.9769 83.6344 21.0528 85.2661 19.6441 86.4061C18.2353 87.546 16.4467 88.1093 14.639 87.9825C12.8313 87.8556 11.1389 87.048 9.90313 85.7225C8.66738 84.397 7.98022 82.6522 7.98022 80.84C7.98022 79.0278 8.66738 77.2831 9.90313 75.9576C11.1389 74.6321 12.8313 73.8244 14.639 73.6976C16.4467 73.5707 18.2353 74.134 19.6441 75.274C21.0528 76.4139 21.9769 78.0456 22.23 79.84H31.3801L38.5201 68.67C34.7194 66.9236 31.4733 64.1642 29.1377 60.6944C26.8022 57.2245 25.4675 53.1784 25.28 49H22.23C21.9769 50.7944 21.0528 52.4261 19.6441 53.5661C18.2353 54.706 16.4467 55.2693 14.639 55.1424C12.8313 55.0156 11.1389 54.208 9.90313 52.8825C8.66738 51.557 7.98022 49.8122 7.98022 48C7.98022 46.1878 8.66738 44.4431 9.90313 43.1176C11.1389 41.7921 12.8313 40.9844 14.639 40.8576C16.4467 40.7307 18.2353 41.294 19.6441 42.434C21.0528 43.5739 21.9769 45.2056 22.23 47H25.28C25.4541 43.0775 26.6394 39.2666 28.721 35.9375C30.8026 32.6083 33.7097 29.874 37.16 28L31.3101 16.16H22.23C21.977 17.9518 21.0539 19.5809 19.6471 20.7189C18.2402 21.857 16.4542 22.4193 14.6491 22.2924C12.844 22.1656 11.1542 21.359 9.9203 20.0354C8.68643 18.7118 8.00032 16.9695 8.00032 15.16C8.00032 13.3505 8.68643 11.6083 9.9203 10.2846C11.1542 8.96101 12.844 8.15446 14.6491 8.0276C16.4542 7.90075 18.2402 8.46303 19.6471 9.60108C21.0539 10.7391 21.977 12.3683 22.23 14.16H31.93C32.1147 14.1606 32.2956 14.2123 32.4527 14.3093C32.6098 14.4064 32.7369 14.5451 32.82 14.71L38.92 27.13C41.7725 25.8897 44.8496 25.2496 47.96 25.2496C51.0705 25.2496 54.1476 25.8897 57 27.13L63.18 14.71C63.2631 14.5451 63.3903 14.4064 63.5474 14.3093C63.7045 14.2123 63.8854 14.1606 64.07 14.16H73.77C74.0231 12.3656 74.9473 10.7339 76.356 9.59397C77.7648 8.45405 79.5534 7.89072 81.3611 8.01758C83.1688 8.14444 84.8612 8.95205 86.097 10.2776C87.3327 11.6031 88.0199 13.3478 88.0199 15.16C88.0199 16.9722 87.3327 18.717 86.097 20.0425C84.8612 21.368 83.1688 22.1756 81.3611 22.3024C79.5534 22.4293 77.7648 21.866 76.356 20.7261C74.9473 19.5861 74.0231 17.9544 73.77 16.16H64.6901L58.84 28C62.2904 29.874 65.1975 32.6083 67.2791 35.9375C69.3607 39.2666 70.546 43.0775 70.7201 47H73.72C73.9731 45.2056 74.8972 43.5739 76.306 42.434C77.7148 41.294 79.5034 40.7307 81.3111 40.8576C83.1188 40.9844 84.8112 41.7921 86.047 43.1176C87.2827 44.4431 87.9699 46.1878 87.9699 48C87.9699 49.8122 87.2827 51.557 86.047 52.8825C84.8112 54.208 83.1188 55.0156 81.3111 55.1424C79.5034 55.2693 77.7148 54.706 76.306 53.5661C74.8972 52.4261 73.9731 50.7944 73.72 49ZM83.7095 10.8648C82.8596 10.299 81.861 9.99803 80.84 10C79.4733 10.0027 78.1634 10.5475 77.1978 11.5149C76.2323 12.4823 75.69 13.7932 75.69 15.16C75.69 16.181 75.9929 17.179 76.5604 18.0278C77.1278 18.8766 77.9343 19.5379 78.8777 19.9282C79.8212 20.3184 80.8592 20.42 81.8604 20.2201C82.8616 20.0202 83.781 19.5278 84.5023 18.8051C85.2235 18.0825 85.7141 17.1621 85.9121 16.1605C86.1101 15.1589 86.0065 14.1211 85.6144 13.1784C85.2223 12.2357 84.5594 11.4305 83.7095 10.8648ZM12.2895 19.4446C13.1396 20.0108 14.1386 20.312 15.16 20.31C16.5251 20.3074 17.8335 19.7639 18.7987 18.7987C19.764 17.8335 20.3074 16.5251 20.31 15.16C20.312 14.1386 20.0108 13.1396 19.4446 12.2895C18.8784 11.4394 18.0726 10.7765 17.1293 10.3847C16.186 9.99293 15.1477 9.8899 14.1458 10.0887C13.144 10.2875 12.2236 10.7791 11.5014 11.5014C10.7791 12.2236 10.2875 13.1439 10.0887 14.1458C9.88994 15.1477 9.99297 16.186 10.3848 17.1293C10.7765 18.0726 11.4395 18.8783 12.2895 19.4446ZM12.2906 85.1353C13.1405 85.701 14.1391 86.002 15.16 86C16.5268 85.9974 17.8367 85.4526 18.8023 84.4852C19.7678 83.5178 20.3101 82.2068 20.31 80.84C20.31 79.819 20.0072 78.821 19.4397 77.9722C18.8723 77.1235 18.0658 76.4621 17.1224 76.0718C16.1789 75.6816 15.1409 75.58 14.1397 75.7799C13.1385 75.9798 12.2191 76.4723 11.4978 77.1949C10.7766 77.9175 10.2859 78.8379 10.088 79.8395C9.89001 80.8411 9.99362 81.8789 10.3857 82.8216C10.7778 83.7643 11.4407 84.5695 12.2906 85.1353ZM83.7105 76.5555C82.8605 75.9892 81.8614 75.688 80.84 75.69C79.475 75.6927 78.1666 76.2361 77.2014 77.2013C76.2361 78.1666 75.6927 79.475 75.69 80.84C75.6881 81.8614 75.9893 82.8604 76.5555 83.7105C77.1217 84.5606 77.9275 85.2235 78.8708 85.6153C79.814 86.0071 80.8524 86.1101 81.8543 85.9113C82.8561 85.7126 83.7765 85.2209 84.4987 84.4987C85.221 83.7764 85.7126 82.8561 85.9114 81.8542C86.1102 80.8524 86.0071 79.814 85.6153 78.8707C85.2236 77.9275 84.5606 77.1217 83.7105 76.5555ZM83.7095 43.7048C82.8596 43.139 81.861 42.838 80.84 42.84C79.4741 42.8453 78.1657 43.3909 77.2008 44.3578C76.2358 45.3246 75.6927 46.634 75.69 48C75.69 49.021 75.9929 50.019 76.5604 50.8678C77.1278 51.7166 77.9343 52.3779 78.8777 52.7682C79.8212 53.1584 80.8592 53.26 81.8604 53.0601C82.8616 52.8602 83.781 52.3678 84.5023 51.6451C85.2235 50.9225 85.7141 50.0021 85.9121 49.0005C86.1101 47.9989 86.0065 46.9611 85.6144 46.0184C85.2223 45.0757 84.5594 44.2705 83.7095 43.7048ZM12.2906 52.2953C13.1405 52.861 14.1391 53.162 15.16 53.16C16.526 53.1547 17.8344 52.6091 18.7993 51.6422C19.7643 50.6754 20.3074 49.366 20.31 48C20.31 46.979 20.0072 45.981 19.4397 45.1322C18.8723 44.2835 18.0658 43.6221 17.1224 43.2318C16.1789 42.8416 15.1409 42.74 14.1397 42.9399C13.1385 43.1398 12.2191 43.6322 11.4978 44.3549C10.7766 45.0775 10.2859 45.9979 10.088 46.9995C9.89001 48.0011 9.99362 49.0389 10.3857 49.9816C10.7778 50.9243 11.4407 51.7295 12.2906 52.2953ZM36.472 65.253C39.8843 67.533 43.8961 68.75 48 68.75C53.5009 68.7421 58.7741 66.5534 62.6638 62.6637C66.5534 58.7741 68.7421 53.5008 68.75 48C68.75 43.896 67.5331 39.8842 65.253 36.4719C62.973 33.0596 59.7323 30.4 55.9407 28.8295C52.1492 27.259 47.977 26.8481 43.9519 27.6487C39.9268 28.4494 36.2295 30.4256 33.3276 33.3275C30.4256 36.2295 28.4494 39.9268 27.6488 43.9519C26.8481 47.977 27.259 52.1491 28.8295 55.9407C30.4001 59.7323 33.0596 62.973 36.472 65.253ZM37.5955 40.0425C37.3306 39.3801 37.1321 38.6956 37 38H42.6062L42.6137 38.0176C43.23 39.4262 44.2865 40.4827 45.6071 41.0109C47.72 41.8033 50.009 41.3631 51.6818 39.8664C52.21 39.3382 52.6502 38.81 52.9143 38.1056C52.9297 38.0705 52.9446 38.0353 52.9592 38H58.528C58.396 38.6956 58.1975 39.3801 57.9325 40.0425C57.4923 41.2751 56.7 42.4196 55.7316 43.388C54.7631 44.3564 53.5306 45.0607 52.21 45.589C50.7574 46.1172 49.2387 46.3813 47.731 46.3813C46.2233 46.3813 44.7267 46.1172 43.318 45.589C40.7649 44.6205 38.652 42.5956 37.5955 40.0425ZM37 58H42.6062L42.6137 57.9824C43.23 56.5738 44.2865 55.5173 45.6071 54.9891C47.72 54.1967 50.009 54.6369 51.6818 56.1336C52.21 56.6618 52.6502 57.19 52.9143 57.8944C52.9297 57.9295 52.9446 57.9647 52.9592 58H58.528C58.396 57.3044 58.1975 56.6199 57.9325 55.9575C57.4923 54.7249 56.7 53.5804 55.7316 52.612C54.7631 51.6436 53.5306 50.9393 52.21 50.411C50.7574 49.8828 49.2387 49.6187 47.731 49.6187C46.2233 49.6187 44.7267 49.8828 43.318 50.411C40.7649 51.3795 38.652 53.4044 37.5955 55.9575C37.3306 56.6199 37.1321 57.3044 37 58Z" fill="#01645A"/>
</svg>
