<svg width="96" height="96" viewBox="0 0 96 96" fill="none" xmlns="http://www.w3.org/2000/svg">
<path d="M22 65.8H43.81C44.0752 65.8 44.3296 65.9053 44.5171 66.0929C44.7046 66.2804 44.81 66.5348 44.81 66.8C44.81 67.0652 44.7046 67.3196 44.5171 67.5071C44.3296 67.6946 44.0752 67.8 43.81 67.8H22C21.7348 67.8 21.4804 67.6946 21.2929 67.5071C21.1054 67.3196 21 67.0652 21 66.8C21 66.5348 21.1054 66.2804 21.2929 66.0929C21.4804 65.9053 21.7348 65.8 22 65.8Z" fill="#01645A"/>
<path fill-rule="evenodd" clip-rule="evenodd" d="M43.2599 34.52L36.7899 33.58L33.8999 27.72C33.818 27.5509 33.6902 27.4083 33.531 27.3086C33.3718 27.2088 33.1877 27.1559 32.9999 27.1559C32.812 27.1559 32.628 27.2088 32.4688 27.3086C32.3096 27.4083 32.1818 27.5509 32.0999 27.72L29.2099 33.58L22.7399 34.52C22.5539 34.5453 22.3787 34.6225 22.2345 34.7427C22.0903 34.8629 21.9828 35.0212 21.9244 35.1996C21.866 35.378 21.859 35.5693 21.9041 35.7515C21.9493 35.9337 22.0449 36.0995 22.1799 36.23L26.8699 40.79L25.7599 47.24C25.7242 47.4275 25.7429 47.6213 25.8138 47.7984C25.8846 47.9756 26.0047 48.1289 26.1599 48.24C26.3111 48.3481 26.4895 48.4119 26.6749 48.4243C26.8604 48.4366 27.0457 48.3971 27.2099 48.31L32.9999 45.31L38.7899 48.31C38.9302 48.3892 39.0887 48.4305 39.2499 48.43C39.4617 48.4307 39.6683 48.3642 39.8399 48.24C39.995 48.1289 40.1151 47.9756 40.186 47.7984C40.2569 47.6213 40.2756 47.4275 40.2399 47.24L39.1299 40.79L43.8199 36.23C43.9549 36.0995 44.0504 35.9337 44.0956 35.7515C44.1408 35.5693 44.1338 35.378 44.0754 35.1996C44.0169 35.0212 43.9095 34.8629 43.7652 34.7427C43.621 34.6225 43.4459 34.5453 43.2599 34.52ZM37.3599 39.73C37.2441 39.8424 37.1573 39.9811 37.1068 40.1344C37.0563 40.2876 37.0436 40.4508 37.0699 40.61L37.9299 45.61L33.4599 43.27C33.3194 43.1912 33.161 43.1498 32.9999 43.1497C32.8388 43.1498 32.6804 43.1912 32.5399 43.27L28.0699 45.61L28.9299 40.61C28.9561 40.4508 28.9435 40.2876 28.893 40.1344C28.8425 39.9811 28.7556 39.8424 28.6399 39.73L24.9999 36.21L29.9999 35.49C30.1601 35.4659 30.3121 35.4033 30.4427 35.3075C30.5734 35.2117 30.6788 35.0856 30.7499 34.94L32.9999 30.42L35.2299 34.94C35.301 35.0856 35.4064 35.2117 35.5371 35.3075C35.6677 35.4033 35.8197 35.4659 35.9799 35.49L40.9799 36.21L37.3599 39.73Z" fill="#01645A"/>
<path fill-rule="evenodd" clip-rule="evenodd" d="M33 20C22.7827 20 14.5 28.2827 14.5 38.5C14.5 48.7173 22.7827 57 33 57C43.2173 57 51.5 48.7173 51.5 38.5C51.5 28.2827 43.2173 20 33 20ZM16.5 38.5C16.5 29.3873 23.8873 22 33 22C42.1127 22 49.5 29.3873 49.5 38.5C49.5 47.6127 42.1127 55 33 55C23.8873 55 16.5 47.6127 16.5 38.5Z" fill="#01645A"/>
<path fill-rule="evenodd" clip-rule="evenodd" d="M58 18.08H87C87.2652 18.08 87.5196 18.1854 87.7071 18.3729C87.8946 18.5604 88 18.8148 88 19.08V87C88 87.2652 87.8946 87.5196 87.7071 87.7071C87.5196 87.8946 87.2652 88 87 88H39C38.7348 88 38.4804 87.8946 38.2929 87.7071C38.1054 87.5196 38 87.2652 38 87V77.92H9C8.73478 77.92 8.48043 77.8146 8.29289 77.6271C8.10536 77.4396 8 77.1852 8 76.92V9C8 8.73478 8.10536 8.48043 8.29289 8.29289C8.48043 8.10536 8.73478 8 9 8H57C57.2652 8 57.5196 8.10536 57.7071 8.29289C57.8946 8.48043 58 8.73478 58 9V18.08ZM56 10H10V75.92H56V10ZM40 85.24L53.15 77.92H40V85.24ZM42.75 86H86V20.08H57.93V76.92C57.9357 76.9632 57.9357 77.0069 57.93 77.05C57.945 77.1158 57.945 77.1842 57.93 77.25C57.9114 77.3101 57.8845 77.3674 57.85 77.42C57.8228 77.4792 57.7855 77.5334 57.74 77.58C57.6911 77.6316 57.6376 77.6784 57.58 77.72C57.55 77.74 57.49 77.8 57.49 77.8L42.75 86Z" fill="#01645A"/>
</svg>
