<svg width="96" height="96" viewBox="0 0 96 96" fill="none" xmlns="http://www.w3.org/2000/svg">
<path d="M39.0561 64.0758C38.9343 64.026 38.8234 63.9527 38.73 63.86L25.1 50.23C25.0063 50.137 24.9319 50.0264 24.8811 49.9046C24.8303 49.7827 24.8042 49.652 24.8042 49.52C24.8042 49.388 24.8303 49.2573 24.8811 49.1354C24.9319 49.0136 25.0063 48.903 25.1 48.81C25.2874 48.6237 25.5408 48.5192 25.805 48.5192C26.0692 48.5192 26.3226 48.6237 26.51 48.81L39.44 61.74L67.35 33.83C67.5374 33.6438 67.7908 33.5392 68.055 33.5392C68.3192 33.5392 68.5726 33.6438 68.76 33.83C68.8537 33.923 68.9281 34.0336 68.9789 34.1554C69.0297 34.2773 69.0558 34.408 69.0558 34.54C69.0558 34.672 69.0297 34.8027 68.9789 34.9246C68.9281 35.0464 68.8537 35.157 68.76 35.25L40.15 63.86C40.0566 63.9527 39.9457 64.026 39.8239 64.0758C39.7021 64.1255 39.5716 64.1508 39.44 64.15C39.3084 64.1508 39.1779 64.1255 39.0561 64.0758Z" fill="#01645A"/>
<path fill-rule="evenodd" clip-rule="evenodd" d="M48 8C25.9086 8 8 25.9086 8 48C8 70.0914 25.9086 88 48 88C70.0914 88 88 70.0914 88 48C88 25.9086 70.0914 8 48 8ZM10 48C10 27.0132 27.0132 10 48 10C68.9868 10 86 27.0132 86 48C86 68.9868 68.9868 86 48 86C27.0132 86 10 68.9868 10 48Z" fill="#01645A"/>
</svg>
