<svg width="96" height="96" viewBox="0 0 96 96" fill="none" xmlns="http://www.w3.org/2000/svg">
<path fill-rule="evenodd" clip-rule="evenodd" d="M29.5 33.63H44.65C44.9152 33.63 45.1696 33.7354 45.3571 33.9229C45.5446 34.1104 45.65 34.3648 45.65 34.63V53.16C45.65 53.4252 45.5446 53.6796 45.3571 53.8671C45.1696 54.0546 44.9152 54.16 44.65 54.16H29.5C29.2348 54.16 28.9804 54.0546 28.7929 53.8671C28.6054 53.6796 28.5 53.4252 28.5 53.16V34.63C28.5 34.3648 28.6054 34.1104 28.7929 33.9229C28.9804 33.7354 29.2348 33.63 29.5 33.63ZM30.5 52.16H43.65V35.63H30.5V52.16Z" fill="#01645A"/>
<path d="M29.5 70.67H44.65C44.9152 70.67 45.1696 70.7754 45.3571 70.9629C45.5446 71.1504 45.65 71.4048 45.65 71.67C45.65 71.9352 45.5446 72.1896 45.3571 72.3771C45.1696 72.5646 44.9152 72.67 44.65 72.67H29.5C29.2348 72.67 28.9804 72.5646 28.7929 72.3771C28.6054 72.1896 28.5 71.9352 28.5 71.67C28.5 71.4048 28.6054 71.1504 28.7929 70.9629C28.9804 70.7754 29.2348 70.67 29.5 70.67Z" fill="#01645A"/>
<path d="M44.65 61.41H29.5C29.2348 61.41 28.9804 61.5154 28.7929 61.7029C28.6054 61.8904 28.5 62.1448 28.5 62.41C28.5 62.6752 28.6054 62.9296 28.7929 63.1171C28.9804 63.3046 29.2348 63.41 29.5 63.41H44.65C44.9152 63.41 45.1696 63.3046 45.3571 63.1171C45.5446 62.9296 45.65 62.6752 45.65 62.41C45.65 62.1448 45.5446 61.8904 45.3571 61.7029C45.1696 61.5154 44.9152 61.41 44.65 61.41Z" fill="#01645A"/>
<path d="M50.98 70.67H66.13C66.3952 70.67 66.6496 70.7754 66.8371 70.9629C67.0246 71.1504 67.13 71.4048 67.13 71.67C67.13 71.9352 67.0246 72.1896 66.8371 72.3771C66.6496 72.5646 66.3952 72.67 66.13 72.67H50.98C50.7148 72.67 50.4604 72.5646 50.2729 72.3771C50.0853 72.1896 49.98 71.9352 49.98 71.67C49.98 71.4048 50.0853 71.1504 50.2729 70.9629C50.4604 70.7754 50.7148 70.67 50.98 70.67Z" fill="#01645A"/>
<path d="M66.13 61.41H50.98C50.7148 61.41 50.4604 61.5154 50.2729 61.7029C50.0853 61.8904 49.98 62.1448 49.98 62.41C49.98 62.6752 50.0853 62.9296 50.2729 63.1171C50.4604 63.3046 50.7148 63.41 50.98 63.41H66.13C66.3952 63.41 66.6496 63.3046 66.8371 63.1171C67.0246 62.9296 67.13 62.6752 67.13 62.41C67.13 62.1448 67.0246 61.8904 66.8371 61.7029C66.6496 61.5154 66.3952 61.41 66.13 61.41Z" fill="#01645A"/>
<path d="M50.98 52.16H66.13C66.3952 52.16 66.6496 52.2654 66.8371 52.4529C67.0246 52.6404 67.13 52.8948 67.13 53.16C67.13 53.4252 67.0246 53.6796 66.8371 53.8671C66.6496 54.0546 66.3952 54.16 66.13 54.16H50.98C50.7148 54.16 50.4604 54.0546 50.2729 53.8671C50.0853 53.6796 49.98 53.4252 49.98 53.16C49.98 52.8948 50.0853 52.6404 50.2729 52.4529C50.4604 52.2654 50.7148 52.16 50.98 52.16Z" fill="#01645A"/>
<path d="M66.13 42.9H50.98C50.7148 42.9 50.4604 43.0053 50.2729 43.1929C50.0853 43.3804 49.98 43.6348 49.98 43.9C49.98 44.1652 50.0853 44.4196 50.2729 44.6071C50.4604 44.7946 50.7148 44.9 50.98 44.9H66.13C66.3952 44.9 66.6496 44.7946 66.8371 44.6071C67.0246 44.4196 67.13 44.1652 67.13 43.9C67.13 43.6348 67.0246 43.3804 66.8371 43.1929C66.6496 43.0053 66.3952 42.9 66.13 42.9Z" fill="#01645A"/>
<path d="M50.98 33.65H66.13C66.3952 33.65 66.6496 33.7554 66.8371 33.9429C67.0246 34.1304 67.13 34.3848 67.13 34.65C67.13 34.9152 67.0246 35.1696 66.8371 35.3571C66.6496 35.5446 66.3952 35.65 66.13 35.65H50.98C50.7148 35.65 50.4604 35.5446 50.2729 35.3571C50.0853 35.1696 49.98 34.9152 49.98 34.65C49.98 34.3848 50.0853 34.1304 50.2729 33.9429C50.4604 33.7554 50.7148 33.65 50.98 33.65Z" fill="#01645A"/>
<path fill-rule="evenodd" clip-rule="evenodd" d="M79.12 23.7V80.6C79.12 82.0322 78.5511 83.4057 77.5384 84.4184C76.5257 85.4311 75.1522 86 73.72 86H22.41C20.9778 86 19.6043 85.4311 18.5916 84.4184C17.5789 83.4057 17.01 82.0322 17.01 80.6V23.7C17.01 22.2669 17.5786 20.8924 18.591 19.8781C19.6034 18.8638 20.9769 18.2926 22.41 18.29H29.41C29.5739 16.6022 30.3598 15.0356 31.6148 13.8952C32.8698 12.7548 34.5042 12.122 36.2 12.12H38.68C39.1181 12.1289 39.5492 12.0096 39.9205 11.7769C40.2918 11.5442 40.587 11.2081 40.77 10.81C41.381 9.38284 42.3975 8.16641 43.6934 7.31156C44.9893 6.4567 46.5076 6.00102 48.06 6.00102C49.6125 6.00102 51.1308 6.4567 52.4267 7.31156C53.7225 8.16641 54.739 9.38284 55.35 10.81C55.533 11.2081 55.8282 11.5442 56.1995 11.7769C56.5708 12.0096 57.0019 12.1289 57.44 12.12H59.93C61.6258 12.122 63.2602 12.7548 64.5152 13.8952C65.7702 15.0356 66.5561 16.6022 66.72 18.29H73.72C75.1531 18.2926 76.5266 18.8638 77.539 19.8781C78.5514 20.8924 79.12 22.2669 79.12 23.7ZM32.7847 15.5847C31.8789 16.4905 31.37 17.719 31.37 19V22.42H64.75V19C64.75 17.719 64.2411 16.4905 63.3353 15.5847C62.4295 14.6789 61.201 14.17 59.92 14.17H57.44C56.6114 14.1813 55.7977 13.9483 55.1006 13.5002C54.4035 13.052 53.8538 12.4085 53.52 11.65C53.0622 10.5813 52.3008 9.67053 51.3302 9.03047C50.3597 8.3904 49.2226 8.04923 48.06 8.04923C46.8974 8.04923 45.7604 8.3904 44.7898 9.03047C43.8192 9.67053 43.0579 10.5813 42.6 11.65C42.2662 12.4085 41.7165 13.052 41.0194 13.5002C40.3223 13.9483 39.5087 14.1813 38.68 14.17H36.2C34.919 14.17 33.6905 14.6789 32.7847 15.5847ZM76.1242 83.0042C76.7618 82.3665 77.12 81.5017 77.12 80.6L77.15 23.7C77.15 22.7973 76.7921 21.9315 76.1548 21.2923C75.5174 20.6531 74.6527 20.2926 73.75 20.29H66.75V23.37C66.75 23.6352 66.6447 23.8896 66.4571 24.0771C66.2696 24.2646 66.0152 24.37 65.75 24.37H30.4C30.1348 24.37 29.8804 24.2646 29.6929 24.0771C29.5054 23.8896 29.4 23.6352 29.4 23.37V20.29H22.4C21.4974 20.2926 20.6326 20.6531 19.9952 21.2923C19.3579 21.9315 19 22.7973 19 23.7V80.6C19 81.5017 19.3582 82.3665 19.9958 83.0042C20.6335 83.6418 21.4983 84 22.4 84H73.72C74.6217 84 75.4865 83.6418 76.1242 83.0042Z" fill="#01645A"/>
</svg>
