<svg width="96" height="96" viewBox="0 0 96 96" fill="none" xmlns="http://www.w3.org/2000/svg">
<path d="M24.7499 67.26C24.495 65.1315 23.4369 63.1806 21.7918 61.8061C20.1466 60.4316 18.0387 59.7373 15.8987 59.8649C13.7588 59.9926 11.7483 60.9327 10.2783 62.493C8.80828 64.0534 7.98961 66.1162 7.98961 68.26C7.98961 70.4038 8.80828 72.4666 10.2783 74.027C11.7483 75.5873 13.7588 76.5274 15.8987 76.6551C18.0387 76.7828 20.1466 76.0884 21.7918 74.7139C23.4369 73.3394 24.495 71.3886 24.7499 69.26H30.3499C30.6152 69.26 30.8695 69.1547 31.0571 68.9671C31.2446 68.7796 31.3499 68.5252 31.3499 68.26V55.73H46.9999V71.25C44.8714 71.5049 42.9205 72.5631 41.546 74.2082C40.1716 75.8533 39.4772 77.9613 39.6049 80.1012C39.7326 82.2412 40.6726 84.2516 42.233 85.7216C43.7933 87.1917 45.8562 88.0103 47.9999 88.0103C50.1437 88.0103 52.2066 87.1917 53.7669 85.7216C55.3273 84.2516 56.2673 82.2412 56.395 80.1012C56.5227 77.9613 55.8283 75.8533 54.4538 74.2082C53.0794 72.5631 51.1285 71.5049 48.9999 71.25V55.73H64.6499V74.85C64.6499 75.1152 64.7553 75.3696 64.9428 75.5571C65.1304 75.7447 65.3847 75.85 65.6499 75.85H71.2499C71.5048 77.9759 72.5619 79.9242 74.2052 81.2968C75.8484 82.6694 77.9538 83.3627 80.0911 83.2351C82.2284 83.1074 84.2363 82.1684 85.7044 80.6099C87.1726 79.0514 87.9902 76.9911 87.9902 74.85C87.9902 72.7089 87.1726 70.6486 85.7044 69.0901C84.2363 67.5316 82.2284 66.5926 80.0911 66.465C77.9538 66.3373 75.8484 67.0306 74.2052 68.4032C72.5619 69.7758 71.5048 71.7241 71.2499 73.85H66.6499V55.73H74.3499C74.4527 55.7461 74.5572 55.7461 74.66 55.73C78.3004 55.4743 81.7054 53.8365 84.1775 51.1518C86.6496 48.4672 88.0018 44.939 87.957 41.2899C87.9123 37.6407 86.4741 34.1467 83.9369 31.5235C81.3997 28.9003 77.9556 27.3464 74.3099 27.18C74.5208 26.1331 74.628 25.0679 74.6299 24C74.6002 20.3676 73.3352 16.8535 71.0432 14.0355C68.7512 11.2174 65.5684 9.26316 62.0183 8.49402C58.4682 7.72489 54.762 8.18666 51.5091 9.80342C48.2563 11.4202 45.6504 14.0957 44.1199 17.39C42.1244 16.1489 39.82 15.4939 37.4699 15.5C34.8391 15.4963 32.2719 16.309 30.1226 17.8261C27.9732 19.3432 26.3476 21.4899 25.4699 23.97C24.9719 23.9148 24.4711 23.888 23.9699 23.89C21.8424 23.8367 19.7257 24.2097 17.7446 24.9871C15.7635 25.7645 13.9579 26.9304 12.4343 28.4163C10.9108 29.9022 9.69994 31.678 8.87322 33.6391C8.04651 35.6001 7.62061 37.7068 7.62061 39.835C7.62061 41.9632 8.04651 44.0699 8.87322 46.0309C9.69994 47.992 10.9108 49.7678 12.4343 51.2537C13.9579 52.7396 15.7635 53.9056 17.7446 54.6829C19.7257 55.4603 21.8424 55.8333 23.9699 55.78H29.3099V67.26H24.7499ZM16.4099 74.67C15.1417 74.672 13.9015 74.2977 12.846 73.5946C11.7906 72.8915 10.9674 71.891 10.4808 70.7199C9.99406 69.5489 9.8657 68.2597 10.1119 67.0156C10.3581 65.7715 10.9678 64.6285 11.8639 63.731C12.7599 62.8335 13.902 62.2221 15.1457 61.9739C16.3894 61.7258 17.6788 61.8521 18.8506 62.337C20.0225 62.8219 21.0242 63.6434 21.729 64.6978C22.4338 65.7521 22.8099 66.9918 22.8099 68.26C22.8099 69.9583 22.136 71.5872 20.936 72.789C19.7361 73.9909 18.1083 74.6674 16.4099 74.67ZM54.41 79.59C54.4119 80.8582 54.0377 82.0985 53.3345 83.1539C52.6314 84.2094 51.631 85.0325 50.4599 85.5192C49.2888 86.0059 47.9996 86.1343 46.7556 85.8881C45.5115 85.6419 44.3684 85.0322 43.4709 84.1361C42.5735 83.24 41.962 82.0979 41.7139 80.8542C41.4657 79.6105 41.5921 78.3212 42.0769 77.1493C42.5618 75.9775 43.3834 74.9758 44.4377 74.271C45.492 73.5662 46.7317 73.19 47.9999 73.19C49.6974 73.1926 51.3248 73.8675 52.5261 75.0668C53.7273 76.2662 54.4047 77.8925 54.41 79.59ZM79.5899 68.45C80.8586 68.448 82.0993 68.8225 83.1549 69.5261C84.2106 70.2297 85.0337 71.2307 85.5201 72.4024C86.0065 73.5741 86.1343 74.8637 85.8873 76.1081C85.6403 77.3524 85.0295 78.4955 84.1325 79.3926C83.2354 80.2896 82.0924 80.9003 80.848 81.1473C79.6037 81.3943 78.314 81.2665 77.1423 80.7802C75.9706 80.2938 74.9696 79.4706 74.2661 78.415C73.5625 77.3593 73.188 76.1186 73.1899 74.85C73.1926 73.1534 73.8677 71.5271 75.0674 70.3274C76.267 69.1278 77.8934 68.4526 79.5899 68.45ZM9.99995 39.78C10.0158 36.0774 11.4978 32.5318 14.1216 29.9193C16.7454 27.3067 20.2973 25.84 23.9999 25.84C24.6895 25.8446 25.3779 25.8981 26.0599 26C26.3009 26.0358 26.5467 25.9824 26.751 25.8498C26.9554 25.7172 27.1044 25.5146 27.1699 25.28C27.6325 23.5874 28.5054 22.035 29.7112 20.7602C30.917 19.4855 32.4186 18.5279 34.083 17.9721C35.7473 17.4163 37.523 17.2796 39.2529 17.574C40.9827 17.8684 42.6132 18.5849 43.9999 19.66C44.1245 19.756 44.2699 19.8212 44.4244 19.8504C44.5789 19.8797 44.7381 19.8721 44.8891 19.8282C45.0401 19.7844 45.1786 19.7056 45.2935 19.5981C45.4083 19.4907 45.4962 19.3577 45.5499 19.21C46.8984 15.9513 49.4272 13.3215 52.6306 11.8465C55.8341 10.3714 59.4762 10.1597 62.829 11.2537C66.1817 12.3477 68.9981 14.6668 70.715 17.7474C72.432 20.828 72.923 24.4431 72.0899 27.87C72.0454 28.0223 72.0377 28.1831 72.0676 28.339C72.0974 28.4949 72.164 28.6414 72.2617 28.7665C72.3594 28.8915 72.4855 28.9916 72.6295 29.0582C72.7735 29.1249 72.9314 29.1564 73.0899 29.15H73.66C76.901 29.0889 80.035 30.3107 82.3794 32.5494C84.7238 34.7881 86.0889 37.8624 86.1772 41.1028C86.2656 44.3432 85.0701 47.4874 82.8512 49.8505C80.6322 52.2136 77.5695 53.6044 74.3299 53.72H23.9999C20.2973 53.72 16.7454 52.2533 14.1216 49.6407C11.4978 47.0282 10.0158 43.4826 9.99995 39.78Z" fill="#01645A"/>
</svg>
