<svg width="96" height="96" viewBox="0 0 96 96" fill="none" xmlns="http://www.w3.org/2000/svg">
<path fill-rule="evenodd" clip-rule="evenodd" d="M34.0934 8H61.5C64.8137 8 67.5 10.6863 67.5 14V48.0253C75.9165 50.7623 82 58.6707 82 68C82 79.598 72.598 89 61 89C52.8211 89 45.7342 84.3243 42.2666 77.5H20C16.6863 77.5 14 74.8137 14 71.5V27.5782L34.0934 8ZM41.3789 75.5C40.488 73.1708 40 70.6424 40 68C40 56.402 49.402 47 61 47C62.5446 47 64.0503 47.1668 65.5 47.4833V14C65.5 11.7909 63.7091 10 61.5 10H35.5V23C35.5 26.3137 32.8137 29 29.5 29H16V71.5C16 73.7091 17.7909 75.5 20 75.5H41.3789ZM33.5 11.3706L17.4593 27H29.5C31.7091 27 33.5 25.2091 33.5 23V11.3706ZM61 49C50.5066 49 42 57.5066 42 68C42 78.4934 50.5066 87 61 87C71.4934 87 80 78.4934 80 68C80 57.5066 71.4934 49 61 49ZM49.554 67.2435C50.3741 66.0579 51.6 65.2136 53 64.87C53.2295 63.239 54.0414 61.7462 55.2858 60.6672C56.5302 59.5882 58.123 58.996 59.77 59C61.1294 59.0041 62.4573 59.4097 63.587 60.1658C64.7168 60.9219 65.598 61.9949 66.12 63.25C66.9217 62.9306 67.7771 62.7677 68.64 62.77C69.5636 62.7348 70.4848 62.8862 71.3485 63.2153C72.2121 63.5445 73.0005 64.0445 73.6664 64.6854C74.3323 65.3264 74.862 66.0951 75.2238 66.9456C75.5856 67.796 75.7721 68.7108 75.7721 69.635C75.7721 70.5593 75.5856 71.474 75.2238 72.3245C74.862 73.1749 74.3323 73.9437 73.6664 74.5846C73.0005 75.2256 72.2121 75.7256 71.3485 76.0547C70.4848 76.3838 69.5636 76.5353 68.64 76.5H54.4C52.9584 76.4985 51.5672 75.9693 50.4892 75.0122C49.4111 74.0551 48.7207 72.7365 48.5484 71.3052C48.3761 69.8739 48.7338 68.429 49.554 67.2435ZM64.7618 65.3011C64.6609 65.1757 64.5916 65.0278 64.56 64.87L64.54 64.88C64.3146 63.7779 63.7161 62.7872 62.8453 62.075C61.9746 61.3628 60.885 60.9725 59.76 60.97C58.4893 60.9619 57.2666 61.4549 56.3568 62.3422C55.4471 63.2294 54.9237 64.4395 54.9 65.71C54.9013 65.9588 54.8098 66.1991 54.6433 66.384C54.4769 66.5689 54.2476 66.6851 54 66.71C52.9657 66.7631 51.9948 67.2248 51.3009 67.9937C50.607 68.7626 50.247 69.7757 50.3 70.81C50.3531 71.8444 50.8148 72.8153 51.5837 73.5092C52.3526 74.203 53.3657 74.5631 54.4 74.51H68.66C69.4092 74.5031 70.1467 74.3231 70.8148 73.984C71.4829 73.6449 72.0636 73.1559 72.5115 72.5553C72.9593 71.9546 73.2622 71.2586 73.3966 70.5215C73.5309 69.7844 73.4929 69.0262 73.2857 68.3062C73.0785 67.5862 72.7077 66.9238 72.2021 66.3708C71.6965 65.8179 71.07 65.3893 70.3713 65.1186C69.6727 64.8479 68.921 64.7423 68.1748 64.8102C67.4287 64.8781 66.7083 65.1176 66.07 65.51C65.9332 65.598 65.777 65.6512 65.6149 65.6652C65.4529 65.6791 65.2899 65.6533 65.14 65.59C64.9925 65.5255 64.8628 65.4264 64.7618 65.3011Z" fill="#01645A"/>
</svg>
