<svg width="96" height="96" viewBox="0 0 96 96" fill="none" xmlns="http://www.w3.org/2000/svg">
<path d="M51 35C50.4477 35 50 35.4477 50 36C50 36.5523 50.4477 37 51 37H66.5C67.0523 37 67.5 36.5523 67.5 36C67.5 35.4477 67.0523 35 66.5 35H51Z" fill="#01645A"/>
<path d="M50 29C50 28.4477 50.4477 28 51 28H72.5C73.0523 28 73.5 28.4477 73.5 29C73.5 29.5523 73.0523 30 72.5 30H51C50.4477 30 50 29.5523 50 29Z" fill="#01645A"/>
<path d="M51 20C50.4477 20 50 20.4477 50 21C50 21.5523 50.4477 22 51 22H72.5C73.0523 22 73.5 21.5523 73.5 21C73.5 20.4477 73.0523 20 72.5 20H51Z" fill="#01645A"/>
<path fill-rule="evenodd" clip-rule="evenodd" d="M48.6316 45.2105C47.4737 45.2105 46.3815 44.9294 45.4195 44.4317C45.0808 45.6457 44.7092 46.8502 44.3521 47.9452C43.9354 49.2227 44.4993 50.581 45.5704 51.1612C45.9486 51.3661 46.3691 51.5314 46.8487 51.7183L46.8563 51.7213C47.6034 52.0124 49.2681 52.5428 52.7245 53.2451C53.3086 53.3638 53.8807 53.4576 54.4368 53.5304C56.6174 53.8157 58.6668 55.0402 60.034 56.702C61.404 58.3672 62.1687 60.581 61.539 62.8266L57.0826 78.7193C56.1571 82.02 53.2238 84.3795 49.774 84.4789C45.4449 84.6035 39.1519 84.6797 34.618 84.2816C31.1279 83.9752 28.8439 82.9801 27.368 81.8986C27.1371 81.7294 26.9273 81.559 26.7368 81.3902V82.079C26.7368 83.4597 25.6176 84.579 24.2368 84.579H17.5C16.1193 84.579 15 83.4597 15 82.079V51.6754C15 50.2947 16.1193 49.1755 17.5 49.1755H24.2368C25.6176 49.1755 26.7368 50.2947 26.7368 51.6755V52.3319C27.1093 52.0625 27.502 51.7869 27.9015 51.5065C28.0307 51.4158 28.1606 51.3247 28.2908 51.233C29.261 50.5501 30.2748 49.8224 31.2359 49.0202C33.1746 47.4023 34.781 45.5757 35.3654 43.3985C36.4378 39.4038 36.8766 35.6179 37.0136 33.357C37.0928 32.0498 38.3619 30.9054 39.8023 31.389C40.4103 31.5931 41.0283 31.8411 41.6316 32.133V18C41.6316 14.134 44.7656 11 48.6316 11H76C79.866 11 83 14.134 83 18V38.2105C83 42.0765 79.866 45.2105 76 45.2105H70.6276C70.4865 47.4023 70.4356 49.9625 70.7166 51.9683C70.8157 52.675 70.5527 53.3496 70.0932 53.7991C69.6228 54.2592 68.8972 54.5209 68.1325 54.2731C62.7819 52.5391 60.5301 48.6686 59.8091 45.2105H48.6316ZM43.6316 18C43.6316 15.2386 45.8702 13 48.6316 13H76C78.7614 13 81 15.2386 81 18V38.2105C81 40.9719 78.7614 43.2105 76 43.2105H68.7719L68.6996 44.1323C68.5124 46.519 68.3824 49.7225 68.736 52.2459C68.739 52.2677 68.7369 52.2906 68.7286 52.3139C68.7226 52.331 68.7143 52.3454 68.7059 52.3564C63.8353 50.7601 62.0735 47.1511 61.6394 44.071L61.5181 43.2105H48.6316C47.642 43.2105 46.7195 42.923 45.9432 42.427C46.2311 41.2337 46.4603 40.0859 46.5836 39.0832C46.8336 37.052 45.9023 35.3703 44.5782 34.1129C44.2836 33.8332 43.9661 33.5705 43.6316 33.3248V18ZM39.0975 33.3014C39.056 33.3325 39.015 33.3938 39.0099 33.478C38.8667 35.8404 38.4119 39.764 37.2971 43.917C36.5512 46.6953 34.559 48.8519 32.5174 50.5557C31.4884 51.4145 30.4167 52.1824 29.442 52.8685C29.3069 52.9635 29.1743 53.0567 29.0441 53.148C28.2302 53.7195 27.5137 54.2225 26.9299 54.6926V78.466C27.0645 78.7514 27.4947 79.5119 28.5502 80.2854C29.6894 81.1202 31.6114 82.0099 34.7929 82.2893C39.1992 82.6762 45.3885 82.6043 49.7164 82.4797C52.2681 82.4062 54.4614 80.6597 55.1569 78.1793L59.6133 62.2867C60.0224 60.8279 59.56 59.2738 58.4895 57.9726C57.4161 56.6679 55.8117 55.7273 54.1774 55.5135C53.577 55.4349 52.9585 55.3336 52.3262 55.2051C48.8158 54.4918 47.0272 53.9344 46.1301 53.5848L46.0979 53.5722C45.6446 53.3956 45.1157 53.1895 44.6178 52.9198C42.671 51.8652 41.7441 49.4915 42.4507 47.325C43.3589 44.5403 44.3091 41.1921 44.5986 38.839C44.7472 37.631 44.2284 36.5389 43.201 35.5632C42.163 34.5774 40.68 33.7933 39.1657 33.285C39.1495 33.2795 39.1422 33.2806 39.138 33.2814C39.1315 33.2826 39.1169 33.2869 39.0975 33.3014ZM17.5 51.1755C17.2239 51.1755 17 51.3993 17 51.6754V82.079C17 82.3551 17.2239 82.579 17.5 82.579H24.2368C24.513 82.579 24.7368 82.3551 24.7368 82.079V51.6755C24.7368 51.3993 24.513 51.1755 24.2368 51.1755H17.5Z" fill="#01645A"/>
</svg>
