<svg width="96" height="96" viewBox="0 0 96 96" fill="none" xmlns="http://www.w3.org/2000/svg">
<path fill-rule="evenodd" clip-rule="evenodd" d="M34.48 80C35.2594 79.9901 36.0186 79.7498 36.6617 79.3094C37.3049 78.869 37.8034 78.2481 38.0944 77.5249C38.3854 76.8018 38.4559 76.0087 38.2971 75.2455C38.1383 74.4823 37.7572 73.7832 37.2019 73.2362C36.6465 72.6892 35.9417 72.3187 35.1762 72.1714C34.4108 72.0242 33.6188 72.1067 32.9001 72.4086C32.1815 72.7105 31.5682 73.2183 31.1375 73.8681C30.7069 74.5178 30.4781 75.2805 30.48 76.06C30.4813 76.5821 30.5861 77.0988 30.7883 77.5802C30.9905 78.0615 31.2861 78.498 31.6581 78.8644C32.0301 79.2308 32.471 79.5198 32.9553 79.7147C33.4397 79.9097 33.9579 80.0066 34.48 80ZM34.48 74.11C34.8612 74.1199 35.2312 74.2414 35.5441 74.4594C35.857 74.6774 36.0991 74.9824 36.2404 75.3366C36.3818 75.6908 36.4162 76.0786 36.3394 76.4522C36.2625 76.8257 36.0779 77.1685 35.8082 77.4382C35.5385 77.7079 35.1957 77.8925 34.8222 77.9694C34.4486 78.0462 34.0608 78.0118 33.7066 77.8704C33.3524 77.7291 33.0474 77.487 32.8294 77.1741C32.6114 76.8612 32.4899 76.4912 32.48 76.11C32.4744 75.8468 32.5225 75.5851 32.6213 75.3411C32.7201 75.097 32.8676 74.8756 33.0547 74.6904C33.2418 74.5051 33.4647 74.3599 33.7097 74.2636C33.9547 74.1672 34.2168 74.1218 34.48 74.13V74.11Z" fill="#01645A"/>
<path fill-rule="evenodd" clip-rule="evenodd" d="M72.2023 84.2059C71.5445 84.6454 70.7711 84.88 69.98 84.88C68.9191 84.88 67.9017 84.4586 67.1516 83.7084C66.4014 82.9583 65.98 81.9409 65.98 80.88C65.98 80.0889 66.2146 79.3155 66.6541 78.6577C67.0936 77.9999 67.7183 77.4872 68.4492 77.1845C69.1802 76.8817 69.9844 76.8025 70.7603 76.9569C71.5363 77.1112 72.249 77.4922 72.8084 78.0516C73.3678 78.611 73.7488 79.3237 73.9031 80.0996C74.0575 80.8756 73.9782 81.6798 73.6755 82.4107C73.3727 83.1416 72.8601 83.7664 72.2023 84.2059ZM71.0911 79.2171C70.7622 78.9973 70.3755 78.88 69.98 78.88V78.92C69.4564 78.9199 68.9537 79.1251 68.5797 79.4916C68.2058 79.8581 67.9905 80.3565 67.98 80.88C67.98 81.2756 68.0973 81.6623 68.317 81.9911C68.5368 82.3201 68.8492 82.5764 69.2146 82.7278C69.5801 82.8791 69.9822 82.9187 70.3702 82.8416C70.7581 82.7644 71.1145 82.5739 71.3942 82.2942C71.6739 82.0145 71.8644 81.6581 71.9416 81.2702C72.0187 80.8822 71.9791 80.4801 71.8277 80.1146C71.6764 79.7492 71.42 79.4368 71.0911 79.2171Z" fill="#01645A"/>
<path fill-rule="evenodd" clip-rule="evenodd" d="M83.26 23.63H60.96V13.12C60.9574 11.7629 60.4171 10.4621 59.4575 9.50253C58.4979 8.54292 57.1971 8.00264 55.84 8H13.12C11.7629 8.00264 10.4621 8.54292 9.50253 9.50253C8.54292 10.4621 8.00264 11.7629 8 13.12V78.6C8.00265 79.9562 8.54324 81.2559 9.50314 82.2139C10.463 83.1719 11.7638 83.71 13.12 83.71H52.24C52.2916 84.8675 52.7887 85.9603 53.6274 86.7599C54.466 87.5594 55.5813 88.0037 56.74 88H83.26C84.4473 87.9974 85.5853 87.5245 86.4249 86.6849C87.2645 85.8453 87.7374 84.7074 87.74 83.52V28.11C87.7374 26.9226 87.2645 25.7847 86.4249 24.9451C85.5853 24.1055 84.4473 23.6326 83.26 23.63ZM10 13.12C10 12.7103 10.0807 12.3046 10.2375 11.926C10.3943 11.5475 10.6241 11.2035 10.9138 10.9138C11.2035 10.6241 11.5475 10.3943 11.926 10.2375C12.3046 10.0807 12.7103 10 13.12 10H55.84C56.6675 10 57.4611 10.3287 58.0462 10.9138C58.6313 11.4989 58.96 12.2925 58.96 13.12V16.59H9.96L10 13.12ZM52.22 81.71H13.12C12.2943 81.71 11.5022 81.3827 10.9174 80.7997C10.3325 80.2168 10.0026 79.4257 10 78.6V70.11H52.22V81.71ZM52.22 28.11V68.11H10V18.59H59V23.59H56.74C56.1453 23.586 55.5558 23.7002 55.0056 23.9259C54.4554 24.1517 53.9555 24.4845 53.535 24.905C53.1145 25.3255 52.7817 25.8254 52.5559 26.3756C52.3302 26.9258 52.216 27.5153 52.22 28.11ZM85.74 83.52C85.74 84.1777 85.4787 84.8085 85.0136 85.2736C84.5485 85.7387 83.9177 86 83.26 86H56.74C56.0813 86 55.4495 85.739 54.9828 85.2742C54.5161 84.8094 54.2526 84.1786 54.25 83.52V75.52H85.74V83.52ZM85.74 73.52H54.22V32.89H85.74V73.52ZM85.74 30.85H54.22V28.11C54.22 27.7809 54.2854 27.4551 54.4125 27.1516C54.5397 26.8481 54.7259 26.5729 54.9605 26.3421C55.195 26.1113 55.4731 25.9294 55.7787 25.8072C56.0842 25.6849 56.411 25.6247 56.74 25.63H83.25C83.5765 25.6287 83.9001 25.6919 84.2021 25.8159C84.5042 25.9399 84.7787 26.1224 85.0101 26.3528C85.2414 26.5833 85.425 26.8571 85.5503 27.1586C85.6755 27.4602 85.74 27.7835 85.74 28.11V30.85Z" fill="#01645A"/>
</svg>
