<svg width="96" height="96" viewBox="0 0 96 96" fill="none" xmlns="http://www.w3.org/2000/svg">
<path fill-rule="evenodd" clip-rule="evenodd" d="M77.2457 24.9398L87.8257 40.6498C87.903 40.7567 87.9583 40.8778 87.9885 41.0062C88.0188 41.1345 88.0234 41.2676 88.002 41.3977C87.9806 41.5278 87.9337 41.6524 87.864 41.7643C87.7943 41.8763 87.7031 41.9733 87.5957 42.0498L80.9957 47.2898C81.7019 48.0099 82.1906 48.9145 82.4057 49.8998C82.5431 50.6828 82.5072 51.4864 82.3005 52.2541C82.0938 53.0217 81.7214 53.7347 81.2095 54.3429C80.6976 54.9511 80.0586 55.4398 79.3375 55.7744C78.6164 56.109 77.8307 56.2816 77.0357 56.2798C76.0587 56.2762 75.1011 56.0065 74.2657 55.4998C74.3915 56.8517 74.0033 58.2014 73.1787 59.2799C72.354 60.3585 71.1533 61.0868 69.8157 61.3198C69.4858 61.3788 69.1509 61.4056 68.8157 61.3998C68.1658 61.3956 67.5221 61.2736 66.9157 61.0398C67.0854 62.4184 66.7193 63.8094 65.8931 64.9259C65.0669 66.0424 63.8436 66.7991 62.4757 67.0398C62.1451 67.0934 61.8107 67.1201 61.4757 67.1198C60.6121 67.1185 59.7614 66.9093 58.9957 66.5098C59.0748 67.2666 58.9928 68.0316 58.7551 68.7545C58.5173 69.4773 58.1292 70.1416 57.6162 70.7036C57.1033 71.2657 56.4772 71.7128 55.779 72.0155C55.0809 72.3182 54.3266 72.4696 53.5657 72.4598C52.4499 72.4602 51.3622 72.1105 50.4557 71.4598L46.7557 68.8798L45.2257 71.0198C44.3862 72.1929 43.1159 72.9853 41.6932 73.2233C40.2704 73.4614 38.8114 73.1257 37.6357 72.2898C37.0505 71.8763 36.5537 71.3502 36.1742 70.7424C35.7948 70.1346 35.5403 69.4572 35.4257 68.7498C35.42 68.7235 35.42 68.6962 35.4257 68.6698C34.5802 69.1785 33.6125 69.4481 32.6257 69.4498C31.3393 69.4507 30.0944 68.9947 29.1127 68.1633C28.1311 67.3318 27.4766 66.1789 27.2657 64.9098C27.2126 64.6028 27.1892 64.2914 27.1957 63.9798C26.6138 64.183 26.0021 64.2877 25.3857 64.2898C24.5776 64.289 23.7799 64.1082 23.0504 63.7604C22.3209 63.4127 21.6781 62.9068 21.1686 62.2795C20.6591 61.6523 20.2958 60.9194 20.105 60.1341C19.9143 59.3488 19.9008 58.5309 20.0657 57.7398H19.9857C19.6851 57.7917 19.3808 57.8184 19.0757 57.8198C18.0777 57.8143 17.1005 57.5348 16.2504 57.0119C15.4004 56.489 14.7103 55.7427 14.2553 54.8544C13.8003 53.9662 13.598 52.9701 13.6704 51.9747C13.7428 50.9793 14.0871 50.0229 14.6657 49.2098L15.9957 47.3398L8.42572 42.0298C8.21254 41.8803 8.06609 41.6535 8.01754 41.3976C7.96899 41.1418 8.02215 40.8771 8.16572 40.6598L18.6557 25.0198C18.73 24.9101 18.8253 24.8162 18.9361 24.7437C19.0469 24.6711 19.1711 24.6212 19.3013 24.5971C19.4316 24.5729 19.5654 24.5748 19.6949 24.6027C19.8244 24.6307 19.947 24.6841 20.0557 24.7598L22.4057 26.4098C24.8657 28.1298 29.7157 27.3598 33.1657 25.9098L37.7457 23.9898C39.3742 23.3099 41.1262 22.9756 42.8907 23.0083C44.6551 23.041 46.3935 23.44 47.9957 24.1798C49.595 23.436 51.3322 23.0349 53.0956 23.0022C54.8591 22.9695 56.61 23.3059 58.2357 23.9898L62.8157 25.8698C66.2157 27.2898 71.0057 28.0298 73.4957 26.2898L75.8457 24.6798C75.9553 24.6038 76.079 24.5505 76.2095 24.523C76.3401 24.4956 76.4748 24.4945 76.6057 24.5198C76.7347 24.5444 76.8577 24.5941 76.9675 24.6662C77.0773 24.7382 77.1719 24.8312 77.2457 24.9398ZM18.3252 55.7281C18.7648 55.8312 19.2206 55.8454 19.6657 55.7698C20.1237 55.7037 20.5636 55.5456 20.9588 55.305C21.3541 55.0644 21.6966 54.7463 21.9657 54.3698L22.9657 52.9298L23.9657 51.4798C24.4938 50.7364 24.7061 49.8142 24.5561 48.9148C24.4062 48.0153 23.9063 47.2118 23.1657 46.6798C22.4223 46.1518 21.5001 45.9395 20.6007 46.0894C19.7012 46.2393 18.8977 46.7392 18.3657 47.4798L16.2957 50.3698C16.0335 50.7381 15.8464 51.1544 15.7451 51.5951C15.6439 52.0357 15.6305 52.4919 15.7058 52.9377C15.781 53.3835 15.9433 53.8101 16.1836 54.1931C16.4238 54.5761 16.7371 54.908 17.1057 55.1698C17.471 55.4353 17.8856 55.6251 18.3252 55.7281ZM22.0053 59.4149C22.1552 60.3144 22.6551 61.1179 23.3957 61.6498C24.1391 62.1779 25.0613 62.3902 25.9608 62.2403C26.8602 62.0904 27.6638 61.5905 28.1957 60.8498L32.1357 55.2898C32.6662 54.5472 32.8799 53.6243 32.7298 52.7241C32.5798 51.824 32.0783 51.0203 31.3357 50.4898C30.5931 49.9594 29.6702 49.7457 28.77 49.8957C27.8699 50.0457 27.0662 50.5472 26.5357 51.2898L25.5957 52.6398L24.5957 54.0898L22.5957 56.8498C22.0677 57.5932 21.8554 58.5155 22.0053 59.4149ZM31.8506 67.3666C32.2922 67.468 32.7497 67.4793 33.1957 67.3998C33.6447 67.3365 34.0766 67.1846 34.4663 66.9528C34.856 66.721 35.1957 66.4141 35.4657 66.0498L36.3957 64.7398L37.3957 63.2898L39.3957 60.4898C39.6612 60.1246 39.851 59.71 39.954 59.2704C40.0571 58.8308 40.0712 58.375 39.9957 57.9298C39.8254 57.0429 39.316 56.2572 38.5757 55.7398C37.9927 55.322 37.293 55.0982 36.5757 55.0998C36.3827 55.085 36.1888 55.085 35.9957 55.0998C35.0977 55.2498 34.2958 55.7497 33.7657 56.4898L29.8257 62.0098C29.2977 62.7532 29.0854 63.6755 29.2353 64.5749C29.3852 65.4744 29.8851 66.2779 30.6257 66.8098C30.9924 67.0759 31.409 67.2653 31.8506 67.3666ZM41.3868 71.1253C42.2611 71.003 43.0552 70.5501 43.6057 69.8598L45.6557 66.9498C45.658 66.9266 45.658 66.9031 45.6557 66.8798C46.0299 66.3221 46.2326 65.6671 46.2388 64.9956C46.2451 64.324 46.0547 63.6653 45.6911 63.1007C45.3274 62.5361 44.8065 62.0903 44.1925 61.8183C43.5784 61.5462 42.8982 61.4599 42.2357 61.5698C41.3337 61.7229 40.5286 62.2261 39.9957 62.9698L38.9957 64.4098L37.9957 65.8598C37.5226 66.6052 37.3533 67.5036 37.5225 68.3701C37.6918 69.2366 38.1868 70.0052 38.9056 70.5177C39.6245 71.0303 40.5124 71.2477 41.3868 71.1253ZM77.5346 54.2114C78.4328 54.0538 79.2317 53.5461 79.7557 52.7998L79.7357 52.8098C80.2597 52.0616 80.4655 51.136 80.3081 50.2362C80.1506 49.3363 79.6427 48.5357 78.8957 48.0098L60.2957 34.9398C58.9616 34.0218 57.3802 33.5303 55.7607 33.5303C54.1412 33.5303 52.5599 34.0218 51.2257 34.9398L42.8557 40.7998C41.6729 41.6273 40.2097 41.951 38.7882 41.6997C37.3667 41.4484 36.1032 40.6427 35.2757 39.4598C34.4482 38.277 34.1246 36.8138 34.3759 35.3923C34.6272 33.9708 35.4329 32.7073 36.6157 31.8798L45.7557 25.4498C43.3702 24.7273 40.8079 24.8545 38.5057 25.8098L33.9257 27.7298C30.1457 29.3198 24.5657 30.3398 21.2557 28.0298L19.7357 26.9598L10.3557 40.9598L17.2057 45.7598C17.8958 45.0157 18.7812 44.4806 19.7609 44.2158C20.7407 43.951 21.7751 43.967 22.7461 44.2622C23.7171 44.5574 24.5855 45.1197 25.2521 45.8849C25.9187 46.6502 26.3566 47.5875 26.5157 48.5898V48.6698C27.343 48.1719 28.2881 47.9035 29.2537 47.8925C30.2192 47.8814 31.1702 48.128 32.0087 48.6069C32.8472 49.0857 33.5429 49.7795 34.024 50.6167C34.5051 51.4539 34.7542 52.4043 34.7457 53.3698C35.4936 53.0993 36.292 52.9973 37.0839 53.0711C37.8758 53.1449 38.6416 53.3927 39.3266 53.7968C40.0116 54.201 40.5988 54.7514 41.0464 55.4088C41.494 56.0662 41.7908 56.8144 41.9157 57.5998C42.0384 58.2609 42.0384 58.9388 41.9157 59.5998H41.9957C43.4008 59.3738 44.8384 59.7116 45.9957 60.5398C47.0196 61.2683 47.7614 62.3271 48.0965 63.5381C48.4316 64.7492 48.3395 66.0387 47.8357 67.1898L51.6157 69.7798C52.364 70.3038 53.2896 70.5097 54.1894 70.3522C55.0892 70.1947 55.8899 69.6868 56.4157 68.9398C56.9387 68.1903 57.1429 67.2639 56.9836 66.364C56.8242 65.4641 56.3143 64.6642 55.5657 64.1398L53.7157 62.8398L52.6557 62.1098L51.3357 61.1798C51.1201 61.0269 50.9739 60.7948 50.9289 60.5344C50.8839 60.2739 50.9439 60.0062 51.0957 59.7898C51.2471 59.5727 51.4785 59.4244 51.739 59.3775C51.9996 59.3306 52.2681 59.389 52.4857 59.5398L59.4857 64.4598C60.2329 64.9831 61.1574 65.1881 62.0557 65.0298C62.7243 64.9088 63.3422 64.5932 63.8321 64.1224C64.3219 63.6516 64.6618 63.0466 64.8092 62.3834C64.9566 61.7202 64.9049 61.0282 64.6605 60.3942C64.4162 59.7603 63.9901 59.2126 63.4357 58.8198L56.4357 53.8998C56.2185 53.7484 56.0703 53.5171 56.0234 53.2565C55.9765 52.9959 56.0349 52.7274 56.1857 52.5098C56.2607 52.4009 56.3566 52.3079 56.4678 52.2363C56.579 52.1647 56.7033 52.1158 56.8335 52.0926C56.9637 52.0693 57.0973 52.0721 57.2264 52.1008C57.3555 52.1296 57.4776 52.1836 57.5857 52.2598L64.5857 57.1798L66.7857 58.7198C67.1545 58.9814 67.5718 59.1666 68.0131 59.2645C68.4545 59.3624 68.911 59.371 69.3557 59.2898C70.0247 59.1713 70.6435 58.8573 71.1342 58.3875C71.625 57.9177 71.9656 57.3131 72.1132 56.65C72.2608 55.9869 72.2087 55.2949 71.9636 54.6613C71.7185 54.0277 71.2912 53.4809 70.7357 53.0898L70.5057 52.9298L62.8357 47.5598L61.5157 46.6298C61.3932 46.5619 61.2862 46.469 61.2019 46.3572C61.1175 46.2453 61.0576 46.117 61.026 45.9804C60.9944 45.8439 60.9919 45.7023 61.0185 45.5647C61.0452 45.4272 61.1005 45.2968 61.1808 45.1819C61.2611 45.0671 61.3646 44.9705 61.4847 44.8982C61.6048 44.826 61.7387 44.7798 61.8777 44.7626C62.0168 44.7454 62.1579 44.7577 62.2919 44.7985C62.426 44.8394 62.5499 44.908 62.6557 44.9998L71.6557 51.2898L74.9657 53.6398C75.7124 54.1633 76.6364 54.3689 77.5346 54.2114ZM61.4557 33.2898L79.4457 45.9298L85.6457 40.9798L76.1557 26.8798L74.6457 27.9398C71.2957 30.2798 65.7657 29.2798 62.0457 27.7198L57.4657 25.7998C55.7944 25.0939 53.9708 24.8254 52.167 25.0196C50.3631 25.2138 48.6385 25.8643 47.1557 26.9098L37.7857 33.5098C37.4129 33.7675 37.0947 34.0963 36.8493 34.4773C36.6039 34.8584 36.4363 35.2841 36.356 35.7302C36.2757 36.1762 36.2843 36.6337 36.3813 37.0764C36.4784 37.5191 36.6619 37.9383 36.9215 38.3098C37.181 38.6813 37.5114 38.9979 37.8937 39.2413C38.276 39.4848 38.7026 39.6503 39.149 39.7283C39.5954 39.8064 40.0529 39.7955 40.4951 39.6962C40.9373 39.5969 41.3555 39.4112 41.7257 39.1498L50.1057 33.2898C51.7747 32.1395 53.7538 31.5236 55.7807 31.5236C57.8077 31.5236 59.7868 32.1395 61.4557 33.2898Z" fill="#01645A"/>
</svg>
