<svg width="96" height="96" viewBox="0 0 96 96" fill="none" xmlns="http://www.w3.org/2000/svg">
<path fill-rule="evenodd" clip-rule="evenodd" d="M69.38 51.47C67.8709 51.47 66.3957 51.9175 65.141 52.7559C63.8863 53.5943 62.9083 54.7859 62.3308 56.1801C61.7533 57.5743 61.6022 59.1085 61.8966 60.5885C62.191 62.0686 62.9177 63.4282 63.9848 64.4952C65.0519 65.5623 66.4114 66.289 67.8915 66.5834C69.3715 66.8778 70.9057 66.7267 72.2999 66.1492C73.6941 65.5717 74.8857 64.5938 75.7241 63.339C76.5625 62.0843 77.01 60.6091 77.01 59.1C77.0074 57.0772 76.2026 55.138 74.7723 53.7077C73.342 52.2774 71.4028 51.4726 69.38 51.47ZM69.38 64.73C68.2665 64.73 67.178 64.3998 66.2521 63.7812C65.3263 63.1625 64.6047 62.2833 64.1786 61.2545C63.7524 60.2258 63.6409 59.0938 63.8582 58.0016C64.0754 56.9095 64.6116 55.9064 65.399 55.119C66.1864 54.3316 67.1895 53.7954 68.2816 53.5782C69.3738 53.3609 70.5058 53.4724 71.5345 53.8986C72.5633 54.3247 73.4425 55.0463 74.0612 55.9721C74.6798 56.898 75.01 57.9865 75.01 59.1C75.01 59.8393 74.8644 60.5714 74.5814 61.2545C74.2985 61.9376 73.8838 62.5582 73.361 63.081C72.8382 63.6038 72.2176 64.0185 71.5345 64.3014C70.8514 64.5844 70.1193 64.73 69.38 64.73Z" fill="#01645A"/>
<path fill-rule="evenodd" clip-rule="evenodd" d="M49.0237 79.6523C52.3302 79.1906 55.4929 78.2798 58.448 76.9835C63.1248 82.9258 68.3509 87.0435 68.77 87.37C68.9465 87.5095 69.165 87.5854 69.39 87.5854C69.615 87.5854 69.8335 87.5095 70.01 87.37C70.74 86.78 87.76 72.74 87.76 59.42C87.7626 57.0037 87.2893 54.6105 86.367 52.3771C85.4448 50.1437 84.0916 48.1138 82.3849 46.4034C81.6461 45.663 80.8474 44.9887 79.998 44.3869C79.9993 44.2581 80 44.1291 80 44C80 24.1177 63.8823 8 44 8C40.0845 8 36.315 8.62509 32.7858 9.78094C32.1149 10.0007 31.4526 10.2396 30.7997 10.4971L30.714 10.531C17.4075 15.8177 8 28.8102 8 44C8 49.6691 9.31041 55.0322 11.6449 59.8028C11.9506 60.4277 12.2738 61.0424 12.6141 61.6462C18.7867 72.6014 30.5294 80 44 80C45.0162 80 46.0225 79.9579 47.0174 79.8753C47.6193 79.8254 48.217 79.7606 48.8101 79.6814C48.8814 79.6719 48.9525 79.6622 49.0237 79.6523ZM77.9896 43.1491C77.889 39.056 77.0651 35.1423 75.6408 31.531C69.4141 33.84 66.0899 33.4774 63.6677 32.0489C62.9797 31.6431 62.3982 31.1705 61.8772 30.7142C61.675 30.5372 61.4901 30.3703 61.3123 30.21C61.0083 29.9356 60.7246 29.6797 60.4102 29.4229C59.485 28.6672 58.5192 28.103 57.0419 27.9975C55.0948 27.8584 52.9221 27.0691 51.1063 25.7853C49.2889 24.5005 47.7418 22.6559 47.2021 20.3532C46.6545 18.0168 47.1839 15.3785 49.2058 12.6267C49.6743 11.9891 50.2236 11.3439 50.8599 10.6923C48.6442 10.2384 46.3499 10 44 10C40.6255 10 37.3658 10.4916 34.2887 11.4071C36.1108 13.4916 37.2977 15.3311 37.988 17.0202C39.1309 19.8169 38.8836 22.1297 38.0593 24.2935C37.6573 25.3487 37.1197 26.366 36.5661 27.3661C36.44 27.594 36.3133 27.8206 36.1866 28.0472L36.186 28.0483C35.7477 28.8319 35.3097 29.6153 34.8961 30.4512C33.8444 32.5772 32.9998 34.9536 32.9998 38C32.9998 38.8662 33.0092 39.7121 33.0183 40.5354C33.0426 42.7376 33.0652 44.7779 32.9021 46.612C32.6745 49.1726 32.0789 51.4871 30.5514 53.5353C29.0292 55.5765 26.6616 57.2464 23.0925 58.6853C20.8302 59.5973 18.0582 60.4273 14.6657 61.2009C20.5725 71.2526 31.4983 78 44 78C44.9985 78 45.987 77.957 46.9636 77.8726C46.914 77.2633 46.8362 76.6394 46.735 76.0013C46.3782 73.7499 45.7551 71.439 45.11 69.0464C44.8102 67.9345 44.5056 66.805 44.2208 65.6556C43.3411 62.1054 42.6725 58.43 43.1702 54.938C43.676 51.3891 45.377 48.0884 49.0915 45.3025C52.5853 42.6822 56.2698 42.5222 59.7914 43.708C62.6544 41.955 65.9679 41.0037 69.38 41C71.7963 41.0026 74.1885 41.4812 76.4199 42.4083C76.9554 42.6308 77.4792 42.8781 77.9896 43.1491ZM57.6923 45.2052C55.1688 44.6894 52.6886 45.1047 50.2915 46.9025C47.006 49.3666 45.5819 52.191 45.1502 55.2202C44.7104 58.3063 45.2918 61.6622 46.1621 65.1745C46.4242 66.2322 46.715 67.3116 47.0078 68.3982C47.6672 70.8455 48.3366 73.3299 48.7104 75.6882C48.8139 76.3411 48.8966 76.9932 48.9514 77.6421C51.8362 77.2212 54.6035 76.438 57.2056 75.3403C53.8148 70.6642 51 65.0668 51 59.37C51.0079 54.4987 52.9473 49.8293 56.3928 46.3857C56.8087 45.97 57.2425 45.5762 57.6923 45.2052ZM13.667 59.3755C17.2428 58.5826 20.0848 57.7414 22.3446 56.8304C25.713 55.4724 27.7204 53.986 28.9482 52.3397C30.1707 50.7004 30.7001 48.7962 30.91 46.4349C31.0635 44.7074 31.0427 42.817 31.0189 40.6581C31.0096 39.8153 30.9998 38.9311 30.9998 38C30.9998 34.5464 31.9677 31.8603 33.1035 29.5644C33.5418 28.6785 34.0125 27.8369 34.4546 27.0465C34.5778 26.8262 34.6988 26.6098 34.8163 26.3976C35.3643 25.4075 35.8423 24.4951 36.1903 23.5815C36.866 21.8078 37.0562 20.0269 36.1366 17.7768C35.4876 16.1887 34.2738 14.3377 32.2209 12.0958C19.2487 16.8868 10 29.3633 10 44C10 49.5334 11.3218 54.7581 13.667 59.3755ZM74.8513 29.6908C70.7038 20.7636 62.7955 13.9379 53.1616 11.2486C52.1933 12.1336 51.4208 12.9898 50.8175 13.8109C49.0739 16.184 48.7595 18.2333 49.1494 19.8968C49.5472 21.5942 50.7188 23.062 52.2608 24.1522C53.8044 25.2435 55.6316 25.8916 57.1844 26.0026C59.2071 26.147 60.5538 26.9579 61.6754 27.874C62.0231 28.1579 62.3757 28.4756 62.7071 28.7741C62.8763 28.9266 63.0401 29.0742 63.1948 29.2096C63.6797 29.6342 64.1529 30.0132 64.6837 30.3262C66.3497 31.3087 68.9583 31.8611 74.8513 29.6908ZM69.38 85.27C66.29 82.69 53 71 53 59.37C53 55.0258 54.7257 50.8594 57.7976 47.7876C60.8694 44.7157 65.0358 42.99 69.38 42.99C73.7242 42.99 77.8906 44.7157 80.9624 47.7876C84.0343 50.8594 85.76 55.0258 85.76 59.37C85.76 70.38 72.38 82.59 69.38 85.27Z" fill="#01645A"/>
</svg>
