<svg width="96" height="96" viewBox="0 0 96 96" fill="none" xmlns="http://www.w3.org/2000/svg">
<path fill-rule="evenodd" clip-rule="evenodd" d="M44.04 71.81V68.28C42.6311 67.3383 41.5623 65.9684 40.9915 64.3727C40.4208 62.7769 40.3783 61.04 40.8704 59.4183C41.3624 57.7965 42.363 56.3761 43.7242 55.3666C45.0855 54.3571 46.7353 53.8121 48.43 53.8121C50.1248 53.8121 51.7746 54.3571 53.1358 55.3666C54.4971 56.3761 55.4976 57.7965 55.9897 59.4183C56.4818 61.04 56.4393 62.7769 55.8685 64.3727C55.2978 65.9684 54.229 67.3383 52.82 68.28V71.81C52.82 72.9743 52.3575 74.0909 51.5342 74.9142C50.7109 75.7375 49.5943 76.2 48.43 76.2C47.2657 76.2 46.1491 75.7375 45.3258 74.9142C44.5025 74.0909 44.04 72.9743 44.04 71.81ZM51.9913 57.0563C50.9726 56.2622 49.7215 55.8244 48.43 55.81V55.85C47.1385 55.8644 45.8874 56.3022 44.8687 57.0963C43.8501 57.8903 43.1201 58.9967 42.7908 60.2456C42.4615 61.4945 42.5512 62.817 43.046 64.01C43.5408 65.203 44.4135 66.2008 45.53 66.85C45.6845 66.9368 45.8131 67.0632 45.9027 67.216C45.9923 67.3689 46.0397 67.5428 46.04 67.72V71.77C46.04 72.4039 46.2918 73.0118 46.74 73.46C47.1883 73.9082 47.7962 74.16 48.43 74.16C49.0639 74.16 49.6718 73.9082 50.12 73.46C50.5682 73.0118 50.82 72.4039 50.82 71.77V67.68C50.8203 67.5028 50.8677 67.3289 50.9573 67.176C51.0469 67.0232 51.1756 66.8968 51.33 66.81C52.4466 66.1608 53.3192 65.163 53.814 63.97C54.3088 62.777 54.3985 61.4545 54.0693 60.2056C53.74 58.9567 53.01 57.8503 51.9913 57.0563Z" fill="#01645A"/>
<path fill-rule="evenodd" clip-rule="evenodd" d="M73.5169 85.6569C72.0166 87.1571 69.9817 88 67.86 88H29C26.8783 88 24.8434 87.1571 23.3431 85.6569C21.8429 84.1566 21 82.1217 21 80V48C21 45.8783 21.8429 43.8434 23.3431 42.3431C24.8434 40.8429 26.8783 40 29 40H29.24V27.9C29.24 16.74 37.67 8 48.43 8C53.5179 8.00529 58.3959 10.0288 61.9935 13.6265C65.5912 17.2241 67.6147 22.1021 67.62 27.19V40H67.86C69.9817 40 72.0166 40.8429 73.5169 42.3431C75.0171 43.8434 75.86 45.8783 75.86 48V80C75.86 82.1217 75.0171 84.1566 73.5169 85.6569ZM48.43 10C38.79 10 31.24 17.9 31.24 27.9V40H38.43V27C38.43 24.3478 39.4836 21.8043 41.3589 19.9289C43.2343 18.0536 45.7778 17 48.43 17C51.0822 17 53.6257 18.0536 55.5011 19.9289C57.3764 21.8043 58.43 24.3478 58.43 27V40H65.62V27.19C65.6147 22.6326 63.8019 18.2633 60.5793 15.0407C57.3567 11.8181 52.9874 10.0053 48.43 10ZM40.43 27V40H56.43V27C56.43 24.8783 55.5871 22.8434 54.0869 21.3431C52.5866 19.8429 50.5517 19 48.43 19C46.3083 19 44.2734 19.8429 42.7731 21.3431C41.2729 22.8434 40.43 24.8783 40.43 27ZM24.7574 43.7574C23.6321 44.8826 23 46.4087 23 48V80C23 81.5913 23.6321 83.1174 24.7574 84.2426C25.8826 85.3679 27.4087 86 29 86H67.86C69.4513 86 70.9774 85.3679 72.1026 84.2426C73.2279 83.1174 73.86 81.5913 73.86 80V48C73.86 46.4087 73.2279 44.8826 72.1026 43.7574C70.9774 42.6321 69.4513 42 67.86 42H29C27.4087 42 25.8826 42.6321 24.7574 43.7574Z" fill="#01645A"/>
</svg>
