<svg width="96" height="96" viewBox="0 0 96 96" fill="none" xmlns="http://www.w3.org/2000/svg">
<path fill-rule="evenodd" clip-rule="evenodd" d="M44 26.5C44 19.0442 50.0442 13 57.5 13C64.9558 13 71 19.0442 71 26.5C71 33.9558 64.9558 40 57.5 40C50.0442 40 44 33.9558 44 26.5ZM57.5 11C48.9396 11 42 17.9396 42 26.5C42 35.0604 48.9396 42 57.5 42C66.0604 42 73 35.0604 73 26.5C73 17.9396 66.0604 11 57.5 11ZM26.5 36C19.0442 36 13 42.0442 13 49.5C13 56.9558 19.0442 63 26.5 63C33.9558 63 40 56.9558 40 49.5C40 42.0442 33.9558 36 26.5 36ZM11 49.5C11 40.9396 17.9396 34 26.5 34C35.0604 34 42 40.9396 42 49.5C42 58.0604 35.0604 65 26.5 65C17.9396 65 11 58.0604 11 49.5ZM21.3979 57C21.1926 57 21.0166 56.9267 20.8699 56.78C20.7232 56.6333 20.6499 56.4647 20.6499 56.274C20.6499 55.8927 20.8919 55.5773 21.3759 55.328C21.8599 55.0787 22.2486 54.6533 22.5419 54.052C22.8499 53.4507 23.0039 52.7247 23.0039 51.874V49.74C23.0039 49.6227 22.9379 49.564 22.8059 49.564H21.7279C21.5372 49.564 21.3759 49.5053 21.2439 49.388C21.1266 49.256 21.0679 49.0947 21.0679 48.904C21.0679 48.7133 21.1266 48.5593 21.2439 48.442C21.3759 48.31 21.5372 48.244 21.7279 48.244H22.8059C22.9379 48.244 23.0039 48.178 23.0039 48.046V45.12C23.0039 43.7267 23.4219 42.6487 24.2579 41.886C25.1086 41.1087 26.3186 40.72 27.8879 40.72C28.5186 40.72 29.1566 40.8007 29.8019 40.962C30.0219 41.0207 30.1979 41.1453 30.3299 41.336C30.4619 41.512 30.5279 41.7173 30.5279 41.952C30.5279 42.1427 30.4472 42.2893 30.2859 42.392C30.1246 42.4947 29.9559 42.5167 29.7799 42.458C29.2079 42.2967 28.6359 42.216 28.0639 42.216C25.8639 42.216 24.7639 43.2427 24.7639 45.296V48.046C24.7639 48.178 24.8299 48.244 24.9619 48.244H28.8339C29.0246 48.244 29.1786 48.31 29.2959 48.442C29.4279 48.5593 29.4939 48.7133 29.4939 48.904C29.4939 49.0947 29.4279 49.256 29.2959 49.388C29.1786 49.5053 29.0246 49.564 28.8339 49.564H24.9619C24.8299 49.564 24.7639 49.6227 24.7639 49.74V51.874C24.7639 52.71 24.6172 53.4507 24.3239 54.096C24.0306 54.7267 23.6419 55.1887 23.1579 55.482C23.1432 55.482 23.1359 55.4893 23.1359 55.504C23.1359 55.5187 23.1432 55.526 23.1579 55.526H30.1099C30.3006 55.526 30.4692 55.6067 30.6159 55.768C30.7772 55.9147 30.8579 56.0833 30.8579 56.274C30.8579 56.4647 30.7846 56.6333 30.6379 56.78C30.4912 56.9267 30.3152 57 30.1099 57H21.3979ZM56.258 19.766C54.6593 19.9567 53.86 20.7193 53.86 22.054C53.86 23.33 54.674 24.2247 56.302 24.738C56.346 24.7527 56.3826 24.7453 56.412 24.716C56.4413 24.672 56.456 24.628 56.456 24.584V19.92C56.456 19.788 56.39 19.7367 56.258 19.766ZM60.526 29.6C60.526 28.8813 60.3353 28.302 59.954 27.862C59.5726 27.4073 58.9346 27.0333 58.04 26.74C57.9226 26.7107 57.864 26.7547 57.864 26.872V31.998C57.864 32.13 57.93 32.1813 58.062 32.152C59.7046 31.888 60.526 31.0373 60.526 29.6ZM56.28 26.278C53.5666 25.486 52.21 24.078 52.21 22.054C52.21 20.998 52.5546 20.14 53.244 19.48C53.948 18.82 54.9526 18.4313 56.258 18.314C56.39 18.314 56.456 18.248 56.456 18.116V16.774C56.456 16.5833 56.522 16.422 56.654 16.29C56.8006 16.1433 56.9693 16.07 57.16 16.07C57.3506 16.07 57.512 16.1433 57.644 16.29C57.7906 16.422 57.864 16.5833 57.864 16.774V18.094C57.864 18.226 57.93 18.292 58.062 18.292C59.0886 18.3653 60.0493 18.5047 60.944 18.71C61.164 18.7687 61.3473 18.8933 61.494 19.084C61.6406 19.26 61.714 19.4653 61.714 19.7C61.714 19.8907 61.6333 20.0447 61.472 20.162C61.3106 20.2793 61.1346 20.3087 60.944 20.25C59.9906 19.9713 59.03 19.8027 58.062 19.744C57.93 19.744 57.864 19.8027 57.864 19.92V24.936C57.864 25.068 57.93 25.1487 58.062 25.178C59.602 25.6033 60.68 26.1753 61.296 26.894C61.912 27.6127 62.22 28.5147 62.22 29.6C62.22 30.744 61.8606 31.6607 61.142 32.35C60.4233 33.0393 59.3966 33.4573 58.062 33.604C57.93 33.6333 57.864 33.7067 57.864 33.824V35.166C57.864 35.3567 57.7906 35.518 57.644 35.65C57.512 35.7967 57.3506 35.87 57.16 35.87C56.9693 35.87 56.8006 35.7967 56.654 35.65C56.522 35.518 56.456 35.3567 56.456 35.166V33.846C56.456 33.714 56.3973 33.648 56.28 33.648C55.1653 33.5747 54.1386 33.384 53.2 33.076C52.9653 33.0027 52.7746 32.8633 52.628 32.658C52.496 32.4527 52.43 32.2253 52.43 31.976C52.43 31.7853 52.5106 31.6387 52.672 31.536C52.8333 31.4333 53.002 31.4187 53.178 31.492C54.2193 31.9027 55.2533 32.1373 56.28 32.196C56.3973 32.196 56.456 32.1373 56.456 32.02V26.52C56.456 26.388 56.3973 26.3073 56.28 26.278ZM84 43H75C74.4477 43 74 43.4477 74 44C74 44.5523 74.4477 45 75 45H81.5858L60 66.5858L52.7071 59.2929C52.3166 58.9024 51.6834 58.9024 51.2929 59.2929L27.2929 83.2929C26.9024 83.6834 26.9024 84.3166 27.2929 84.7071C27.6834 85.0976 28.3166 85.0976 28.7071 84.7071L52 61.4142L59.2929 68.7071C59.6834 69.0976 60.3166 69.0976 60.7071 68.7071L83 46.4142V53C83 53.5523 83.4477 54 84 54C84.5523 54 85 53.5523 85 53V44C85 43.4477 84.5523 43 84 43Z" fill="#01645A"/>
</svg>
