<svg width="96" height="96" viewBox="0 0 96 96" fill="none" xmlns="http://www.w3.org/2000/svg">
<path fill-rule="evenodd" clip-rule="evenodd" d="M16.0893 77.9703C15.9238 77.8963 15.7814 77.7787 15.6776 77.63C15.5752 77.482 15.5147 77.3091 15.5023 77.1296C15.49 76.9501 15.5264 76.7706 15.6076 76.61L27.9776 52.48C24.5652 48.6195 22.3398 43.8559 21.5688 38.7615C20.7978 33.667 21.514 28.4583 23.6313 23.761C25.7485 19.0636 29.1769 15.0774 33.5045 12.2811C37.8322 9.48476 42.8751 7.99727 48.0276 7.99727C53.18 7.99727 58.2229 9.48476 62.5506 12.2811C66.8782 15.0774 70.3066 19.0636 72.4238 23.761C74.5411 28.4583 75.2573 33.667 74.4863 38.7615C73.7153 43.8559 71.49 48.6195 68.0776 52.48L80.4276 76.63C80.5049 76.7881 80.5392 76.9638 80.5269 77.1394C80.5146 77.315 80.4562 77.4842 80.3576 77.63C80.2537 77.7787 80.1113 77.8963 79.9458 77.9703C79.7802 78.0443 79.5976 78.0718 79.4176 78.05L67.0176 76.6L60.9676 87.49C60.8807 87.6445 60.7544 87.7731 60.6016 87.8627C60.4487 87.9523 60.2748 87.9997 60.0976 88C59.9173 87.9968 59.7413 87.9449 59.5882 87.8498C59.435 87.7547 59.3104 87.6201 59.2276 87.46L48.0176 65.56L36.7576 87.46C36.6747 87.6201 36.5501 87.7547 36.3969 87.8498C36.2438 87.9449 36.0678 87.9968 35.8876 88C35.7104 87.9997 35.5364 87.9523 35.3836 87.8627C35.2307 87.7731 35.1044 87.6445 35.0176 87.49L29.0176 76.6L16.6176 78.05C16.4375 78.0718 16.2549 78.0443 16.0893 77.9703ZM30.6676 75.51L35.8776 84.88L47.8076 61.51C44.6856 61.4944 41.591 60.9256 38.6676 59.83L30.6676 75.51ZM49.1576 63.36L60.1576 84.88L65.3776 75.51L57.3776 59.85C55.0559 60.7093 52.6259 61.2411 50.1576 61.43L49.1576 63.36ZM67.1476 74.6L77.7876 75.88L66.6076 54C64.4424 56.0974 61.9368 57.8117 59.1976 59.07L67.1476 74.6ZM27.4625 21.001C24.7405 25.0734 23.2876 29.8617 23.2876 34.76C23.2955 41.3191 25.9025 47.6078 30.5377 52.2486C35.1729 56.8894 41.4584 59.5041 48.0176 59.52C52.9159 59.5259 57.7059 58.0788 61.7816 55.3618C65.8573 52.6447 69.0356 48.7798 70.9142 44.256C72.7928 39.7323 73.2874 34.7529 72.3354 29.948C71.3835 25.143 69.0277 20.7284 65.5661 17.2627C62.1046 13.7969 57.6928 11.4358 52.889 10.478C48.0852 9.52017 43.1053 10.0087 38.5793 11.8819C34.0532 13.755 30.1845 16.9286 27.4625 21.001ZM36.8476 59.08C34.1133 57.8139 31.6117 56.0966 29.4476 54L18.2476 75.85L28.8476 74.63L36.8476 59.08ZM52.71 29.19L61.19 30.42C61.3727 30.4506 61.5432 30.5313 61.6827 30.6531C61.8222 30.7749 61.9251 30.9331 61.98 31.11C62.0331 31.2837 62.0378 31.4685 61.9938 31.6447C61.9497 31.8209 61.8585 31.9817 61.73 32.11L55.6 38.11L57.05 46.55C57.0857 46.7375 57.067 46.9313 56.9961 47.1084C56.9252 47.2856 56.8051 47.4389 56.65 47.55C56.4977 47.6601 56.3175 47.725 56.1301 47.7374C55.9426 47.7498 55.7554 47.7091 55.59 47.62L48.01 43.62L40.43 47.62C40.2719 47.6974 40.0962 47.7316 39.9206 47.7194C39.745 47.7071 39.5758 47.6486 39.43 47.55C39.2749 47.4389 39.1548 47.2856 39.0839 47.1084C39.013 46.9313 38.9943 46.7375 39.03 46.55L40.48 38.11L34.34 32.11C34.2115 31.9817 34.1203 31.8209 34.0762 31.6447C34.0322 31.4685 34.0369 31.2837 34.09 31.11C34.1464 30.9304 34.2523 30.7704 34.3956 30.6483C34.5389 30.5263 34.7137 30.4471 34.9 30.42L43.32 29.19L47.11 21.51C47.1929 21.3436 47.3206 21.2036 47.4787 21.1058C47.6368 21.0079 47.8191 20.9561 48.005 20.9561C48.1909 20.9561 48.3732 21.0079 48.5313 21.1058C48.6894 21.2036 48.8171 21.3436 48.9 21.51L52.71 29.19ZM53.5844 37.429C53.635 37.2738 53.7227 37.1334 53.84 37.02L58.9 32.09L51.9 31.09C51.7398 31.0659 51.5878 31.0033 51.4572 30.9075C51.3265 30.8117 51.2211 30.6856 51.15 30.54L48.03 24.2L44.9 30.54C44.8289 30.6856 44.7235 30.8117 44.5928 30.9075C44.4622 31.0033 44.3102 31.0659 44.15 31.09L37.15 32.09L42.21 37.02C42.3273 37.1334 42.415 37.2738 42.4656 37.429C42.5161 37.5841 42.5279 37.7492 42.5 37.91L41.31 44.91L47.56 41.62C47.7034 41.5447 47.863 41.5053 48.025 41.5053C48.187 41.5053 48.3466 41.5447 48.49 41.62L54.74 44.91L53.55 37.91C53.5221 37.7492 53.5339 37.5841 53.5844 37.429Z" fill="#01645A"/>
</svg>
