<svg width="96" height="96" viewBox="0 0 96 96" fill="none" xmlns="http://www.w3.org/2000/svg">
<path fill-rule="evenodd" clip-rule="evenodd" d="M50.252 83.3935C49.5738 83.8476 48.7761 84.09 47.96 84.09C46.8724 84.09 45.829 83.6601 45.0572 82.8939C44.2854 82.1277 43.8479 81.0875 43.84 80C43.834 79.1839 44.0706 78.3844 44.5197 77.7029C44.9688 77.0215 45.6101 76.4887 46.3624 76.1723C47.1147 75.8559 47.944 75.77 48.7452 75.9255C49.5463 76.0811 50.2833 76.4711 50.8625 77.0461C51.4417 77.6211 51.837 78.3551 51.9985 79.1551C52.1599 79.9551 52.0801 80.7851 51.7691 81.5397C51.4582 82.2942 50.9302 82.9395 50.252 83.3935ZM49.1357 78.216C48.7875 77.9839 48.3784 77.86 47.96 77.86C47.6799 77.86 47.4025 77.9155 47.144 78.0233C46.8855 78.1311 46.6509 78.289 46.4538 78.488C46.2566 78.687 46.1009 78.9231 45.9956 79.1826C45.8902 79.4421 45.8373 79.7199 45.84 80C45.8439 80.4184 45.9716 80.8263 46.2069 81.1723C46.4423 81.5183 46.7747 81.7869 47.1624 81.9443C47.5501 82.1017 47.9758 82.1409 48.3857 82.0568C48.7956 81.9728 49.1715 81.7693 49.4659 81.472C49.7604 81.1748 49.9604 80.797 50.0406 80.3863C50.1208 79.9756 50.0776 79.5504 49.9166 79.1642C49.7556 78.778 49.4838 78.448 49.1357 78.216Z" fill="#01645A"/>
<path fill-rule="evenodd" clip-rule="evenodd" d="M66.6234 87.6036C65.9685 87.8706 65.2672 88.0053 64.56 88H31.36C30.6527 88.0053 29.9514 87.8706 29.2965 87.6036C28.6416 87.3366 28.0459 86.9426 27.544 86.4443C27.042 85.9461 26.6436 85.3534 26.3718 84.7005C26.0999 84.0476 25.9599 83.3473 25.96 82.64V13.36C25.9599 12.6528 26.0999 11.9525 26.3718 11.2996C26.6436 10.6466 27.042 10.054 27.544 9.55572C28.0459 9.05747 28.6416 8.6635 29.2965 8.39649C29.9514 8.12949 30.6527 7.99475 31.36 8.00003H64.56C65.2672 7.99475 65.9685 8.12949 66.6234 8.39649C67.2784 8.6635 67.874 9.05747 68.3759 9.55572C68.8779 10.054 69.2763 10.6466 69.5482 11.2996C69.82 11.9525 69.96 12.6528 69.96 13.36V82.64C69.96 83.3473 69.82 84.0476 69.5482 84.7005C69.2763 85.3534 68.8779 85.9461 68.3759 86.4443C67.874 86.9426 67.2784 87.3366 66.6234 87.6036ZM28.2222 12.0665C28.0504 12.4762 27.9613 12.9158 27.96 13.36V17.09H67.96V13.36C67.9587 12.9158 67.8695 12.4762 67.6977 12.0665C67.5259 11.6568 67.2748 11.2852 66.9588 10.9729C66.6428 10.6606 66.2682 10.4139 65.8565 10.2469C65.4448 10.08 65.0042 9.99607 64.56 10H31.36C30.9157 9.99607 30.4751 10.08 30.0634 10.2469C29.6517 10.4139 29.2771 10.6606 28.9611 10.9729C28.6452 11.2852 28.394 11.6568 28.2222 12.0665ZM67.96 19.08H27.96V71.61H67.96V19.08ZM27.96 73.64V82.64C27.9613 83.0843 28.0504 83.5239 28.2222 83.9336C28.394 84.3432 28.6452 84.7149 28.9611 85.0272C29.2771 85.3394 29.6517 85.5862 30.0634 85.7531C30.4751 85.9201 30.9157 86.004 31.36 86H64.56C65.0042 86.004 65.4448 85.9201 65.8565 85.7531C66.2682 85.5862 66.6428 85.3394 66.9588 85.0272C67.2748 84.7149 67.5259 84.3432 67.6977 83.9336C67.8695 83.5239 67.9587 83.0843 67.96 82.64V73.64H27.96Z" fill="#01645A"/>
</svg>
