<svg width="96" height="96" viewBox="0 0 96 96" fill="none" xmlns="http://www.w3.org/2000/svg">
<path d="M81.1332 16.6622H76.344V14.1422C76.344 11.6372 74.3888 9.59998 71.9855 9.59998H70.4607C68.0574 9.59998 66.1022 11.6372 66.1022 14.1422V16.6622H29.8965V14.1422C29.8965 11.6372 27.9408 9.59998 25.5376 9.59998H24.0127C21.6094 9.59998 19.6543 11.6372 19.6543 14.1422V16.6622H14.8651C11.9616 16.6622 9.59912 19.0247 9.59912 21.9281V65.5678C9.59912 68.4712 11.9616 70.8337 14.8651 70.8337H19.6543V84.48H10.5591C10.029 84.48 9.59912 84.9093 9.59912 85.44C9.59912 85.9706 10.029 86.4 10.5591 86.4H85.4391C85.9693 86.4 86.3991 85.9706 86.3991 85.44C86.3991 84.9093 85.9693 84.48 85.4391 84.48H76.344V70.8337H81.1332C84.0366 70.8337 86.3991 68.4712 86.3991 65.5678V21.9281C86.3991 19.0247 84.0366 16.6622 81.1332 16.6622ZM68.0222 14.1422C68.0222 12.6965 69.1163 11.52 70.4607 11.52H71.9855C73.3299 11.52 74.424 12.6965 74.424 14.1422V16.6622H68.0222V14.1422ZM21.5743 14.1422C21.5743 12.6965 22.6683 11.52 24.0127 11.52H25.5376C26.8824 11.52 27.9765 12.6965 27.9765 14.1422V16.6622H21.5743V14.1422ZM21.5743 70.8337H27.9765V84.48H21.5743V70.8337ZM66.1022 70.8337V84.48H29.8965V70.8337H66.1022ZM74.424 84.48H68.0222V70.8337H74.424V84.48ZM84.4791 65.5678C84.4791 67.4128 82.9782 68.9137 81.1332 68.9137H14.8651C13.0201 68.9137 11.5191 67.4128 11.5191 65.5678V21.9281C11.5191 20.0831 13.0201 18.5822 14.8651 18.5822H81.1332C82.9782 18.5822 84.4791 20.0831 84.4791 21.9281V65.5678Z" fill="#01645A"/>
<path d="M47.9999 24.8803C37.8215 24.8803 29.5405 33.1612 29.5405 43.3397C29.5405 53.5181 37.8215 61.7991 47.9999 61.7991C58.1783 61.7991 66.4593 53.5181 66.4593 43.3397C66.4593 33.1612 58.1783 24.8803 47.9999 24.8803ZM31.4605 43.3397C31.4605 39.1246 33.0587 35.285 35.6638 32.3611L58.9787 55.6755C56.0547 58.2807 52.2151 59.8791 47.9999 59.8791C38.8799 59.8791 31.4605 52.4597 31.4605 43.3397ZM60.3362 54.318L37.0213 31.0036C39.9453 28.3985 43.7848 26.8003 47.9999 26.8003C57.1199 26.8003 64.5393 34.2197 64.5393 43.3397C64.5393 47.5546 62.9413 51.3941 60.3362 54.318Z" fill="#01645A"/>
</svg>
