<svg width="96" height="96" viewBox="0 0 96 96" fill="none" xmlns="http://www.w3.org/2000/svg">
<path fill-rule="evenodd" clip-rule="evenodd" d="M25.7772 81.2588C32.3552 85.6541 40.0888 88 48 88C58.6087 88 68.7828 83.7857 76.2843 76.2843C83.7858 68.7828 88 58.6087 88 48C88 40.0888 85.6541 32.3552 81.2588 25.7772C76.8635 19.1992 70.6164 14.0723 63.3074 11.0448C55.9983 8.01733 47.9557 7.2252 40.1964 8.76861C32.4372 10.312 25.3099 14.1216 19.7158 19.7157C14.1217 25.3098 10.312 32.4372 8.76861 40.1964C7.2252 47.9556 8.01733 55.9983 11.0448 63.3074C14.0723 70.6164 19.1992 76.8635 25.7772 81.2588ZM75.69 22.05C82.3092 29.0693 85.9973 38.352 86 48C86.0014 55.4132 83.8345 62.6649 79.7661 68.8619C75.6977 75.0589 69.9055 79.9306 63.103 82.877C56.3005 85.8233 48.7847 86.7156 41.4814 85.4439C34.1782 84.1723 27.4063 80.7922 22 75.72L34.8182 62.9066L66.4354 74.4144C66.9543 74.6032 67.5282 74.3357 67.7171 73.8167L74.5575 55.0228C74.7464 54.5039 74.4788 53.93 73.9598 53.7411L52.3848 45.8885L63.8002 41.7336C64.3192 41.5447 64.5868 40.9708 64.3979 40.4519L62.4994 35.2358L75.69 22.05ZM60.1851 34.7249L56.0201 23.2817L20.3118 36.2785L26.4682 53.193L31.148 51.4897L35.0904 40.658C35.2793 40.139 35.8531 39.8714 36.3721 40.0603L49.461 44.8243L50.4433 44.4667L60.1851 34.7249ZM61.7455 33.1645L57.5575 21.658C57.3686 21.139 56.7947 20.8714 56.2758 21.0603L18.6881 34.7411C18.1691 34.93 17.9015 35.5039 18.0904 36.0229L24.9308 54.8167C25.1197 55.3357 25.6935 55.6033 26.2125 55.4144L30.255 53.943L28.25 59.4518C28.0611 59.9708 28.3287 60.5447 28.8476 60.7336L32.7545 62.1555L20.59 74.32C13.7838 67.2498 9.98726 57.8139 10 48C10.0152 40.5612 12.2133 33.2904 16.3219 27.0892C20.4305 20.888 26.2689 16.029 33.1131 13.1148C39.9573 10.2006 47.5064 9.35926 54.8242 10.6952C62.1421 12.0311 68.907 15.4855 74.28 20.63L61.7455 33.1645ZM34.3149 60.5951L30.4714 59.1962L36.6277 42.2817L48.3586 46.5514L34.3149 60.5951ZM36.379 61.3464L50.4266 47.3041L72.3361 55.2785L66.1797 72.1929L36.379 61.3464ZM54.8806 42.8517L62.1765 40.1962L60.9388 36.7957L54.8806 42.8517Z" fill="#01645A"/>
</svg>
