<svg width="96" height="96" viewBox="0 0 96 96" fill="none" xmlns="http://www.w3.org/2000/svg">
<path fill-rule="evenodd" clip-rule="evenodd" d="M48 90.3523L46.3949 88.1932L46.3932 88.1909L46.3735 88.1643L46.3137 88.0835C46.2614 88.0126 46.1842 87.9079 46.084 87.7713C45.8836 87.498 45.5907 87.0966 45.2185 86.5814C44.4743 85.551 43.4128 84.0646 42.1396 82.2352C39.5946 78.5782 36.1979 73.5417 32.798 68.0322C29.4022 62.5294 25.981 56.519 23.4022 50.9201C20.8592 45.399 19 39.9988 19 35.8135C19 19.8241 31.9385 7 48 7C64.0615 7 77 19.8241 77 35.8135C77 39.9988 75.1408 45.399 72.5978 50.9201C70.019 56.519 66.5978 62.5294 63.202 68.0322C59.8021 73.5417 56.4054 78.5782 53.8604 82.2352C52.5872 84.0646 51.5257 85.551 50.7815 86.5814C50.4093 87.0966 50.1164 87.498 49.916 87.7713C49.8158 87.9079 49.7386 88.0126 49.6863 88.0835L49.6265 88.1643L49.6068 88.1909L49.6051 88.1932L48 90.3523ZM49.236 85.3053C54.527 77.9719 75 48.7593 75 35.8135C75 20.9419 62.9703 9 48 9C33.0297 9 21 20.9419 21 35.8135C21 48.7593 41.473 77.9719 46.764 85.3053C47.5492 86.3936 48 87 48 87C48 87 48.4508 86.3936 49.236 85.3053ZM37.5911 32.768C38.2037 31.5604 39.8142 31.2979 40.7787 32.2485L46.9739 38.3547L52.6428 35.3282C53.5372 34.8507 54.6475 35.118 55.2265 35.9503L60.7279 43.8578C61.6504 45.1839 60.7015 47 59.0861 47H33.6286C32.1367 47 31.1701 45.4256 31.845 44.0952L37.5911 32.768ZM39.3747 33.6729L33.6286 45L59.0861 45L53.5847 37.0925L47.9159 40.119C47.1438 40.5312 46.1933 40.3935 45.57 39.7791L39.3747 33.6729ZM53.5 30C55.433 30 57 28.433 57 26.5C57 24.567 55.433 23 53.5 23C51.567 23 50 24.567 50 26.5C50 28.433 51.567 30 53.5 30ZM55 26.5C55 27.3284 54.3284 28 53.5 28C52.6716 28 52 27.3284 52 26.5C52 25.6716 52.6716 25 53.5 25C54.3284 25 55 25.6716 55 26.5Z" fill="#01645A"/>
</svg>
