<svg width="96" height="96" viewBox="0 0 96 96" fill="none" xmlns="http://www.w3.org/2000/svg">
<path fill-rule="evenodd" clip-rule="evenodd" d="M62.2467 83.628C76.7051 78.25 87 64.3247 87 48C87 45.9975 86.8453 44.0325 86.5475 42.116C86.4862 41.7213 86.0458 41.3454 85.4523 41.5141L53.7907 50.5126C53.2683 50.6611 52.9599 51.1994 53.096 51.7251L61.1861 82.9827C61.3384 83.571 61.8752 83.7661 62.2467 83.628ZM49 86C50.2577 86 51.5006 85.939 52.7259 85.8198C53.1291 85.7806 53.5349 85.3485 53.3765 84.7367L44.5257 50.5402C44.4739 50.3401 44.3613 50.1609 44.2035 50.0274L17.9735 27.8328C17.4948 27.4277 16.9317 27.5998 16.7182 27.9426C13.094 33.7628 11 40.6338 11 48C11 68.9868 28.0132 86 49 86ZM23.0181 21.6217L48.5499 43.2255C48.8042 43.4406 49.1489 43.5151 49.4692 43.424L83.2018 33.8369C83.801 33.6665 83.974 33.1082 83.8126 32.7407C77.9333 19.3477 64.5561 10 49 10C38.8928 10 29.7109 13.9433 22.9019 20.3794C22.6114 20.654 22.5511 21.2265 23.0181 21.6217ZM62.9439 85.5025C61.3632 86.0905 59.6725 85.1166 59.2499 83.4838L51.1598 52.2262C50.7515 50.649 51.6767 49.0342 53.2439 48.5888L84.9055 39.5903C86.5491 39.1232 88.2614 40.1205 88.5238 41.8089C88.8373 43.8267 89 45.8943 89 48C89 65.1872 78.16 79.8427 62.9439 85.5025ZM52.9195 87.8104C54.6572 87.6414 55.7502 85.9258 55.3127 84.2356L46.4619 50.0391C46.3065 49.4387 45.9688 48.9012 45.4954 48.5006L19.2654 26.306C17.9417 25.1859 15.937 25.4135 15.0204 26.8854C11.2044 33.0136 9 40.2494 9 48C9 70.0914 26.9086 88 49 88C50.3225 88 51.6299 87.9358 52.9195 87.8104ZM21.7262 23.1484C20.4307 22.0523 20.2948 20.0917 21.5281 18.926C28.6936 12.1529 38.3618 8 49 8C65.3781 8 79.4571 17.8433 85.644 31.9368C86.3369 33.5152 85.4067 35.2894 83.7485 35.7607L50.016 45.3478C49.0549 45.621 48.0208 45.3977 47.258 44.7523L21.7262 23.1484Z" fill="#01645A"/>
</svg>
