<svg width="96" height="96" viewBox="0 0 96 96" fill="none" xmlns="http://www.w3.org/2000/svg">
<path d="M8.29289 12.7071C7.90237 12.3166 7.90237 11.6834 8.29289 11.2929L14.6569 4.92893C15.0474 4.53841 15.6805 4.53841 16.0711 4.92893C16.4616 5.31946 16.4616 5.95262 16.0711 6.34315L11.4142 11H87C87.5523 11 88 11.4477 88 12C88 12.5523 87.5523 13 87 13H11.4142L16.0711 17.6569C16.4616 18.0474 16.4616 18.6805 16.0711 19.0711C15.6805 19.4616 15.0474 19.4616 14.6569 19.0711L8.29289 12.7071Z" fill="#01645A"/>
<path d="M81.3431 76.9289L87.7071 83.2929C88.0976 83.6834 88.0976 84.3166 87.7071 84.7071L81.3431 91.0711C80.9526 91.4616 80.3195 91.4616 79.9289 91.0711C79.5384 90.6805 79.5384 90.0474 79.9289 89.6569L84.5858 85H9C8.44772 85 8 84.5523 8 84C8 83.4477 8.44772 83 9 83H84.5858L79.9289 78.3431C79.5384 77.9526 79.5384 77.3195 79.9289 76.9289C80.3195 76.5384 80.9526 76.5384 81.3431 76.9289Z" fill="#01645A"/>
<path fill-rule="evenodd" clip-rule="evenodd" d="M48 39C43.0294 39 39 43.0294 39 48C39 52.9706 43.0294 57 48 57C52.9706 57 57 52.9706 57 48C57 43.0294 52.9706 39 48 39ZM41 48C41 44.134 44.134 41 48 41C51.866 41 55 44.134 55 48C55 51.866 51.866 55 48 55C44.134 55 41 51.866 41 48Z" fill="#01645A"/>
<path fill-rule="evenodd" clip-rule="evenodd" d="M21 33C21 32.4477 21.4477 32 22 32H74C74.5523 32 75 32.4477 75 33C75 35.7614 77.2386 38 80 38C80.5523 38 81 38.4477 81 39V57C81 57.5523 80.5523 58 80 58C77.2386 58 75 60.2386 75 63C75 63.5523 74.5523 64 74 64H22C21.4477 64 21 63.5523 21 63C21 60.2386 18.7614 58 16 58C15.4477 58 15 57.5523 15 57V39C15 38.4477 15.4477 38 16 38C18.7614 38 21 35.7614 21 33ZM22.9291 34C22.4906 37.0657 20.0657 39.4906 17 39.9291V56.0709C20.0657 56.5094 22.4906 58.9343 22.9291 62H73.0709C73.5094 58.9343 75.9343 56.5094 79 56.0709V39.9291C75.9343 39.4906 73.5094 37.0657 73.0709 34H22.9291Z" fill="#01645A"/>
<path fill-rule="evenodd" clip-rule="evenodd" d="M9 25C8.44772 25 8 25.4477 8 26V70C8 70.5523 8.44772 71 9 71H87C87.5523 71 88 70.5523 88 70V26C88 25.4477 87.5523 25 87 25H9ZM10 69V27H86V69H10Z" fill="#01645A"/>
</svg>
