<svg width="96" height="96" viewBox="0 0 96 96" fill="none" xmlns="http://www.w3.org/2000/svg">
<path fill-rule="evenodd" clip-rule="evenodd" d="M70.56 88H25.36C24.6527 88.0053 23.9514 87.8706 23.2965 87.6036C22.6416 87.3366 22.0459 86.9426 21.544 86.4443C21.042 85.9461 20.6436 85.3534 20.3718 84.7005C20.0999 84.0476 19.9599 83.3473 19.96 82.64V13.36C19.9599 12.6528 20.0999 11.9525 20.3718 11.2996C20.6436 10.6466 21.042 10.054 21.544 9.55572C22.0459 9.05747 22.6416 8.6635 23.2965 8.39649C23.9514 8.12949 24.6527 7.99475 25.36 8.00003H70.56C71.2668 7.99608 71.9675 8.13173 72.6219 8.3992C73.2762 8.66668 73.8713 9.06071 74.373 9.55869C74.8747 10.0567 75.2731 10.6488 75.5455 11.3011C75.8178 11.9535 75.9587 12.6531 75.96 13.36V82.64C75.9587 83.3469 75.8178 84.0466 75.5455 84.6989C75.2731 85.3512 74.8747 85.9434 74.373 86.4414C73.8713 86.9394 73.2762 87.3334 72.6219 87.6009C71.9675 87.8683 71.2668 88.004 70.56 88ZM22.2222 12.0665C22.0504 12.4762 21.9613 12.9158 21.96 13.36V17.09H73.96V13.36C73.9587 12.9158 73.8695 12.4762 73.6977 12.0665C73.5259 11.6568 73.2748 11.2852 72.9588 10.9729C72.6428 10.6606 72.2682 10.4139 71.8565 10.2469C71.4448 10.08 71.0042 9.99607 70.56 10H25.36C24.9157 9.99607 24.4751 10.08 24.0634 10.2469C23.6517 10.4139 23.2771 10.6606 22.9611 10.9729C22.6452 11.2852 22.394 11.6568 22.2222 12.0665ZM73.96 19.08H21.96V71.61H73.96V19.08ZM73.96 73.61H21.96V82.64C21.9613 83.0843 22.0504 83.5239 22.2222 83.9336C22.394 84.3432 22.6452 84.7149 22.9611 85.0272C23.2771 85.3394 23.6517 85.5862 24.0634 85.7531C24.4751 85.9201 24.9157 86.004 25.36 86H70.56C71.0067 86.004 71.4498 85.9191 71.8635 85.7503C72.2771 85.5815 72.6531 85.3321 72.9695 85.0166C73.2858 84.7012 73.5363 84.326 73.7064 83.9128C73.8764 83.4996 73.9626 83.0568 73.96 82.61V73.61ZM50.252 83.3935C49.5738 83.8476 48.7761 84.09 47.96 84.09C46.8724 84.09 45.829 83.6601 45.0572 82.8939C44.2854 82.1277 43.8479 81.0875 43.84 80C43.834 79.1839 44.0706 78.3844 44.5197 77.7029C44.9688 77.0215 45.6101 76.4887 46.3624 76.1723C47.1147 75.8559 47.944 75.77 48.7452 75.9255C49.5463 76.0811 50.2833 76.4711 50.8625 77.0461C51.4417 77.6211 51.837 78.3551 51.9985 79.1551C52.1599 79.9551 52.0801 80.7851 51.7691 81.5397C51.4582 82.2942 50.9302 82.9395 50.252 83.3935ZM49.1357 78.216C48.7875 77.9839 48.3784 77.86 47.96 77.86C47.6799 77.86 47.4025 77.9155 47.144 78.0233C46.8855 78.1311 46.6509 78.289 46.4538 78.488C46.2566 78.687 46.1009 78.9231 45.9956 79.1826C45.8902 79.4421 45.8373 79.7199 45.84 80C45.8439 80.4184 45.9716 80.8263 46.2069 81.1723C46.4423 81.5183 46.7747 81.7869 47.1624 81.9443C47.5501 82.1017 47.9758 82.1409 48.3857 82.0568C48.7956 81.9728 49.1715 81.7693 49.4659 81.472C49.7604 81.1748 49.9604 80.797 50.0406 80.3863C50.1208 79.9756 50.0776 79.5504 49.9166 79.1642C49.7556 78.778 49.4838 78.448 49.1357 78.216ZM29 25C29 24.4477 29.4477 24 30 24H38C38.5523 24 39 24.4477 39 25V59C39 59.5523 38.5523 60 38 60H30C29.4477 60 29 59.5523 29 59V25ZM31 26V58H37V26H31ZM44 34C43.4477 34 43 34.4477 43 35V59C43 59.5523 43.4477 60 44 60H52C52.5523 60 53 59.5523 53 59V35C53 34.4477 52.5523 34 52 34H44ZM45 58V36H51V58H45ZM57 31C57 30.4477 57.4477 30 58 30H66C66.5523 30 67 30.4477 67 31V59C67 59.5523 66.5523 60 66 60H58C57.4477 60 57 59.5523 57 59V31ZM59 32V58H65V32H59ZM30 64C29.4477 64 29 64.4477 29 65C29 65.5523 29.4477 66 30 66H66C66.5523 66 67 65.5523 67 65C67 64.4477 66.5523 64 66 64H30Z" fill="#01645A"/>
</svg>
