<svg width="96" height="96" viewBox="0 0 96 96" fill="none" xmlns="http://www.w3.org/2000/svg">
<path fill-rule="evenodd" clip-rule="evenodd" d="M22 17C22 13.6863 24.6863 11 28 11H69C72.3137 11 75 13.6863 75 17V78C75 81.3137 72.3137 84 69 84H28C24.6863 84 22 81.3137 22 78V17ZM28 13C25.7909 13 24 14.7909 24 17V78C24 80.2091 25.7909 82 28 82H69C71.2091 82 73 80.2091 73 78V17C73 14.7909 71.2091 13 69 13H28ZM29 26C29 24.3431 30.3431 23 32 23H37C38.6569 23 40 24.3431 40 26V63C40 64.6569 38.6569 66 37 66H32C30.3431 66 29 64.6569 29 63V26ZM32 25C31.4477 25 31 25.4477 31 26V63C31 63.5523 31.4477 64 32 64H37C37.5523 64 38 63.5523 38 63V26C38 25.4477 37.5523 25 37 25H32ZM46 46C44.3431 46 43 47.3431 43 49V63C43 64.6569 44.3431 66 46 66H51C52.6569 66 54 64.6569 54 63V49C54 47.3431 52.6569 46 51 46H46ZM45 49C45 48.4477 45.4477 48 46 48H51C51.5523 48 52 48.4477 52 49V63C52 63.5523 51.5523 64 51 64H46C45.4477 64 45 63.5523 45 63V49ZM57 32C57 30.3431 58.3431 29 60 29H65C66.6569 29 68 30.3431 68 32V63C68 64.6569 66.6569 66 65 66H60C58.3431 66 57 64.6569 57 63V32ZM60 31C59.4477 31 59 31.4477 59 32V63C59 63.5523 59.4477 64 60 64H65C65.5523 64 66 63.5523 66 63V32C66 31.4477 65.5523 31 65 31H60ZM30 70C29.4477 70 29 70.4477 29 71C29 71.5523 29.4477 72 30 72H66.5C67.0523 72 67.5 71.5523 67.5 71C67.5 70.4477 67.0523 70 66.5 70H30Z" fill="#01645A"/>
</svg>
