<svg width="96" height="96" viewBox="0 0 96 96" fill="none" xmlns="http://www.w3.org/2000/svg">
<path d="M59.2473 32.6645C59.6143 32.2518 59.5772 31.6197 59.1645 31.2527C58.7518 30.8857 58.1197 30.9228 57.7527 31.3355L45.9836 44.5717L40.1807 39.1804C39.7761 38.8045 39.1433 38.8278 38.7674 39.2324C38.3915 39.637 38.4148 40.2698 38.8194 40.6457L44.6223 46.0369C45.4441 46.8004 46.7329 46.7389 47.4782 45.9007L59.2473 32.6645Z" fill="#01645A"/>
<path fill-rule="evenodd" clip-rule="evenodd" d="M49.0463 9.08841C48.7912 8.97338 48.4996 8.97048 48.2423 9.08041L24.1072 19.3915C23.7121 19.5603 23.469 19.9625 23.5032 20.3908C24.1431 28.3981 26.1253 40.423 30.014 50.4774C31.9574 55.5021 34.4011 60.0991 37.4422 63.4555C40.4942 66.824 44.206 69 48.6352 69C53.0678 69 56.73 66.8206 59.6991 63.4444C62.6553 60.0829 64.9782 55.4814 66.7882 50.4555C70.4101 40.3982 72.0721 28.3716 72.4986 20.3643C72.5206 19.9523 72.2873 19.5691 71.9111 19.3995L49.0463 9.08841ZM31.8794 49.7559C28.196 40.2325 26.2455 28.8231 25.5568 20.9471L48.6243 11.0921L70.4626 20.9403C69.9864 28.8173 68.34 40.2438 64.9065 49.7778C63.1385 54.6871 60.9203 59.0272 58.1973 62.1236C55.4872 65.2053 52.3323 67 48.6352 67C44.9347 67 41.7235 65.202 38.9243 62.1126C36.1142 59.0111 33.7785 54.6664 31.8794 49.7559Z" fill="#01645A"/>
<path d="M23.7359 82.4221C24.3081 83.5272 24.6559 84.771 24.1218 85.8979C23.8852 86.397 23.2889 86.6097 22.7898 86.3732C22.2908 86.1366 22.078 85.5403 22.3145 85.0412C22.4326 84.7923 22.4549 84.2977 21.9599 83.3417C21.4827 82.4202 20.6426 81.3011 19.4973 79.9815C18.1532 78.4328 16.4893 76.717 14.652 74.8224C13.3352 73.4646 11.9287 72.0143 10.4876 70.4684C10.1646 70.1219 9.97513 69.6711 9.95329 69.1982L9.13959 51.5831C9.03766 49.3763 10.744 47.5047 12.9508 47.4028C15.1576 47.3008 17.0291 49.0072 17.1311 51.2139L17.419 57.4468C18.501 57.3605 19.614 57.7117 20.4701 58.5101L26.9586 64.5616C31.6449 68.6 35.009 71.8252 37.2507 74.6327C38.2792 75.9207 38.6624 77.5419 38.5366 79.102L37.9789 86.0184C37.9345 86.5689 37.4522 86.9799 36.9017 86.9355C36.3512 86.8911 35.9409 86.4088 35.9853 85.8583L36.5431 78.9413C36.6349 77.8026 36.3488 76.7084 35.6878 75.8806C33.5655 73.2227 30.3149 70.0933 25.6382 66.0639L25.6265 66.0536L25.6089 66.0376L19.106 59.9728C18.5475 59.4519 17.7705 59.3111 17.0941 59.54C16.9777 59.6312 16.8403 59.6972 16.6897 59.7296C16.541 59.821 16.4019 59.9333 16.2768 60.0666C15.5188 60.8739 15.5588 62.1428 16.3661 62.9008L24.0171 70.0845C24.4197 70.4625 24.4396 71.0954 24.0616 71.498C23.6836 71.9006 23.0507 71.9206 22.6481 71.5425L14.9971 64.3588C13.3845 62.8448 13.3047 60.3102 14.8187 58.6976C15.0134 58.4903 15.225 58.3082 15.4494 58.1517L15.1332 51.3062C15.0822 50.2028 14.1464 49.3497 13.0431 49.4006C11.9397 49.4516 11.0865 50.3874 11.1375 51.4908L11.9511 69.1053C13.3222 70.5761 14.7048 72.0025 16.0189 73.3584C17.9001 75.2994 19.6411 77.0958 21.0078 78.6706C22.1771 80.0178 23.1458 81.2825 23.7359 82.4221Z" fill="#01645A"/>
<path d="M72.6401 82.4221C72.068 83.5272 71.7201 84.771 72.2543 85.8979C72.4908 86.397 73.0872 86.6097 73.5862 86.3732C74.0853 86.1366 74.2981 85.5403 74.0615 85.0412C73.9435 84.7923 73.9212 84.2977 74.4162 83.3417C74.8933 82.4202 75.7334 81.3011 76.8787 79.9815C78.2229 78.4326 79.887 76.7167 81.7245 74.8219C83.0414 73.464 84.4473 72.0143 85.8884 70.4684C86.2114 70.1219 86.4009 69.6711 86.4228 69.1982L87.2365 51.5831C87.3384 49.3763 85.6321 47.5047 83.4253 47.4028C81.2185 47.3008 79.3469 49.0072 79.245 51.2139L78.9571 57.4468C77.8751 57.3605 76.762 57.7117 75.9059 58.5101L69.4174 64.5616C64.7311 68.6 61.3671 71.8252 59.1253 74.6327C58.0969 75.9207 57.7137 77.5419 57.8395 79.102L58.3972 86.0184C58.4416 86.5689 58.9239 86.9799 59.4744 86.9355C60.0249 86.8911 60.4352 86.4088 60.3908 85.8583L59.833 78.9413C59.7412 77.8026 60.0272 76.7084 60.6882 75.8806C62.8106 73.2227 66.0611 70.0933 70.7378 66.0639C70.7478 66.0553 70.7575 66.0465 70.7671 66.0376L77.27 59.9728C77.8285 59.4519 78.6056 59.3111 79.2819 59.54C79.3983 59.6312 79.5358 59.6972 79.6864 59.7296C79.835 59.821 79.9741 59.9333 80.0993 60.0666C80.8572 60.8739 80.8173 62.1428 80.01 62.9008L72.359 70.0845C71.9563 70.4625 71.9364 71.0954 72.3144 71.498C72.6925 71.9006 73.3253 71.9206 73.728 71.5425L81.379 64.3588C82.9915 62.8448 83.0714 60.3102 81.5573 58.6976C81.3626 58.4903 81.151 58.3082 80.9267 58.1517L81.2429 51.3062C81.2938 50.2028 82.2296 49.3497 83.333 49.4006C84.4364 49.4516 85.2896 50.3874 85.2386 51.4908L84.4249 69.1053C83.0538 70.5761 81.6713 72.0025 80.3572 73.3584C78.4761 75.2994 76.7349 77.0959 75.3682 78.6706C74.199 80.0178 73.2302 81.2825 72.6401 82.4221Z" fill="#01645A"/>
</svg>
