<svg width="96" height="96" viewBox="0 0 96 96" fill="none" xmlns="http://www.w3.org/2000/svg">
<path fill-rule="evenodd" clip-rule="evenodd" d="M43.6184 14.6594C43.7916 13.1442 45.074 12 46.599 12H50.4011C51.9262 12 53.2085 13.1442 53.3817 14.6594L53.9172 19.3451C53.9667 19.7784 54.3073 20.1614 54.7946 20.2686C58.1282 21.0016 61.2479 22.3043 64.0462 24.0689C64.4653 24.3332 64.9732 24.3019 65.3127 24.032L68.9771 21.1192C70.171 20.1703 71.8868 20.268 72.9652 21.3464L75.6537 24.0349C76.7321 25.1132 76.8298 26.8291 75.8808 28.0229L73.0219 31.6197C72.7489 31.9631 72.7204 32.4782 72.9935 32.8988C74.8216 35.7143 76.1778 38.8653 76.9494 42.2395C77.0597 42.7223 77.4408 43.0583 77.871 43.1075L82.3406 43.6183C83.8558 43.7915 85 45.0739 85 46.5989V50.401C85 51.9261 83.8558 53.2085 82.3406 53.3816L77.992 53.8786C77.5549 53.9286 77.1693 54.2748 77.0663 54.7679C76.3434 58.2284 75.0077 61.4637 73.1784 64.3546C72.9131 64.7739 72.9442 65.2826 73.2144 65.6225L75.8808 68.9771C76.8298 70.1709 76.732 71.8867 75.6537 72.9651L72.9652 75.6536C71.8868 76.732 70.171 76.8297 68.9771 75.8808L65.6898 73.2678C65.3459 72.9944 64.83 72.9662 64.4092 73.2404C61.5018 75.1344 58.2351 76.5247 54.7336 77.2868C54.245 77.3931 53.9033 77.7767 53.8537 78.2107L53.3817 82.3406C53.2085 83.8558 51.9262 85 50.4011 85H46.599C45.074 85 43.7916 83.8558 43.6184 82.3406L43.1464 78.2107C43.0968 77.7767 42.7551 77.3931 42.2665 77.2868C38.765 76.5247 35.4984 75.1344 32.5909 73.2404C32.1701 72.9662 31.6542 72.9944 31.3103 73.2677L28.0229 75.8808C26.8291 76.8298 25.1133 76.732 24.0349 75.6537L21.3464 72.9652C20.268 71.8868 20.1703 70.171 21.1193 68.9771L23.7857 65.6225C24.056 65.2826 24.087 64.7739 23.8217 64.3546C21.9924 61.4637 20.6568 58.2285 19.9339 54.768C19.8308 54.2748 19.4453 53.9286 19.0081 53.8786L14.6594 53.3816C13.1442 53.2085 12 51.9261 12 50.401V46.599C12 45.0739 13.1442 43.7915 14.6594 43.6184L19.1292 43.1075C19.5593 43.0584 19.9404 42.7223 20.0508 42.2396C20.8223 38.8654 22.1786 35.7143 24.0066 32.8989C24.2797 32.4782 24.2512 31.9631 23.9782 31.6197L21.1192 28.0229C20.1703 26.8291 20.268 25.1132 21.3464 24.0349L24.0349 21.3464C25.1132 20.268 26.8291 20.1703 28.0229 21.1192L31.6874 24.032C32.0269 24.3019 32.5348 24.3333 32.9539 24.069C35.7522 22.3043 38.8719 21.0016 42.2055 20.2686C42.6928 20.1614 43.0334 19.7784 43.0829 19.3451L43.6184 14.6594ZM46.599 14C46.0907 14 45.6632 14.3814 45.6055 14.8865L45.07 19.5722C44.9164 20.9162 43.8948 21.9449 42.635 22.2219C39.5318 22.9042 36.6272 24.1169 34.0207 25.7607C32.9356 26.445 31.4956 26.4344 30.4429 25.5977L26.7784 22.6849C26.3805 22.3686 25.8085 22.4011 25.4491 22.7606L22.7606 25.4491C22.4011 25.8085 22.3686 26.3805 22.6849 26.7784L25.5439 30.3752C26.3904 31.4402 26.3906 32.8998 25.684 33.988C23.9812 36.6106 22.7187 39.5445 22.0005 42.6854C21.715 43.9338 20.6904 44.9421 19.3563 45.0946L14.8865 45.6054C14.3814 45.6631 14 46.0906 14 46.599V50.401C14 50.9094 14.3814 51.3369 14.8865 51.3946L19.2352 51.8916C20.5917 52.0466 21.6254 53.085 21.8916 54.359C22.5645 57.5803 23.8079 60.5924 25.5118 63.2852C26.1986 64.3707 26.1892 65.813 25.3514 66.867L22.6849 70.2216C22.3686 70.6195 22.4012 71.1915 22.7606 71.5509L25.4491 74.2394C25.8086 74.5989 26.3805 74.6315 26.7785 74.3152L30.0658 71.7021C31.1322 70.8545 32.594 70.8554 33.6826 71.5646C36.3909 73.3289 39.4324 74.6232 42.6918 75.3325C43.9545 75.6073 44.9796 76.6371 45.1335 77.9836L45.6055 82.1135C45.6632 82.6186 46.0907 83 46.599 83H50.4011C50.9095 83 51.3369 82.6186 51.3946 82.1135L51.8666 77.9836C52.0205 76.6371 53.0456 75.6073 54.3083 75.3325C57.5678 74.6232 60.6092 73.3289 63.3175 71.5646C64.4061 70.8554 65.8679 70.8545 66.9343 71.7021L70.2216 74.3151C70.6196 74.6314 71.1915 74.5989 71.551 74.2394L74.2394 71.5509C74.5989 71.1915 74.6315 70.6195 74.3152 70.2216L71.6487 66.867C70.8109 65.813 70.8015 64.3707 71.4884 63.2852C73.1922 60.5924 74.4356 57.5803 75.1086 54.3589C75.3747 53.085 76.4085 52.0466 77.7649 51.8915L82.1135 51.3945C82.6186 51.3368 83 50.9094 83 50.401V46.5989C83 46.0906 82.6186 45.6631 82.1135 45.6054L77.6439 45.0946C76.3098 44.9421 75.2851 43.9337 74.9997 42.6854C74.2815 39.5445 73.0189 36.6106 71.3161 33.988C70.6095 32.8997 70.6097 31.4402 71.4562 30.3752L74.3152 26.7784C74.6315 26.3805 74.5989 25.8085 74.2395 25.4491L71.551 22.7606C71.1915 22.4011 70.6196 22.3686 70.2216 22.6849L66.5572 25.5977C65.5045 26.4344 64.0645 26.4449 62.9794 25.7606C60.3729 24.1169 57.4683 22.9042 54.3651 22.2219C53.1054 21.9449 52.0838 20.9162 51.9302 19.5722L51.3946 14.8865C51.3369 14.3814 50.9095 14 50.4011 14H46.599ZM48.2291 32.9695C39.6518 32.9695 32.6986 39.9227 32.6986 48.5C32.6986 57.0773 39.6518 64.0305 48.2291 64.0305C56.8064 64.0305 63.7596 57.0773 63.7596 48.5C63.7596 39.9227 56.8064 32.9695 48.2291 32.9695ZM30.6986 48.5C30.6986 38.8181 38.5473 30.9695 48.2291 30.9695C57.9109 30.9695 65.7596 38.8181 65.7596 48.5C65.7596 58.1818 57.9109 66.0305 48.2291 66.0305C38.5473 66.0305 30.6986 58.1818 30.6986 48.5Z" fill="#01645A"/>
</svg>
