<svg width="96" height="96" viewBox="0 0 96 96" fill="none" xmlns="http://www.w3.org/2000/svg">
<path fill-rule="evenodd" clip-rule="evenodd" d="M56.5022 30.7252C56.8947 30.8318 57.3134 30.7787 57.6669 30.5777C57.7809 30.504 57.9086 30.4544 58.0423 30.4317C58.176 30.409 58.313 30.4137 58.4448 30.4457C58.5766 30.4776 58.7006 30.5359 58.8092 30.6173C58.9177 30.6986 59.0086 30.8011 59.0763 30.9187L65.3363 41.7613C65.4689 41.991 65.5048 42.264 65.4362 42.5201C65.3675 42.7763 65.1999 42.9947 64.9702 43.1273C64.7951 43.2285 64.6416 43.3631 64.5185 43.5235C64.3954 43.684 64.3051 43.8671 64.2527 44.0624C64.2004 44.2578 64.187 44.4615 64.2134 44.662C64.2398 44.8625 64.3054 45.0559 64.4066 45.231C64.5392 45.4607 64.5751 45.7337 64.5065 45.9898C64.4378 46.246 64.2702 46.4644 64.0405 46.597L40.857 59.982C40.6273 60.1147 40.3544 60.1506 40.0982 60.0819C39.842 60.0133 39.6236 59.8457 39.491 59.616C39.2877 59.2638 38.9532 59.0063 38.5607 58.8998C38.1682 58.7932 37.7495 58.8463 37.396 59.0473C37.1663 59.18 36.8933 59.2159 36.6372 59.1472C36.381 59.0786 36.1626 58.911 36.03 58.6813L29.77 47.8387C29.6374 47.609 29.6014 47.336 29.6701 47.0799C29.7387 46.8237 29.9063 46.6053 30.136 46.4727C30.4869 46.267 30.7422 45.9309 30.8462 45.5377C30.9501 45.1446 30.8944 44.7262 30.691 44.374C30.5584 44.1443 30.5225 43.8713 30.5911 43.6152C30.6598 43.359 30.8274 43.1406 31.057 43.0079L54.2059 29.643C54.4356 29.5103 54.7085 29.4744 54.9647 29.543C55.2209 29.6117 55.4393 29.7793 55.5719 30.009C55.7753 30.3612 56.1097 30.6187 56.5022 30.7252ZM58.797 47.315L50.997 33.805L36.2746 42.305L44.0746 55.815L58.797 47.315ZM31.927 47.5748L37.337 56.9452C37.9111 56.8091 38.51 56.8177 39.0799 56.9704C39.6497 57.1231 40.1727 57.4151 40.6018 57.82L42.3339 56.82L34.5339 43.31L32.8018 44.31C32.938 44.8841 32.9293 45.483 32.7766 46.0528C32.6239 46.6227 32.3319 47.1457 31.927 47.5748ZM62.321 43.5522C62.4737 42.9823 62.7656 42.4593 63.1706 42.0302L57.7259 32.6798C57.1554 32.8073 56.5623 32.7924 55.9989 32.6363C55.4356 32.4803 54.9193 32.1879 54.4958 31.785L52.7637 32.785L60.5637 46.295L62.2958 45.295C62.1596 44.7209 62.1683 44.122 62.321 43.5522Z" fill="#01645A"/>
<path fill-rule="evenodd" clip-rule="evenodd" d="M47.96 84.09C48.7761 84.09 49.5738 83.8476 50.252 83.3935C50.9302 82.9395 51.4582 82.2942 51.7691 81.5397C52.0801 80.7851 52.1599 79.9551 51.9985 79.1551C51.837 78.3551 51.4417 77.6211 50.8625 77.0461C50.2833 76.4711 49.5463 76.0811 48.7452 75.9255C47.944 75.77 47.1147 75.8559 46.3624 76.1723C45.6101 76.4887 44.9688 77.0215 44.5197 77.7029C44.0706 78.3844 43.834 79.1839 43.84 80C43.8479 81.0875 44.2854 82.1277 45.0572 82.8939C45.829 83.6601 46.8724 84.09 47.96 84.09ZM47.96 77.86C48.3784 77.86 48.7875 77.9839 49.1357 78.216C49.4838 78.448 49.7556 78.778 49.9166 79.1642C50.0776 79.5504 50.1208 79.9756 50.0406 80.3863C49.9604 80.797 49.7604 81.1748 49.4659 81.472C49.1715 81.7693 48.7956 81.9728 48.3857 82.0568C47.9758 82.1409 47.5501 82.1017 47.1624 81.9443C46.7747 81.7869 46.4423 81.5183 46.2069 81.1723C45.9716 80.8263 45.8439 80.4184 45.84 80C45.8373 79.7199 45.8902 79.4421 45.9956 79.1826C46.1009 78.9231 46.2566 78.687 46.4538 78.488C46.6509 78.289 46.8855 78.1311 47.144 78.0233C47.4025 77.9155 47.6799 77.86 47.96 77.86Z" fill="#01645A"/>
<path fill-rule="evenodd" clip-rule="evenodd" d="M25.36 88H70.56C71.2668 88.004 71.9675 87.8683 72.6219 87.6009C73.2762 87.3334 73.8713 86.9394 74.373 86.4414C74.8747 85.9434 75.2731 85.3512 75.5455 84.6989C75.8178 84.0466 75.9587 83.3469 75.96 82.64V13.36C75.9587 12.6531 75.8178 11.9535 75.5455 11.3011C75.2731 10.6488 74.8747 10.0567 74.373 9.55869C73.8713 9.06071 73.2762 8.66667 72.6219 8.3992C71.9675 8.13173 71.2668 7.99608 70.56 8.00003H25.36C24.6527 7.99475 23.9514 8.12949 23.2965 8.39649C22.6416 8.6635 22.0459 9.05747 21.544 9.55572C21.042 10.054 20.6436 10.6466 20.3718 11.2996C20.0999 11.9525 19.9599 12.6528 19.96 13.36V82.64C19.9599 83.3473 20.0999 84.0476 20.3718 84.7005C20.6436 85.3534 21.042 85.9461 21.544 86.4443C22.0459 86.9426 22.6416 87.3366 23.2965 87.6036C23.9514 87.8706 24.6527 88.0053 25.36 88ZM21.96 13.36C21.9613 12.9158 22.0504 12.4762 22.2222 12.0665C22.394 11.6568 22.6452 11.2852 22.9611 10.9729C23.2771 10.6606 23.6517 10.4139 24.0634 10.2469C24.4751 10.08 24.9157 9.99607 25.36 10H70.56C71.0042 9.99607 71.4448 10.08 71.8565 10.2469C72.2682 10.4139 72.6428 10.6606 72.9588 10.9729C73.2748 11.2852 73.5259 11.6568 73.6977 12.0665C73.8695 12.4762 73.9587 12.9158 73.96 13.36V17.09H21.96V13.36ZM21.96 19.08H73.96V71.61H21.96V19.08ZM21.96 73.61H73.96V82.61C73.9626 83.0568 73.8764 83.4996 73.7064 83.9128C73.5363 84.326 73.2858 84.7012 72.9695 85.0166C72.6531 85.3321 72.2771 85.5815 71.8635 85.7503C71.4498 85.9191 71.0067 86.004 70.56 86H25.36C24.9157 86.004 24.4751 85.9201 24.0634 85.7531C23.6517 85.5862 23.2771 85.3394 22.9611 85.0272C22.6452 84.7149 22.394 84.3432 22.2222 83.9336C22.0504 83.5239 21.9613 83.0843 21.96 82.64V73.61Z" fill="#01645A"/>
</svg>
