<svg width="96" height="96" viewBox="0 0 96 96" fill="none" xmlns="http://www.w3.org/2000/svg">
<path d="M71.29 45.9H52.29C52.0248 45.9 51.7705 45.7946 51.5829 45.6071C51.3954 45.4196 51.29 45.1652 51.29 44.9C51.29 44.6348 51.3954 44.3804 51.5829 44.1929C51.7705 44.0053 52.0248 43.9 52.29 43.9H71.29C71.5553 43.9 71.8096 44.0053 71.9971 44.1929C72.1847 44.3804 72.29 44.6348 72.29 44.9C72.29 45.1652 72.1847 45.4196 71.9971 45.6071C71.8096 45.7946 71.5553 45.9 71.29 45.9Z" fill="#01645A"/>
<path d="M52.29 55.54H71.29C71.5553 55.54 71.8096 55.4347 71.9971 55.2471C72.1847 55.0596 72.29 54.8052 72.29 54.54C72.29 54.2748 72.1847 54.0204 71.9971 53.8329C71.8096 53.6454 71.5553 53.54 71.29 53.54H52.29C52.0248 53.54 51.7705 53.6454 51.5829 53.8329C51.3954 54.0204 51.29 54.2748 51.29 54.54C51.29 54.8052 51.3954 55.0596 51.5829 55.2471C51.7705 55.4347 52.0248 55.54 52.29 55.54Z" fill="#01645A"/>
<path d="M71.29 65.18H52.29C52.0248 65.18 51.7705 65.0746 51.5829 64.8871C51.3954 64.6996 51.29 64.4452 51.29 64.18C51.29 63.9148 51.3954 63.6604 51.5829 63.4729C51.7705 63.2853 52.0248 63.18 52.29 63.18H71.29C71.5553 63.18 71.8096 63.2853 71.9971 63.4729C72.1847 63.6604 72.29 63.9148 72.29 64.18C72.29 64.4452 72.1847 64.6996 71.9971 64.8871C71.8096 65.0746 71.5553 65.18 71.29 65.18Z" fill="#01645A"/>
<path fill-rule="evenodd" clip-rule="evenodd" d="M19.3199 66V55.78C15.8469 53.3805 13.0049 50.1777 11.0355 46.444C9.06613 42.7103 8.02771 38.5561 8.00857 34.3349C7.98943 30.1137 8.99014 25.9503 10.9256 22.1989C12.861 18.4475 15.6739 15.219 19.125 12.7882C22.5761 10.3573 26.5632 8.79596 30.7473 8.23694C34.9314 7.67792 39.1886 8.13776 43.1568 9.57736C47.125 11.017 50.6868 13.3937 53.5392 16.5054C56.3916 19.6172 58.4502 23.3718 59.5399 27.45C60.8484 27.3599 62.1615 27.3599 63.4699 27.45C68.8988 27.8128 74.0802 29.8561 78.2953 33.2964C82.5105 36.7368 85.5505 41.4038 86.9937 46.6498C88.4368 51.8959 88.2115 57.4611 86.3491 62.5734C84.4866 67.6856 81.0794 72.0916 76.5999 75.18V85.4C76.6052 85.8964 76.4638 86.3833 76.1934 86.7996C75.9229 87.2159 75.5356 87.543 75.0799 87.74C74.7645 87.8791 74.4246 87.9539 74.0799 87.96C73.443 87.9593 72.8295 87.7203 72.3599 87.29L64.0599 79.69C63.2899 79.79 62.5099 79.79 61.7499 79.79C55.9683 79.784 50.3503 77.8693 45.7683 74.3433C41.1863 70.8173 37.8966 65.8772 36.4099 60.29C34.8958 60.415 33.374 60.415 31.8599 60.29L23.5599 67.89C23.0904 68.3203 22.4768 68.5593 21.8399 68.56C21.4953 68.5539 21.1553 68.4791 20.8399 68.34C20.385 68.142 19.9984 67.8145 19.7282 67.3985C19.4579 66.9824 19.3159 66.4961 19.3199 66ZM77.1478 34.891C73.2229 31.6726 68.3856 29.7693 63.3199 29.45H63.3499C60.0453 29.2352 56.7317 29.7008 53.6141 30.8177C50.4965 31.9347 47.6413 33.6794 45.2249 35.944C42.8085 38.2085 40.8824 40.9447 39.5658 43.9833C38.2491 47.0219 37.5698 50.2984 37.5699 53.61C37.5558 57.0118 38.26 60.3783 39.6363 63.4893C41.0127 66.6003 43.0303 69.3857 45.5571 71.6633C48.084 73.941 51.0632 75.6596 54.2998 76.7067C57.5365 77.7539 60.9578 78.106 64.3399 77.74H64.4399C64.6912 77.7381 64.934 77.831 65.1199 78L73.7499 85.85C73.829 85.9238 73.9281 85.9727 74.0348 85.9905C74.1416 86.0083 74.2512 85.9942 74.3499 85.95C74.4506 85.9091 74.5362 85.8382 74.5952 85.747C74.6543 85.6557 74.6838 85.5486 74.6799 85.44V74.65C74.6808 74.4853 74.7223 74.3233 74.8008 74.1786C74.8793 74.0338 74.9924 73.9106 75.1299 73.82C79.3666 71.0247 82.6176 66.9685 84.4233 62.2248C86.229 57.4811 86.4981 52.2899 85.1926 47.3849C83.887 42.4799 81.0728 38.1093 77.1478 34.891ZM16.827 17.3162C12.8496 21.4028 10.4425 26.7623 10.0299 32.45L10.0599 32.48C9.76329 36.7649 10.6063 41.0519 12.5032 44.9055C14.4001 48.759 17.2833 52.0417 20.8599 54.42C20.9975 54.5106 21.1105 54.6338 21.189 54.7786C21.2675 54.9234 21.3091 55.0853 21.3099 55.25V66.04C21.3074 66.1483 21.3376 66.2549 21.3964 66.3458C21.4553 66.4368 21.5401 66.5079 21.6399 66.55C21.7387 66.5942 21.8483 66.6083 21.955 66.5905C22.0617 66.5727 22.1608 66.5238 22.2399 66.45L30.8699 58.55C30.9741 58.4539 31.0975 58.381 31.232 58.3361C31.3664 58.2913 31.5089 58.2756 31.6499 58.29C33.0949 58.4447 34.5512 58.4648 35.9999 58.35C35.1992 54.0361 35.4978 49.5899 36.8679 45.4218C38.2381 41.2536 40.6358 37.4975 43.8399 34.5C47.6119 30.9218 52.3701 28.5566 57.4999 27.71C55.9708 22.2162 52.5515 17.4385 47.8446 14.219C43.1377 10.9994 37.4454 9.5448 31.771 10.1114C26.0966 10.678 20.8043 13.2295 16.827 17.3162Z" fill="#01645A"/>
</svg>
