<svg width="96" height="96" viewBox="0 0 96 96" fill="none" xmlns="http://www.w3.org/2000/svg">
<path fill-rule="evenodd" clip-rule="evenodd" d="M50.3979 7.15278C55.8469 7.15278 61.1987 8.30118 66.1479 10.602L67.0004 8.80118C61.7504 6.39878 56.1992 5.19958 50.3984 5.19958C44.5974 5.19958 39.0464 6.40278 33.7964 8.80118L34.6479 10.602C39.5969 8.30118 44.8979 7.15278 50.3979 7.15278ZM22.1479 25.398C16.6987 25.398 12.2495 20.9488 12.2495 15.4996C12.2495 10.0504 16.6987 5.6012 22.1479 5.6012C27.601 5.6012 32.0502 10.0504 32.0502 15.4996C32.0502 20.9488 27.601 25.398 22.1479 25.398ZM22.1479 7.601C17.7963 7.601 14.2495 11.1518 14.2495 15.4994C14.2495 19.851 17.8003 23.3978 22.1479 23.3978C26.4995 23.3978 30.0502 19.8509 30.0502 15.4994C30.0502 11.1479 26.4994 7.601 22.1479 7.601ZM7.5 43V42C7.5 33.6016 13.8516 27.301 22.25 27.301C30.6484 27.301 37 33.6018 37 42V43H7.5ZM9.45 41H34.801C34.301 34.25 29.051 29.301 22.102 29.301C15.1489 29.301 9.95 34.2502 9.45 41ZM40.4995 67.4536C40.4995 72.9028 44.9487 77.352 50.3979 77.352C55.851 77.352 60.3002 72.8989 60.2963 67.4536C60.2963 62.0044 55.8471 57.5552 50.3979 57.5552C44.9487 57.5552 40.4995 62.0044 40.4995 67.4536ZM42.4995 67.4494C42.4995 63.1018 46.0463 59.551 50.3979 59.551C54.7494 59.551 58.2494 63.1017 58.2963 67.4494C58.2963 71.797 54.7495 75.3478 50.3979 75.3478C46.0503 75.3478 42.4995 71.801 42.4995 67.4494ZM35.5 95V94C35.5 85.6016 41.8516 79.301 50.25 79.301C58.6484 79.301 65 85.6018 65 94V95H35.5ZM37.7 93H63.051C62.551 86.25 57.301 81.301 50.352 81.301C43.4497 81.301 38.2 86.2502 37.7 93ZM68.7036 15.4996C68.7036 20.9488 73.1528 25.398 78.602 25.398C84.0512 25.398 88.5004 20.9488 88.5004 15.4996C88.5004 10.0504 84.0512 5.6012 78.602 5.6012C73.1528 5.6012 68.7036 10.0504 68.7036 15.4996ZM70.7036 15.4994C70.7036 11.1518 74.2504 7.601 78.602 7.601C82.9496 7.601 86.5004 11.1478 86.5004 15.4994C86.5004 19.847 82.9536 23.3978 78.602 23.3978C74.2544 23.3978 70.7036 19.851 70.7036 15.4994ZM64 43V42C64 33.6016 70.3516 27.301 78.75 27.301C87.1484 27.301 93.5 33.6526 93.5 42V43H64ZM65.95 41H91.301C90.801 34.25 85.551 29.301 78.602 29.301C71.6489 29.301 66.399 34.2502 65.95 41ZM36.75 82.648C20.949 76.8511 10.301 61.5 10.301 45H12.301C12.301 61 22.403 75.301 37.449 80.801L36.75 82.648ZM63.3979 82.648C63.398 82.648 63.3979 82.648 63.3979 82.648V82.648ZM63.3979 82.648C79.6478 77.101 90.1475 61.9993 90.1475 44.9954H88.1475C88.1475 61.4954 78.1985 75.5464 62.7495 80.7964L63.3979 82.648Z" fill="#01645A"/>
</svg>
