<svg width="96" height="96" viewBox="0 0 96 96" fill="none" xmlns="http://www.w3.org/2000/svg">
<path d="M53.9619 33.4558C54.3524 33.0653 54.9856 33.0653 55.3761 33.4558L62.4472 40.5269C62.8377 40.9174 62.8377 41.5506 62.4472 41.9411C62.0566 42.3316 61.4235 42.3316 61.033 41.9411L53.9619 34.87C53.5714 34.4795 53.5714 33.8464 53.9619 33.4558Z" fill="#01645A"/>
<path fill-rule="evenodd" clip-rule="evenodd" d="M63.8614 5.17157C62.2993 3.60948 59.7667 3.60948 58.2046 5.17157L5.17157 58.2046C3.60947 59.7667 3.60948 62.2993 5.17157 63.8614L11.5355 70.2254C12.7376 71.4275 14.5323 71.2857 15.7421 70.5668C18.4286 68.9707 21.9535 69.3297 24.2635 71.6396C26.5734 73.9495 26.9324 77.4745 25.3362 80.1609C24.6174 81.3708 24.4756 83.1654 25.6777 84.3675L31.6881 90.3779C33.2502 91.94 35.7828 91.94 37.3449 90.3779L90.3779 37.3449C91.94 35.7828 91.94 33.2502 90.3779 31.6881L84.3675 25.6777C83.1654 24.4756 81.3708 24.6174 80.161 25.3362C77.4745 26.9324 73.9495 26.5734 71.6396 24.2635C69.3297 21.9535 68.9707 18.4286 70.5668 15.7421C71.2857 14.5323 71.4275 12.7376 70.2254 11.5355L63.8614 5.17157ZM59.6188 6.58579C60.3998 5.80474 61.6662 5.80474 62.4472 6.58579L68.8112 12.9497C69.1712 13.3098 69.257 14.0312 68.8475 14.7205C66.7954 18.1742 67.2533 22.7056 70.2254 25.6777C73.1975 28.6498 77.7289 29.1076 81.1826 27.0556C81.8719 26.646 82.5933 26.7319 82.9533 27.0919L88.9637 33.1023C89.7448 33.8833 89.7448 35.1497 88.9637 35.9307L73.4074 51.4871L66.6898 44.7696C66.2993 44.379 65.6661 44.379 65.2756 44.7696C64.8851 45.1601 64.8851 45.7932 65.2756 46.1838L71.9931 52.9013L35.9307 88.9637C35.1497 89.7448 33.8833 89.7448 33.1023 88.9637L27.0919 82.9533C26.7319 82.5933 26.646 81.8719 27.0556 81.1826C29.1076 77.7289 28.6498 73.1975 25.6777 70.2254C22.7056 67.2533 18.1742 66.7954 14.7205 68.8475C14.0312 69.257 13.3098 69.1712 12.9497 68.8112L6.58579 62.4472C5.80474 61.6662 5.80474 60.3998 6.58579 59.6188L42.6482 23.5564L49.7192 30.6274C50.1098 31.0179 50.7429 31.0179 51.1334 30.6274C51.524 30.2369 51.524 29.6037 51.1334 29.2132L44.0624 22.1422L59.6188 6.58579Z" fill="#01645A"/>
</svg>
