<svg width="96" height="96" viewBox="0 0 96 96" fill="none" xmlns="http://www.w3.org/2000/svg">
<path fill-rule="evenodd" clip-rule="evenodd" d="M72.7724 31.6694C72.2007 29.5355 70.0073 28.2692 67.8734 28.841L62.0779 30.3939C59.944 30.9656 58.6777 33.159 59.2495 35.2929L60.8024 41.0884C61.3741 43.2223 63.5675 44.4886 65.7014 43.9168L71.4969 42.3639C73.6308 41.7922 74.8971 39.5988 74.3253 37.4649L72.7724 31.6694ZM68.3911 30.7728C69.458 30.4869 70.5547 31.1201 70.8406 32.187L72.3935 37.9826C72.6794 39.0495 72.0462 40.1462 70.9793 40.4321L65.1837 41.985C64.1168 42.2709 63.0201 41.6377 62.7342 40.5708L61.1813 34.7752C60.8954 33.7083 61.5286 32.6116 62.5955 32.3257L68.3911 30.7728Z" fill="#01645A"/>
<path fill-rule="evenodd" clip-rule="evenodd" d="M58.7914 57C61.0006 57 62.7914 58.7909 62.7914 61V67C62.7914 69.2091 61.0006 71 58.7914 71H52.7914C50.5823 71 48.7914 69.2091 48.7914 67V61C48.7914 58.7909 50.5823 57 52.7914 57H58.7914ZM60.7914 61C60.7914 59.8954 59.896 59 58.7914 59H52.7914C51.6869 59 50.7914 59.8954 50.7914 61V67C50.7914 68.1046 51.6869 69 52.7914 69H58.7914C59.896 69 60.7914 68.1046 60.7914 67V61Z" fill="#01645A"/>
<path d="M27.9999 59C28.5522 59 28.9999 59.4477 28.9999 60V68C28.9999 68.5523 28.5522 69 27.9999 69C27.4476 69 26.9999 68.5523 26.9999 68V60C26.9999 59.4477 27.4476 59 27.9999 59Z" fill="#01645A"/>
<path fill-rule="evenodd" clip-rule="evenodd" d="M82.5022 16.639C81.9304 14.5051 79.737 13.2388 77.6032 13.8106L17.6387 29.878C15.5049 30.4498 14.2385 32.6431 14.8103 34.777L16.5617 41.3133C17.0026 42.9586 18.6299 43.711 19.99 43.759C21.2262 43.8027 22.4012 44.2488 23.3475 45H10C7.79086 45 6 46.7909 6 49V55.7669C6 57.4702 7.37717 58.6182 8.67843 59.0166C11.0217 59.7341 12.7239 61.9149 12.7239 64.4908C12.7239 67.0666 11.0217 69.2475 8.67844 69.965C7.37718 70.3634 6 71.5114 6 73.2147V79.5613C6 81.7705 7.79085 83.5613 10 83.5613H72.0798C74.2889 83.5613 76.0798 81.7705 76.0798 79.5613V73.2147C76.0798 71.5114 74.7026 70.3634 73.4013 69.965C71.0581 69.2475 69.3558 67.0667 69.3558 64.4908C69.3558 61.9149 71.0581 59.7341 73.4013 59.0166C74.7026 58.6182 76.0798 57.4702 76.0798 55.7669V54.1404L87.5836 51.058C89.7175 50.4862 90.9838 48.2929 90.412 46.159L88.7694 40.0286C88.3285 38.3833 86.7012 37.6309 85.3411 37.5828C82.892 37.4963 80.6833 35.8303 80.0167 33.3422C79.35 30.8542 80.4297 28.307 82.5075 27.0075C83.6613 26.2859 84.6944 24.8206 84.2536 23.1753L82.5022 16.639ZM76.0798 52.0699L87.0659 49.1261C88.1329 48.8402 88.766 47.7436 88.4802 46.6766L86.8375 40.5463C86.7066 40.0577 86.1182 39.6115 85.2705 39.5816C81.9677 39.4649 78.9853 37.2207 78.0848 33.8599C77.1843 30.499 78.6449 27.0643 81.447 25.3119C82.1661 24.8621 82.4526 24.1815 82.3217 23.6929L80.5703 17.1566C80.2844 16.0897 79.1878 15.4565 78.1208 15.7424L36.5089 26.8923L38.3207 33.6538C38.4636 34.1873 38.147 34.7356 37.6136 34.8785C37.0801 35.0215 36.5318 34.7049 36.3888 34.1714L34.5771 27.4099L18.1564 31.8098C17.0894 32.0957 16.4563 33.1924 16.7422 34.2593L18.4936 40.7956C18.6245 41.2842 19.2128 41.7304 20.0606 41.7603C22.4619 41.8451 24.6937 43.0545 26.0793 45H39.2904L37.9418 39.967C37.7989 39.4335 38.1154 38.8852 38.6489 38.7422C39.1824 38.5993 39.7307 38.9159 39.8736 39.4493L41.3609 45L72.0798 45C74.2889 45 76.0798 46.7909 76.0798 49V52.0699ZM26.9999 47V54C26.9999 54.5523 27.4476 55 27.9999 55C28.5522 55 28.9999 54.5523 28.9999 54V47L72.0798 47C73.1843 47 74.0798 47.8954 74.0798 49V55.7669C74.0798 56.2727 73.6269 56.8559 72.8158 57.1042C69.6557 58.0718 67.3558 61.0114 67.3558 64.4908C67.3558 67.9702 69.6557 70.9098 72.8158 71.8773C73.6269 72.1257 74.0798 72.7089 74.0798 73.2147V79.5613C74.0798 80.6659 73.1843 81.5613 72.0798 81.5613H28.9999V74C28.9999 73.4477 28.5522 73 27.9999 73C27.4476 73 26.9999 73.4477 26.9999 74V81.5613H10C8.89542 81.5613 8 80.6659 8 79.5613L8 73.2147C8 72.7089 8.45285 72.1257 9.26395 71.8773C12.4241 70.9098 14.7239 67.9702 14.7239 64.4908C14.7239 61.0114 12.4241 58.0718 9.26394 57.1042C8.45285 56.8559 8 56.2727 8 55.7669L8 49C8 47.8954 8.89542 47 10 47H26.9999Z" fill="#01645A"/>
</svg>
