<svg width="96" height="96" viewBox="0 0 96 96" fill="none" xmlns="http://www.w3.org/2000/svg">
<path fill-rule="evenodd" clip-rule="evenodd" d="M48 11C27.5655 11 11 27.5655 11 48C11 68.4345 27.5655 85 48 85C68.4345 85 85 68.4345 85 48C85 27.5655 68.4345 11 48 11ZM34.0002 15.9122C38.2873 14.0391 43.0223 13 48 13C60.5985 13 71.6424 19.6565 77.8063 29.6444C76.816 31.1044 75.1951 33.23 73.404 35.0793C72.467 36.0466 71.5016 36.9195 70.5715 37.5799C69.628 38.2498 68.7922 38.6495 68.1079 38.7636C67.4092 38.88 66.5254 38.7885 65.5 38.5011C64.4846 38.2166 63.3948 37.7585 62.313 37.2086C60.1658 36.117 58.1391 34.7092 56.9278 33.7437C56.6292 33.4722 56.168 33.2608 55.6765 33.0821C55.1042 32.8739 54.3221 32.6531 53.2926 32.4343C51.2318 31.9964 48.1191 31.5542 43.5888 31.2522C39.5941 30.9859 37.1648 28.412 35.7217 25.0664C34.4188 22.0457 33.9887 18.5189 34.0002 15.9122ZM32.0137 16.8559C20.7231 22.6631 13 34.4296 13 48C13 49.8403 13.142 51.6473 13.4157 53.4109C15.2837 53.2923 18.0729 53.0252 20.9578 52.57C24.1615 52.0646 27.3976 51.3399 29.6248 50.3678C32.367 49.1708 34.9979 49.8661 37.0667 51.0927C39.1218 52.3112 40.7392 54.1126 41.6164 55.4137L41.6379 55.4455L41.6569 55.4789C42.5621 57.073 43.4713 59.7348 43.2988 62.6364C43.1234 65.5854 41.8276 68.7527 38.3754 71.2149C34.6034 73.9051 34.013 76.2453 34.1438 77.8422C34.2133 78.6902 34.4929 79.4285 34.7801 80.0261C34.8675 80.208 34.9512 80.3684 35.0311 80.5186C39.0418 82.1196 43.4181 83 48 83C53.0846 83 57.916 81.9158 62.2756 79.9659C62.0381 78.1454 61.8777 75.4083 62.1224 72.7161C62.375 69.9379 63.0805 66.9302 64.8487 65.162C66.137 63.8737 66.6304 62.3143 66.7137 60.8438C66.7951 59.4051 66.4787 58.0991 66.1688 57.3397C65.8965 56.9157 65.6383 56.3935 65.5172 55.8485C65.39 55.2765 65.3821 54.503 65.9126 53.8664C66.4343 53.2404 67.2593 53.0113 68.1688 53.0004C69.095 52.9893 70.2993 53.1981 71.8432 53.6613C76.8493 55.1631 79.5797 57.398 81.0497 59.5491C82.3132 55.9333 83 52.0469 83 48C83 42.0584 81.5195 36.4626 78.9072 31.5614C77.8674 33.0136 76.4225 34.8375 74.8406 36.4707C73.8526 37.4908 72.793 38.4554 71.7294 39.2107C70.6791 39.9564 69.5524 40.5504 68.4367 40.7364C67.3354 40.9199 66.1317 40.7552 64.9603 40.4269C63.7788 40.0959 62.5623 39.5789 61.4066 38.9914C59.0972 37.8173 56.9401 36.3148 55.6476 35.2808L55.6044 35.2463L55.5656 35.2075C55.5791 35.221 55.5785 35.2207 55.5568 35.2085C55.5073 35.1805 55.3473 35.0905 54.993 34.9616C54.5342 34.7948 53.8475 34.5969 52.8769 34.3906C50.9378 33.9786 47.9254 33.5457 43.4557 33.2478C38.4504 32.9141 35.5047 29.613 33.8853 25.8585C32.6033 22.8865 32.0998 19.5367 32.0137 16.8559ZM80.0864 61.9062L80.1386 61.883C76.9435 69.2693 71.2767 75.3371 64.1809 79.0432C64.0053 77.3723 63.9131 75.1087 64.1142 72.8971C64.3616 70.1753 65.0311 67.808 66.2629 66.5762C67.9746 64.8646 68.6062 62.799 68.7105 60.9569C68.8137 59.1328 68.4052 57.4792 67.975 56.4752L67.9388 56.3908L67.8879 56.3144C67.6799 56.0024 67.5278 55.6769 67.4695 55.4147C67.432 55.2458 67.445 55.1692 67.4529 55.1442C67.4858 55.1183 67.6581 55.0067 68.1928 55.0003C68.8292 54.9927 69.8124 55.1401 71.2685 55.5769C77.0434 57.3094 79.226 59.9703 80.0864 61.9062ZM13.7819 55.3912C16.0409 65.8993 23.0174 74.6551 32.3859 79.3327C32.2752 78.9255 32.1895 78.4815 32.1505 78.0055C31.9481 75.5345 33.0246 72.5745 37.2141 69.5866C40.1309 67.5062 41.1596 64.9179 41.3023 62.5177C41.4466 60.0904 40.6817 57.8271 39.9365 56.4998C39.1786 55.3857 37.7743 53.8374 36.0467 52.8131C34.3164 51.7871 32.381 51.3469 30.4249 52.2007C27.9537 53.2794 24.5086 54.0345 21.2695 54.5456C18.439 54.9922 15.7003 55.262 13.7819 55.3912Z" fill="#01645A"/>
</svg>
